<?xml version="1.0" encoding="utf-8"?>
<!-- Generator: Adobe Illustrator 14.0.0, SVG Export Plug-In . SVG Version: 6.00 Build 43363)  -->
<!DOCTYPE svg PUBLIC "-//W3C//DTD SVG 1.1//EN" "http://www.w3.org/Graphics/SVG/1.1/DTD/svg11.dtd">
<svg version="1.1" id="Abarth_Logo" xmlns="http://www.w3.org/2000/svg" xmlns:xlink="http://www.w3.org/1999/xlink" x="0px"
	 y="0px" width="210px" height="226px" viewBox="0 0 210 226" enable-background="new 0 0 210 226" xml:space="preserve">
<path fill-rule="evenodd" clip-rule="evenodd" fill="#D3D4D6" d="M104.752,4.83c0,0-16.092-0.16-30.484,2.405
	s-23.089,0.5-27.72-2.065C34.721,9.801,21.393,15.432,21.393,15.432s0.065,7.697-6.131,15.393C9.066,38.522,5,44.153,5,44.153
	s14.393,12.328,12.828,17.958c-1.565,5.631-19.023,61.074-4.131,91.36c14.893,30.287,37.794,47.619,66.703,53.376
	c15.393,3.065,24.654,14.328,24.654,14.328s9.154-11.349,24.547-14.415c28.909-5.757,51.81-23.09,66.703-53.376
	c14.893-30.286-2.565-85.728-4.131-91.359C190.607,56.394,205,44.066,205,44.066s-4.066-5.631-10.262-13.328
	c-6.196-7.696-6.131-15.393-6.131-15.393s-13.328-5.631-25.155-10.262c-4.631,2.565-13.328,4.631-27.72,2.065
	S104.752,4.83,104.752,4.83z"/>
<path d="M13.791,41.549c5.332-6.705,10.583-12.698,12.093-21.761c4.111-1.719,12.439-5.175,20.458-8.344
	c6.037,2.612,15.351,3.943,28.77,1.552c13.971-2.491,29.652-2.331,29.652-2.331c17-0.258,44.395,6.964,58.893,0.693
	c8.019,3.169,16.347,6.625,20.458,8.344c1.516,9.102,6.807,15.107,12.163,21.848H13.791z"/>
<path fill-rule="evenodd" clip-rule="evenodd" fill="#FFFFFF" d="M113.25,21.982v5.239c0,0,6.835,0.107,9.724,0.107
	c2.888,0,2.565-1.165,2.565-2.242s0.323-2.889-2.781-2.889S113.25,21.982,113.25,21.982z M96.59,29.108l-3.703-7.361l-4.02,7.361
	H96.59z M46.76,34.294H34.317l-1.689,2.597h-6.831l10.956-15.396l8.11-1.031l10.102,15.313V19.021c0,0,15.442-1.256,19.832-1.256
	c4.39,0,4.861,2.299,4.861,5.345c0,3.047-2.425,3.818-2.702,3.818s-0.216,0.438,0.021,0.438c0.237,0,3.119-0.079,3.119,2.17v3.593
	l9.042-16.54l8.208-0.057l9.651,18.982V16.856c0,0,16.195,0.401,19.963,0.802s4.329,2.726,4.329,2.726l-0.08-2.325
	c0,0,7.376,0.16,17.077,0.962s15.273,1.577,15.273,1.577v6.495l13.362,1.336v-5.398l5.999,0.962l0.004,12.815h-6.013l-0.004-4.477
	c0,0-1.924-0.321-6.173-0.561c-4.249-0.241-7.25-0.366-7.25-0.366l0.004,5.364h-6.142l-0.004-12.29c0,0-1.788-0.299-5.729-0.539
	c-3.942-0.239-5.894-0.232-5.894-0.232l0.004,13.021h-6.173l-0.004-13.737h-8.061v1.375c0,5.353-3.008,5.629-3.423,5.629
	s-0.221,0.359-0.028,0.359c0.194,0,2.978-0.185,2.978,1.988l0,4.507h-6.156l-0.001-2.572c0,0,0.57-1.866-2.443-1.866h-9.564
	l0.018,4.4l-12.399,0.015l-1.618-3.224H86.414l-1.745,3.219l-6.613-0.036c0,0-0.087-0.125,0.021-1.127
	c-1.811,1.456-3.32,1.178-3.32,1.178l-26.422,0.038L46.76,34.294z M61.025,22.934c0,0,8.917-0.549,11.056-0.549s1.405,2.932,0,2.993
	c-1.405,0.061-11.056,0.183-11.056,0.183V22.934z M60.781,29.897c0,0,8.368-0.366,11.117-0.427s1.955,3.176,0.244,3.176H60.658
	L60.781,29.897z M36.624,30.748l7.67-0.349l-3.671-5.8L36.624,30.748z"/>
<path fill="#FFD500" d="M193.636,49.567c-3.859,4.41-7.443,9.932-6.098,14.771c1.447,5.206,3.007,11.087,4.456,17.349l-21.597,9.821
	c-0.028-0.044-0.06-0.088-0.097-0.132l-28.983-33.86c-0.088-0.103-0.552-0.29-0.687-0.277l-44.907,4.345
	c-1.009,0.098-1.176,1.115-0.251,1.53l28.125,12.622l-14,6.184c-0.911,0.402-0.779,1.38,0.207,1.526l27.712,4.114
	c0.101,0.015,0.561-0.118,0.639-0.184l9.716-8.307l5.037,10.745l-32.924,8.495c-0.376,0.097-0.66,0.543-0.587,0.926
	c0,0,1.745,9.193,2.808,13.061l-10.03-11.292c-1.416-1.594-6.023,5.395-6.99,6.476l-9.653,0.329
	c-0.489,0.017-0.834,0.428-0.767,0.913l1.984,14.172l-7.226-9.852c-0.246-0.335-0.769-0.42-1.108-0.181l-27.938,19.695
	l-5.504-11.009l12.541-1.918c0.101-0.016,0.502-0.278,0.556-0.364l14.912-23.571c0.542-0.856-0.159-1.612-1.054-1.137l-13.689,7.273
	l9.099-29.97c0.294-0.97-0.585-1.513-1.32-0.813l-32.08,30.533c-0.099,0.094-0.261,0.567-0.24,0.702l6.68,43.614
	c0.009,0.061,0.023,0.119,0.041,0.173L21.62,159.165c-1.25-2.181-2.453-4.444-3.606-6.791c-11.72-23.836-2.376-63.395,4.449-87.949
	c1.354-4.872-2.286-10.434-6.173-14.858H193.636z"/>
<path fill="#E2001A" d="M192.359,83.284c5.188,22.969,8.654,50.648-0.372,69.003c-14.273,29.027-35.975,45.334-63.326,50.781
	c-8.847,1.762-17.033,6.222-23.636,12.273c-6.646-5.999-14.844-10.425-23.687-12.187c-24.666-4.913-44.736-18.657-58.908-42.598
	l73.093-33.239l-7.146,9.869l-2.854-0.069c-1.004-0.024-1.297,0.938-0.45,1.478l5.762,3.671c0.265,0.168,0.788,0.107,1.006-0.118
	l8.988-9.265l1.674,2.224l-8.464,9.189c-0.271,0.028-5.431,0.205-3.143,1.747l5.328,3.592c0.265,0.179,0.79,0.128,1.015-0.098
	l9.202-9.202l1.655,2.197l-8.341,9.031h-2.767c-3.414,0,4.376,6.843,5.7,5.511l9.306-9.368l1.827,2.425l-7.666,8.97l-3.304,0.031
	c-0.974,0.009-1.25,0.905-0.45,1.46l5.196,3.604c0.269,0.186,0.793,0.139,1.024-0.092l8.969-8.969
	c0.138,0.183,0.331,0.488,0.572,0.711c-0.062,0.096-0.097,0.203-0.101,0.321l-0.481,13.469c-0.002,0.068,0.035,0.182,0.09,0.298
	c-0.314-0.042-0.575,0.016-0.75,0.219l-8.442,9.731c-0.087,0.101-0.205,0.586-0.173,0.716l0.068,0.28
	c-0.173-0.108-0.373-0.135-0.606-0.061l-11.971,3.851c-0.095,0.031-0.449,0.351-0.489,0.442l-0.18,0.412
	c-0.011-0.333-0.108-0.595-0.332-0.739l-14.791-9.503c-0.269-0.173-0.934-0.12-1.727,0.079l0.784-0.298
	c0.267-0.102,0.542-0.549,0.513-0.833l-2.726-25.816c-0.11-1.042-1.236-1.16-1.56-0.164l-9.941,30.626
	c-0.258,0.794,0.267,1.293,1.047,0.997l9.422-3.578c-1.353,0.701-2.31,1.599-1.52,2.285c5.907,5.126,22.599,21.764,21.054,16.321
	l-0.093-0.328c0.419,0.622,0.855,1.016,1.242,0.948l18.382-3.208c0.803-0.14,1.005-0.813,0.412-1.373l0.653,0.028
	c0.308,0.255,0.836,0.217,1.104-0.079l15.714-17.321c0.418-0.46,0.38-0.95,0.018-1.19c0.341-0.067,0.661-0.426,0.669-0.771
	l0.481-20.204c0.017-0.726-0.476-1.066-1.058-0.794l0.629-0.418c0.794-0.525-0.094-2.439-0.166-2.705l12.733-0.512
	c1.661-0.067,1.207-6.451,1.249-6.993c0.073-0.946-0.741-1.303-1.387-0.607l-1.858,2.001l-12.276,0.459l-0.86-3.157l13.405-0.939
	c1.655-0.116,0.972-6.374,0.998-7.012c0.104-2.581-2.996,0.984-3.443,1.419l-12.699,0.149l-0.761-2.79l13.648-0.829
	c1.657-0.101,1.378-6.966,1.38-6.987c0.264-2.622-3.085,0.891-3.509,1.27l-13.236,0.247l-0.745-2.732l14.033-0.765
	c0.292-0.016,0.688-0.362,0.744-0.648l1.31-6.779c0.193-0.997-0.742-1.445-1.399-0.671l-1.651,1.947
	c-6.56,0.048-10.487-0.06-13.239,0L192.359,83.284z"/>
<path fill="#E2001A" d="M198.556,44.48c-1.102,1.063-2.422,2.355-3.764,3.804H138.03v-5.452h59.259
	C197.713,43.375,198.136,43.924,198.556,44.48z"/>
<path fill="#006D2B" d="M71.969,48.284H15.127c-1.314-1.413-2.604-2.676-3.684-3.717c0.442-0.587,0.888-1.164,1.334-1.735h59.191
	V48.284z"/>
<rect x="71.969" y="42.832" fill="#FFFFFF" width="66.061" height="5.452"/>
<path fill-rule="evenodd" clip-rule="evenodd" d="M118.862,156.198l7.536-0.161l6.734-4.65l-0.48,20.204l-9.781,0.802l-4.489-2.726
	L118.862,156.198z M117.525,170.681l4.493,2.887l10.155-0.536l-15.714,17.321l-6.202-5.131l-1.173-4.81L117.525,170.681z
	 M108.013,181.586l1.178,4.703l5.555,5.238l-18.382,3.208l-2.142-5.131l1.821-4.167L108.013,181.586z M94.361,185.463L93,189.554
	l1.58,5.569l-19.758-17.146l4.748-2.018L94.361,185.463z M76.051,148.501l2.726,25.816l-12.667,4.81L76.051,148.501z
	 M128.589,133.107l13.639-0.16l2.313-2.25l-0.253,6.245l-14.379,1.007l1.285,4.713l13.243-0.496l2.084-2.245l-0.48,6.253
	l-13.74,0.553l0.762,2.797l-7.223,4.775l-7.104,1.026l-1.061-1.409l-9.621,9.621l-5.196-3.604l3.669-0.034l8.321-9.736l-2.771-3.678
	l-9.958,10.025l-5.131-4.145h3.118l9.033-9.78l-2.613-3.469l-9.854,9.854l-5.328-3.592l3.079-0.316l9.123-9.905l-2.64-3.505
	l-9.64,9.937l-5.763-3.671L88.78,138l8.289-11.446l26.273-12.077l16.047-0.116l1.889-2.228l-1.309,6.779l-15.024,0.819l1.17,4.292
	l14.158-0.265l2.398-2.146l-0.631,6.268l-14.632,0.888L128.589,133.107z M88.877,113.517l8.287,11.298L51.17,145.775l-6.68-43.614
	l32.081-30.533l-9.66,31.815l15.393-8.178l-14.912,23.571l-13.629,2.084l6.414,12.828L88.877,113.517z M111.575,101.538
	l10.596,11.929l-24.376,11.114l-2.236-15.97l9.995-0.34L111.575,101.538z M169.691,91.898l-46.774,21.263l-0.064-0.008
	l-2.669-14.066l33.86-8.736l-5.894-12.574l-10.516,8.991l-27.712-4.114l15.647-6.911L95.801,62.383l44.907-4.346L169.691,91.898z"/>
</svg>
