<svg width="161" height="64" viewBox="0 0 161 64" fill="#000" xmlns="http://www.w3.org/2000/svg">
  <path d="M146.818 0.876894C146.379 0.0626362 145.44 0 145.189 0H91.1351C89.6319 0 88.3792 0.438449 87.4397 1.37798C86.8133 2.00433 86.3122 2.88122 86.0617 3.88339C86.0617 3.88339 85.999 4.13392 85.498 4.13392H74.85C74.4115 4.13392 74.3489 3.94602 74.2863 3.88339C74.0357 2.88122 73.5973 2.00433 72.9083 1.37798C72.0314 0.501085 70.716 0 69.2128 0H15.2213C14.8454 0 14.0312 0.0626362 13.5927 0.876894C13.4048 1.2527 13.2169 1.87906 13.718 2.81858L14.7202 4.4471C15.096 5.07345 15.5971 5.32399 16.5992 5.38663C16.5992 5.38663 17.0377 5.44926 17.4135 6.01298L18.4157 7.76677C18.6036 8.14258 19.1046 9.14474 20.8584 9.39528C20.9211 9.39528 21.3595 9.45792 21.6727 10.0216L22.9254 12.2139C23.3012 12.9029 23.8023 13.1534 24.7418 13.4666L47.3531 20.1059C48.1047 20.3564 48.4806 21.2333 48.4806 21.2333C49.0443 22.6113 49.7333 23.8014 53.2408 24.8662L71.7182 29.877C71.9688 29.9396 74.0984 30.566 75.6642 29.0627L79.9861 24.9288C79.9861 24.9288 80.174 24.7409 80.3619 24.7409C80.6124 24.7409 80.7377 24.9288 80.7377 24.9288L85.0595 29.0627C86.688 30.6286 88.755 29.9396 89.0055 29.877L107.483 24.8662C110.99 23.8014 111.679 22.6739 112.243 21.2333C112.243 21.2333 112.556 20.3564 113.371 20.1059L135.982 13.4666C136.859 13.1534 137.36 12.9029 137.798 12.2139L139.051 10.0216C139.302 9.52055 139.803 9.39528 139.865 9.39528C141.556 9.14474 142.058 8.20521 142.308 7.76677L143.31 6.01298C143.623 5.44926 144.062 5.38663 144.125 5.38663C145.064 5.32399 145.565 5.07345 146.004 4.4471L147.006 2.81858C147.194 1.94169 147.006 1.2527 146.818 0.876894ZM87.0638 4.19656C87.2517 3.31967 87.6276 2.69331 88.1286 2.1296C88.8176 1.44061 89.8198 1.00216 91.0725 1.00216H115.939C115.062 1.62851 114.623 2.44277 114.623 2.50541C114.31 3.06912 113.997 3.63284 113.559 4.38446H87.0012C87.0638 4.32183 87.0638 4.19656 87.0638 4.19656ZM107.733 10.0843V8.83156L110.114 9.14474C109.8 9.52055 109.487 9.959 109.111 10.3348C108.485 10.2722 108.047 10.2095 107.733 10.0843ZM108.485 11.0864C108.235 11.3996 107.984 11.6501 107.733 11.9633V10.9612L108.485 11.0864ZM107.733 8.07994V7.01515L111.617 7.26568C111.304 7.64149 110.99 8.07994 110.74 8.45575L107.733 8.07994ZM107.733 6.26352V5.26136H112.995C112.744 5.63717 112.431 6.13825 112.118 6.5767L107.733 6.26352ZM69.2754 1.0648C70.5281 1.0648 71.5303 1.44061 72.2193 2.19223C72.7204 2.69331 73.0962 3.3823 73.2841 4.2592L73.4094 4.50974H46.852C46.4762 3.88339 45.7872 2.63068 45.7872 2.63068C45.7246 2.56805 45.2862 1.75379 44.4719 1.12744C57.2495 1.0648 69.2754 1.0648 69.2754 1.0648ZM51.2991 10.3974C50.9233 10.0216 50.6101 9.58319 50.297 9.20738L52.6771 8.8942V10.1469L51.2991 10.3974ZM52.6145 10.8985V11.9007C52.3639 11.6501 52.1134 11.337 51.8629 11.0864C52.176 11.0238 52.4266 10.9612 52.6145 10.8985ZM49.6706 8.51839C49.3574 8.14258 49.0443 7.70413 48.7937 7.32832L52.6145 7.07778V8.07994L49.6706 8.51839ZM52.6145 6.26352L48.23 6.5767C47.9168 6.13825 47.6037 5.6998 47.3531 5.26136H52.6145V6.26352ZM16.5366 4.4471C15.8476 4.38446 15.6597 4.32183 15.4718 3.94602C15.4718 3.94602 14.5949 2.44278 14.5323 2.31751C14.407 2.06696 14.3444 1.81642 14.3444 1.69115C14.3444 1.31534 14.5949 1.0648 15.2213 1.0648H42.1544C43.9708 1.0648 45.0983 2.94386 45.0983 2.94386C45.3488 3.3823 45.5993 3.88338 45.9751 4.4471H16.5366ZM20.2321 8.26785C19.5431 8.01731 19.3552 7.6415 19.1673 7.39096C18.7915 6.70197 18.2278 5.63717 17.9146 5.26136H46.4136C46.6641 5.6998 46.9773 6.13825 47.2905 6.63933L22.2364 8.26785C21.9232 8.33048 20.7958 8.33048 20.2321 8.26785ZM24.8671 11.8381C23.9902 11.9633 23.677 11.6501 23.6144 11.5875L22.4243 9.45791C22.299 9.33264 22.2364 9.14474 22.1111 9.0821C22.2364 9.0821 47.8542 7.39096 47.8542 7.39096C48.1674 7.76677 48.4806 8.26785 48.7311 8.64366L24.8671 11.8381ZM30.6295 14.1556C28.1867 13.4039 26.1198 12.8402 25.2429 12.5897L49.3574 9.33265C49.7333 9.70846 49.9838 10.2095 50.4222 10.5854L33.9492 13.9677C33.2602 14.0929 31.5064 14.4061 30.6295 14.1556ZM38.8347 16.5357C36.9557 15.972 35.0766 15.4083 33.2602 14.9072C33.7613 14.8445 34.1371 14.7819 34.1371 14.7819C34.1371 14.7819 46.0378 12.3391 51.0486 11.337C51.5497 11.9007 52.0508 12.4644 52.6145 12.9655L41.5907 16.4104C41.4654 16.3478 39.9622 16.8489 38.8347 16.5357ZM47.4158 19.0411C47.1652 18.9785 44.5345 18.1642 41.1522 17.2247C41.4654 17.162 41.7159 17.0994 41.7159 17.0994C41.7159 17.0994 50.986 14.2182 53.1156 13.5918C53.9298 14.3435 54.7441 15.0951 55.6836 15.8467L49.6706 18.6653C49.3574 18.7906 48.23 19.2916 47.4158 19.0411ZM67.3964 13.4666L60.6318 18.2895C59.5044 17.6005 58.3143 16.7862 57.1868 15.972C59.6923 14.7819 62.0724 13.7171 62.5108 13.4666H67.3964ZM69.4633 22.1729C68.0854 21.7971 66.77 21.296 65.3921 20.7949C68.2106 17.851 71.5929 14.3435 72.4072 13.5292H74.5994L69.4633 22.1729ZM75.539 13.4666H77.418L74.7247 23.2377C73.2215 23.0498 71.7808 22.7366 70.2776 22.3608C72.2193 19.0411 74.85 14.6566 75.539 13.4666ZM64.6404 20.4817C63.513 19.9806 62.4482 19.4169 61.3208 18.8532C64.5152 16.5357 67.8348 14.1556 68.6491 13.5918H71.2798L64.6404 20.4817ZM56.4979 15.4083C56.4352 15.3456 54.8693 14.0303 54.243 13.4666H60.6944L56.4979 15.4083ZM52.176 23.3629C49.8585 22.486 49.4827 21.6091 49.1695 20.7323C49.1069 20.607 48.9816 20.1685 48.5432 19.7927C49.3574 19.6675 49.9838 19.3543 50.0464 19.2916C50.0464 19.2916 53.2408 17.851 56.31 16.3478C57.4374 17.2247 58.6275 18.0389 59.8175 18.7906L54.243 22.7366C54.3056 22.8619 53.1782 23.6761 52.176 23.3629ZM58.878 25.3046L53.9298 23.9266C54.4309 23.7387 54.8067 23.4882 54.8067 23.4256C54.8067 23.4256 57.5627 21.4839 60.6318 19.229C61.7592 19.8554 62.8867 20.4817 64.0767 20.9828L60.8823 24.4277C60.5691 24.7409 59.6296 25.4299 58.878 25.3046ZM65.7679 27.1837L60.4439 25.7431C61.0076 25.4299 61.3834 25.0541 61.3834 24.9914C61.3834 24.9914 62.8867 23.3629 64.8283 21.4212C66.2063 22.0476 67.5843 22.5487 69.0249 22.9245L67.2711 25.8683C67.0832 26.2442 66.3942 27.2463 65.7679 27.1837ZM73.5346 27.2463C73.5346 27.2463 73.3467 28.1858 72.6577 28.6243C72.3446 28.8122 72.0314 28.8122 71.5929 28.7496L66.8953 27.4969C67.459 27.0584 67.8348 26.3694 67.8975 26.2442C67.8975 26.2442 68.7117 24.8662 69.7765 23.0498C71.2798 23.4256 72.8456 23.7387 74.4115 23.9266L73.5346 27.2463ZM74.7247 28.1858C74.3489 28.5617 73.9731 28.7496 73.5973 28.8122C74.0984 28.1858 74.2863 27.4969 74.2863 27.4342L75.1632 24.1146C76.2906 24.2398 77.4807 24.3025 78.6707 24.3651C77.8565 25.3046 74.7247 28.1858 74.7247 28.1858ZM79.7982 23.6135C78.3575 23.6135 76.8543 23.4882 75.4137 23.3629L78.107 13.5292H79.7355L79.7982 23.6135ZM53.4287 12.7149V5.19872H106.982V12.7149H53.4287ZM85.8111 13.4666H88.0034L95.0185 20.7323C93.7032 21.296 92.3252 21.7344 90.9472 22.1102L85.8111 13.4666ZM90.133 22.3608C88.6924 22.7366 87.1891 22.9871 85.6859 23.2377L82.9925 13.4666H84.8716L90.133 22.3608ZM89.0682 13.4666H91.6988L99.0272 18.7279C97.9624 19.3543 96.8349 19.8554 95.7075 20.3564C93.3274 17.9137 90.3835 14.9072 89.0682 13.4666ZM93.0142 13.4666H97.8371L103.161 15.972C102.034 16.8489 100.906 17.6005 99.7161 18.3521C97.2107 16.4731 94.4548 14.5314 93.0142 13.4666ZM99.7161 13.4666H106.168C105.541 14.0929 103.975 15.4083 103.913 15.4083C102.347 14.7193 100.844 14.0303 99.7161 13.4666ZM80.6124 23.6135V13.5292H82.2409L84.9342 23.3629C83.4936 23.5508 82.053 23.6135 80.6124 23.6135ZM84.9969 27.5595C84.9969 27.5595 82.4915 25.1167 81.6146 24.3651C82.8046 24.3025 83.9947 24.2398 85.1221 24.1146L85.999 27.4342C86.0617 27.5595 86.1869 28.3111 86.688 28.8122C86.0617 28.6869 85.8738 28.4364 84.9969 27.5595ZM88.8176 28.7496C88.4418 28.8748 88.066 28.8122 87.7528 28.6243C87.1265 28.2485 86.8759 27.3089 86.8759 27.2463L85.999 23.9893C87.5649 23.8014 89.1308 23.4882 90.634 23.1124L92.5131 26.3068C92.5757 26.4321 92.9515 27.0584 93.5153 27.5595L88.8176 28.7496ZM94.6427 27.1837C94.0163 27.3089 93.2647 26.3068 93.0768 25.8683L91.323 22.9245C92.7636 22.5487 94.2043 22.0476 95.5196 21.4212L98.9645 24.9914C99.0272 25.0541 99.3403 25.3673 99.9041 25.7431L94.6427 27.1837ZM102.347 25.0541L101.47 25.3046C100.718 25.4925 99.8414 24.7409 99.5282 24.4277C99.5282 24.4277 98.1503 22.9871 96.2712 21.0454C97.3986 20.4817 98.5887 19.918 99.7161 19.2916L105.541 23.4882C105.541 23.4882 105.917 23.7387 106.418 23.9893C105.165 24.3025 102.347 25.0541 102.347 25.0541ZM111.241 20.7949C110.865 21.6718 110.552 22.486 108.235 23.4256C107.295 23.7387 106.105 22.8618 106.105 22.8618C106.105 22.8618 103.474 20.9828 100.53 18.8532C101.72 18.1016 102.911 17.2873 104.038 16.4104L110.364 19.3543C110.427 19.3543 111.053 19.7301 111.805 19.8554C111.429 20.2938 111.241 20.7323 111.241 20.7949ZM112.995 19.0411C112.181 19.229 111.053 18.7906 110.677 18.6027C110.677 18.6027 107.733 17.2247 104.664 15.7841C105.541 15.0325 106.418 14.2808 107.232 13.5292L118.632 17.0368C118.632 17.0368 118.883 17.162 119.196 17.162L112.995 19.0411ZM121.576 16.5357C120.448 16.8489 118.883 16.3478 118.883 16.3478L107.859 12.9029C108.422 12.3391 108.924 11.7754 109.425 11.2743L126.336 14.7193C126.399 14.7193 126.712 14.8445 127.213 14.8445L121.576 16.5357ZM129.781 14.1556C128.904 14.4061 127.088 14.0929 126.524 14.0303C126.524 14.0303 115.25 11.7128 110.051 10.648C110.427 10.2722 110.74 9.77109 111.116 9.39528L135.23 12.5897L129.781 14.1556ZM137.986 9.45791C137.986 9.45791 136.984 11.2117 136.796 11.5875C136.734 11.6501 136.42 11.9633 135.543 11.8381L111.554 8.64366C111.93 8.20521 112.181 7.76677 112.494 7.39096L137.924 9.0821C137.986 9.0821 138.049 9.0821 138.237 9.14474C138.174 9.20737 138.049 9.33264 137.986 9.45791ZM142.245 5.5119L141.243 7.32832C141.118 7.57886 140.867 7.95467 140.178 8.20521C139.615 8.33048 138.487 8.26785 138.049 8.20521L113.057 6.5767C113.371 6.07561 113.684 5.63717 113.934 5.19872H142.371C142.371 5.26136 142.308 5.38663 142.245 5.5119ZM145.878 2.31751L144.939 3.94602C144.751 4.2592 144.626 4.38446 143.874 4.4471H114.435C114.811 3.88338 115.062 3.3823 115.312 2.94386C115.312 2.94386 116.377 1.0648 118.256 1.0648H145.189C145.502 1.0648 145.816 1.12744 146.066 1.44061C146.066 1.50325 146.191 1.56588 146.191 1.75379C146.004 1.81642 146.004 2.00433 145.878 2.31751Z" fill="black"></path>
  <path d="M56.998 6.38867H56.8101L54.4926 11.5248H55.119V11.4621C55.3069 10.8358 55.4948 10.2721 55.7453 9.6457L55.808 9.52043H57.5618C57.8123 10.0841 58.0628 10.6479 58.3134 11.4621V11.5248H59.1903L56.998 6.38867ZM55.9332 9.20726C55.9959 9.08199 56.5596 7.70401 56.6222 7.5161C56.6849 7.64137 57.3112 9.08199 57.3738 9.20726H55.9332ZM61.2572 8.5809C60.6935 8.393 60.1924 8.20509 60.1924 7.57874C60.1924 7.14029 60.5682 6.76448 61.0693 6.76448C61.4451 6.76448 61.7583 6.95239 61.9462 7.39083V7.45347H62.0715L62.2594 6.82712C61.9462 6.57658 61.5078 6.45131 61.1946 6.45131C60.1924 6.45131 59.5661 7.01502 59.5661 7.82928C59.5661 8.70617 60.1924 8.95672 60.8188 9.20726C61.3199 9.39516 61.8209 9.58307 61.8209 10.2094C61.8209 10.7731 61.4451 11.2116 60.8814 11.2116C60.3803 11.2116 60.0672 11.0237 59.754 10.5226H59.5034L59.3782 11.2116C59.6287 11.5248 60.2551 11.65 60.5682 11.65C61.633 11.65 62.3847 10.961 62.3847 9.95888C62.5099 9.08198 61.8209 8.83144 61.2572 8.5809ZM66.5812 7.01502V6.45131H62.7605V6.95238H62.8231C63.2616 6.88975 63.7 6.82712 64.3263 6.82712V11.3995H65.0153V6.82712C65.5164 6.82712 66.0175 6.88975 66.4559 6.95238L66.5812 7.01502ZM69.0866 6.38867C67.4581 6.38867 66.3933 7.45347 66.3933 9.01935C66.3933 10.5852 67.5208 11.65 69.0866 11.65C70.7151 11.65 71.9052 10.5226 71.9052 8.95671C71.9052 7.20293 70.4646 6.38867 69.0866 6.38867ZM70.4646 10.7105C70.0888 11.0863 69.6503 11.2742 69.1493 11.2742C68.0218 11.2742 67.2076 10.3973 67.2076 9.08198C67.2076 7.64137 67.9592 6.70185 69.2119 6.70185C69.8382 6.70185 70.3393 6.95239 70.6525 7.39083C71.0283 7.82928 71.091 8.33036 71.091 8.95671V9.08198C71.091 9.58306 70.903 10.2094 70.4646 10.7105ZM76.8534 6.51394H76.4149V10.2094C76.3523 10.1468 72.97 6.51394 72.97 6.51394H72.6568V11.5248H73.1579V7.64138C73.2206 7.70401 76.2897 11.0863 76.2897 11.0863L76.6655 11.5248H76.916L76.8534 6.51394ZM84.996 6.51394L84.8081 6.45131L83.618 8.64354C83.618 8.64354 82.8664 10.0215 82.7411 10.1468C81.9895 8.89408 81.3631 7.57874 80.7368 6.45131H80.4862V6.51394C80.4236 7.26556 79.9852 10.2721 79.7972 11.4621V11.5248H80.4236V11.4621C80.4236 10.7731 80.5489 9.70834 80.6741 8.5809C80.6741 8.5809 80.7368 8.07982 80.7994 7.89191C80.9247 8.01718 81.8016 9.83361 82.1774 10.5852L82.5532 11.4621H82.6785V11.3995C83.0543 10.46 83.6806 9.33252 84.4949 7.89191C84.6202 8.76881 84.7454 10.46 84.8707 11.4621V11.5248H85.6223V11.4621C85.497 10.2721 85.2465 8.64354 84.996 6.51394ZM88.4409 6.38867H88.253L85.9355 11.5248H86.5618V11.4621C86.7497 10.8358 86.9377 10.2721 87.1882 9.6457C87.1882 9.6457 87.2508 9.58307 87.2508 9.52043H89.0046C89.2552 10.0841 89.5057 10.7105 89.7562 11.4621V11.5248H90.6331L88.4409 6.38867ZM87.4387 9.20726C87.5014 9.08199 88.0651 7.70401 88.1277 7.5161C88.1904 7.64137 88.8167 9.08199 88.8793 9.20726H87.4387ZM92.888 9.08198C93.7649 8.89408 94.3286 8.393 94.3286 7.70401C94.3286 6.95239 93.7649 6.57657 92.7001 6.57657H91.1342V11.5874H91.8232V9.14462H92.0111C92.0111 9.20725 92.5748 9.77097 92.5748 9.77097L93.4517 10.8984L93.8902 11.5248H94.7671C94.8297 11.5248 92.888 9.14462 92.888 9.08198ZM91.8232 8.76881V6.82712C92.1364 6.82712 92.5748 6.76448 92.8254 6.82712C93.3264 6.95239 93.577 7.20293 93.577 7.70401C93.577 8.20509 93.2012 8.5809 92.7001 8.70617C92.3869 8.76881 91.9485 8.76881 91.8232 8.76881ZM98.4625 6.51394H94.7044V7.01502H94.7671C95.2055 6.95239 95.644 6.88975 96.2703 6.88975V11.4621H96.9593V6.88975C97.4604 6.88975 97.9615 6.95239 98.3999 7.01502H98.4625V6.51394ZM99.0889 6.51394H99.7779V11.5248H99.0889V6.51394ZM104.663 10.2094C104.601 10.1468 101.218 6.51394 101.218 6.51394H100.843V11.5248H101.344V7.64138C101.406 7.70401 104.476 11.0863 104.476 11.0863L104.851 11.5248H105.164V6.51394H104.663V10.2094ZM46.1621 47.2895C41.4019 47.2895 37.6438 50.4838 37.6438 55.4947C37.6438 60.4428 41.0261 63.6372 46.0995 63.6372C51.2356 63.6372 54.8684 60.2549 54.8684 55.1189C54.9311 49.6696 50.484 47.2895 46.1621 47.2895ZM46.2248 62.8856C42.7798 62.8856 39.9613 60.4428 39.9613 55.8078C39.9613 51.1102 42.404 48.0411 46.4753 48.0411C48.3544 48.0411 50.1082 48.8553 51.2356 50.2333C52.4257 51.7992 52.6762 53.4277 52.6762 55.3068C52.8015 57.8748 51.0477 62.8856 46.2248 62.8856ZM37.8317 48.3543C37.8317 48.1037 37.8943 47.9158 37.8943 47.6653H26.0562C26.0562 47.9158 26.1189 48.1037 26.1189 48.3543C26.1189 48.6048 26.0562 48.7927 26.0562 49.0432C27.3716 48.918 28.7496 48.7927 31.0671 48.7927V63.4493C31.3802 63.4493 31.6934 63.3867 32.0692 63.3867C32.3824 63.3867 32.6956 63.4493 33.0714 63.4493V48.7927C35.1383 48.7927 36.7669 48.918 37.8943 49.0432C37.8943 48.8553 37.8317 48.6048 37.8317 48.3543ZM17.7884 50.9849C17.7884 49.3564 19.1037 48.2916 20.7323 48.2916C22.1102 48.2916 23.1124 49.0432 23.6135 50.2959H23.864C24.0519 49.6696 24.2398 48.9806 24.4904 48.4169C23.6135 47.6653 22.2981 47.2895 21.2333 47.2895C18.4774 47.2895 16.0972 48.7301 16.0972 51.7366C16.0972 56.9353 23.3003 55.0562 23.3003 59.3154C23.3003 61.1318 21.9223 62.6977 20.1059 62.6977C18.2895 62.6977 17.2873 61.8208 16.4104 60.2549H16.1599C16.0346 60.9439 15.972 61.6329 15.7214 62.3219C16.5357 63.1988 18.3521 63.6999 19.4795 63.6999C22.6113 63.6999 25.1794 61.7582 25.1794 58.5012C25.0541 53.4903 17.7884 55.1815 17.7884 50.9849ZM69.3998 47.6653V59.5033H69.1493L58.2507 47.6653H57.3738V63.3867C57.5617 63.3241 57.7497 63.3241 58.0002 63.3241C58.1881 63.3241 58.376 63.3867 58.6265 63.3867V50.9849H58.8771L68.8361 62.0087C69.3372 62.5724 69.7756 63.1362 70.0262 63.3867H70.7151V47.6653C70.4646 47.6653 70.2767 47.7279 70.0888 47.7279C69.7756 47.7279 69.5877 47.6653 69.3998 47.6653ZM7.20305 47.2895L0 63.3867C0.250541 63.3241 0.501082 63.3241 0.814258 63.3241C1.12743 63.3241 1.37797 63.3867 1.69115 63.3867C2.3175 61.1945 3.13176 59.1901 3.94602 57.1858H9.77109C10.648 59.3154 11.5249 61.445 12.2139 63.3867C12.5897 63.3241 13.0281 63.3241 13.4039 63.3241C13.7797 63.3241 14.1556 63.3867 14.594 63.3867L7.70413 47.3521H7.20305V47.2895ZM4.4471 56.2463L6.95251 50.3586L9.52055 56.2463H4.4471ZM141.743 47.6653V63.3867C142.057 63.3241 142.37 63.3241 142.746 63.3241C143.059 63.3241 143.372 63.3867 143.748 63.3867V47.6653C143.372 47.6653 143.059 47.7279 142.746 47.7279C142.37 47.7279 142.057 47.6653 141.743 47.6653ZM127.275 47.6653C127.337 47.9158 127.337 48.1037 127.337 48.3543C127.337 48.6048 127.275 48.7927 127.275 49.0432C128.59 48.918 129.968 48.7927 132.286 48.7927V63.4493C132.599 63.4493 132.912 63.3867 133.288 63.3867C133.601 63.3867 133.914 63.4493 134.29 63.4493V48.7927C136.357 48.7927 137.985 48.918 139.113 49.0432C139.113 48.7927 139.05 48.6048 139.05 48.3543C139.05 48.1037 139.113 47.9158 139.113 47.6653H127.275ZM125.709 61.5076L121.011 55.4947C123.329 55.1189 125.709 53.8035 125.709 51.1102C125.709 48.7927 124.143 47.6653 120.573 47.6653H115.687V63.3867C116 63.3241 116.314 63.3241 116.689 63.3241C117.003 63.3241 117.316 63.3867 117.692 63.3867V55.6826H118.568L120.447 57.8748L123.141 61.3824C123.642 62.0087 124.08 62.6977 124.581 63.3867C124.957 63.3241 125.458 63.3241 125.897 63.3241C126.335 63.3241 126.774 63.3867 127.275 63.3867L126.836 62.823L125.709 61.5076ZM117.754 54.8057V48.5422C118.694 48.4795 120.26 48.4169 121.136 48.5422C122.828 48.8553 123.642 49.8575 123.642 51.486C123.642 53.3024 122.389 54.4299 120.698 54.743C119.508 54.931 118.067 54.8683 117.754 54.8057ZM96.5835 47.6653H96.0824C93.7649 51.7992 91.6353 55.7452 89.4431 59.6912C87.0003 55.6199 84.7454 51.2981 82.929 47.6653H82.3027C82.0521 50.108 80.6741 59.6912 80.1104 63.3867C80.361 63.3241 80.6741 63.3241 80.9873 63.3241C81.2379 63.3241 81.4884 63.3867 81.8016 63.3867C81.8016 60.5681 82.4279 55.9957 82.929 51.5486C84.4949 54.4925 86.1234 57.5616 87.564 60.5681L88.8167 63.1988H89.0673C90.4452 60.0044 92.4496 56.3716 95.0802 51.6113C95.3934 53.8662 95.8945 58.877 96.2077 63.4493C96.5835 63.3867 96.8967 63.3867 97.2725 63.3867C97.6483 63.3867 97.8988 63.4493 98.3373 63.4493C97.8362 59.0022 97.2098 53.3651 96.5835 47.6653ZM160.346 63.3867V47.7279C160.096 47.7279 159.908 47.7905 159.72 47.7905C159.469 47.7905 159.281 47.7279 159.093 47.7279V59.566H158.843L147.944 47.7279H147.067V63.4493C147.255 63.3867 147.443 63.3867 147.694 63.3867C147.882 63.3867 148.07 63.4493 148.32 63.4493V51.0476H148.508L158.467 62.0714C158.968 62.6351 159.407 63.1988 159.657 63.4493L160.346 63.3867ZM106.668 47.2895L99.4647 63.3241C99.7152 63.2614 99.9658 63.2614 100.279 63.2614C100.53 63.2614 100.78 63.3241 101.156 63.3241C101.782 61.1318 102.596 59.1275 103.411 57.1232H109.236C110.113 59.2528 110.99 61.3824 111.679 63.3241C112.054 63.2614 112.43 63.2614 112.869 63.2614C113.244 63.2614 113.62 63.3241 114.059 63.3241L107.169 47.2895H106.668ZM103.912 56.2463L106.417 50.3586L108.985 56.2463H103.912Z" fill="black"></path>
</svg>