<svg xmlns="http://www.w3.org/2000/svg" viewBox="0 0 497.524 79.784"><path d="M212.687 79.682c-2.406-.21-10.474-1.095-18.345-2.011a9903.023 9903.023 0 0 0-17.639-2.028c-5.966-.681-15.57-1.791-21.343-2.467a6972.93 6972.93 0 0 0-16.757-1.942c-24.93-2.84-54.158-6.643-83.96-10.923-25.32-3.636-28.005-4.173-35.102-7.015-6.903-2.764-13.687-6.288-16.983-8.822-1.195-.919-2.37-2.403-2.528-3.192-.232-1.162.898-1.977 3.205-2.314.754-.11 13.95-.249 34.386-.362 18.238-.1 43.281-.26 55.65-.355 46.202-.353 96.894-.541 99.403-.368 2.999.206 5.22.69 10.576 2.303 8.532 2.57 10.847 3.134 14.464 3.53 2.13.234 43.575.373 54.68.185 9.507-.162 10.016-.247 20.726-3.448 6.244-1.867 8.384-2.342 11.553-2.568 3.079-.218 32.527-.04 89.341.542 16.141.165 25.806.253 78.14.71 11.995.105 21.422.258 22.122.36 1.439.209 2.74.809 3.084 1.423.17.302.206.654.116 1.133-.2 1.068-2.464 3.191-5.039 4.727-3.741 2.23-11.358 5.823-16.107 7.597-6.343 2.368-15.153 3.88-48.89 8.391-28.62 3.827-48.042 6.21-79.11 9.703-18.445 2.074-33.909 3.834-42.598 4.848-6.467.755-17.404 1.978-20.303 2.271-3.025.306-4.636.13-12.622-1.379-11.737-2.218-16.575-2.766-24.354-2.76-9.294.007-14.613.678-27.917 3.521-1.358.29-3.065.577-3.792.637-.728.06-1.561.134-1.853.165-.29.03-1.283-.01-2.204-.092zm3.188-2.028c.914-.157 2.416-.584 3.338-.95 2.782-1.104 7.41-2.347 12.124-3.256 6.146-1.185 10.183-1.556 17.068-1.568 5.73-.01 8.024.15 13.759.956 5.644.794 9.131 1.62 15.257 3.61 4.252 1.381 5.22 1.564 7.497 1.416 2.119-.138 11.211-1.064 19.932-2.03 3.492-.387 10.16-1.108 14.816-1.6 54.489-5.773 133.788-16.015 148.344-19.16 4.253-.92 8.983-2.623 15.064-5.425 5.658-2.607 9.686-4.994 11.526-6.829 1.091-1.088 1.183-1.282.706-1.487-.17-.073-5.587-.196-12.039-.272l-28.31-.333c-9.12-.107-26.344-.271-38.277-.365-11.932-.094-29.157-.248-38.276-.341-33.206-.341-68.162-.579-71.261-.484-4.575.14-5.526.336-14.464 2.976-9.93 2.933-10.084 2.957-19.932 3.15-9.795.191-35.483.19-46.478-.001-11.067-.194-11.494-.264-24.078-3.969-2.793-.822-5.245-1.452-6.967-1.79-1.592-.312-2.944-.326-27.076-.295-49.455.066-164.91 1.024-165.761 1.376-.477.198-.375.507.476 1.454 3.181 3.538 19.033 10.86 27.01 12.475 6.163 1.248 20.805 3.46 42.584 6.432 13.91 1.898 22.76 3.045 53.887 6.983 13.136 1.662 31.582 3.769 54.063 6.175 6.84.732 13.785 1.485 15.434 1.672 3.003.341 14.646 1.525 16.14 1.641 1.74.135 2.296.112 3.894-.161zm-2.483-8.127c-2.95-.222-12.654-1.208-15.434-1.569-12.943-1.678-23.08-4.481-32.455-8.974-1.456-.698-4.573-2.36-6.929-3.694-2.356-1.333-5.173-2.85-6.262-3.37-4.712-2.252-5.798-2.398-22.97-3.089-4.85-.195-13.62-.55-19.49-.788-18.663-.759-26.312-1.054-34.308-1.325-2.91-.098-7.038-.259-9.172-.357a1936.23 1936.23 0 0 0-10.583-.438c-3.687-.144-10.394-.419-14.905-.611-4.511-.193-10.18-.432-12.599-.53-5.628-.231-10.921-.63-14.19-1.07-4.035-.543-8.591-1.508-9.9-2.097l-.441-.199.441.095c2.584.556 5.154 1.02 6.85 1.236 4.779.61 11.94 1.172 16.962 1.33 11.016.345 25.501.72 44.098 1.142 10.526.239 24.099.554 30.162.7 6.064.147 14.557.35 18.874.449 25.942.6 26.967.682 31.723 2.53l1.65.642 14.49.024c7.97.013 14.332.047 14.137.076-.194.029-1.702.144-3.35.256-3.828.261-6.413.611-7.167.971-.535.255-1.498.269-9.59.136-4.949-.08-9.03-.125-9.07-.099-.042.027.112.247.34.49.505.537 1.19.722 3.24.874 1.543.114 1.59.132 3.087 1.139a93.06 93.06 0 0 0 2.714 1.752l1.194.73 12.652.024c11.74.021 12.456.04 9.92.251-3.401.284-5.386.569-6.131.88-.475.198-1.786.21-7.585.071a1251.24 1251.24 0 0 1-8.113-.212c-.607-.024-1.103.003-1.103.059 0 .055.2.288.442.516.377.354.719.439 2.337.577 1.832.157 1.983.203 4.454 1.364 5.854 2.75 15.745 5.697 24.796 7.386 4.102.766 13.445 2.087 17.008 2.405 1.698.152 3.206.303 3.351.337.331.075-2.104.06-3.175-.02zm67.645.043c.097-.044 1.605-.208 3.352-.365 3.955-.355 14.173-1.845 18.168-2.649a133.19 133.19 0 0 0 17.336-4.7c2.868-.986 4.505-1.652 7.623-3.1.914-.425 1.53-.567 3.042-.698 1.616-.14 1.96-.226 2.337-.58.6-.564.557-.684-.22-.607-.364.036-4.052.159-8.197.273-5.308.147-7.603.153-7.761.021-.38-.316-3.01-.731-6.1-.965-2.796-.21-2.303-.226 9.755-.31l12.7-.088 1.582-.946a66.2 66.2 0 0 0 2.57-1.616c.89-.605 1.136-.683 2.475-.785 2.19-.167 3.095-.404 3.417-.896.151-.23.275-.442.275-.47 0-.027-4.177-.028-9.281-.001-5.92.03-9.357-.015-9.49-.126-.364-.301-3.068-.684-6.541-.925-3.243-.225-2.89-.235 10.936-.32l14.288-.089 1.353-.566c4.105-1.717 7.516-2.027 25.81-2.347 5.918-.104 14.213-.262 18.433-.352 4.22-.09 12.396-.246 18.168-.347 5.772-.1 14.107-.26 18.521-.355 11.343-.244 23.958-.5 34.837-.71 11.926-.229 19.648-.662 25.374-1.423.762-.1 1.43-.139 1.485-.085.054.055.02.1-.076.1s-.962.117-1.925.26c-3.737.554-9.66 1.044-14.892 1.231-1.601.058-7.078.261-12.171.452-5.093.192-12.475.467-16.404.612-3.93.145-9.168.345-11.642.443-2.474.099-8.586.337-13.582.529s-11.148.432-13.67.533c-2.522.1-9.984.38-16.58.62-12.234.445-23.653.872-28.4 1.062-7.129.285-10.53 1.166-15.507 4.021-4.574 2.623-6.325 3.595-8.657 4.804-9.17 4.757-20.63 8.084-33.647 9.77-6.937.899-19.88 2.044-19.094 1.69zm-51.77-7.518c-12.292-.17-19.645-.568-23.001-1.243-2.651-.532-6.898-2-9.41-3.25-3.5-1.743-7.639-5.03-8.406-6.674-.263-.565-.277-.71-.08-.835.316-.2 120.575-.204 120.699-.004.272.44-2.5 3.358-4.93 5.192-3.769 2.841-10.448 5.336-16.138 6.028-7.224.879-30.067 1.184-58.734.786zm28.738-4.412c1.213-.26 1.812-.756 1.743-1.444-.103-1.03-.97-1.338-4.715-1.673-.87-.077-1.513-.218-1.553-.339-.11-.336 1.687-.466 3.588-.259 1.755.19 1.998.137 2.006-.441.004-.33-.726-.42-3.475-.429-3.669-.012-5.165.392-5.165 1.396 0 .78.953 1.135 4.127 1.537 1.154.146 2.17.31 2.257.364.088.054.057.222-.068.372-.194.234-.641.26-3.107.178-2.828-.093-2.883-.088-3.024.284-.08.209-.107.42-.062.468.324.35 5.798.34 7.448-.014zm-45.82.08c.488-.081.663-.205.721-.509l.077-.401-3.103-.077c-3.295-.081-4.405-.323-4.79-1.04-.61-1.14 2.03-1.892 5.883-1.674l2.094.118-.122-.402c-.067-.222-.177-.463-.244-.536-.234-.255-6.03-.17-7.359.107-2.374.497-3.538 1.473-3.025 2.538.458.953 1.767 1.541 4.02 1.805 1.44.17 4.993.212 5.848.07zm26.872-.17c-.194-.148-.945-.597-1.668-.997l-1.316-.728.936-.21c1.084-.245 1.871-.766 1.871-1.24 0-.209-.292-.493-.793-.77-.774-.43-.902-.443-5.072-.51l-4.277-.067v4.626h2.822V53.897l1.937.117c1.065.065 2.156.202 2.425.305l.489.187-.416.34c-.324.263-.696.338-1.67.338-1.478 0-1.49-.026.762 1.579l1.5 1.067 1.41-.005c1.303-.006 1.385-.027 1.06-.275zm55.562 0c-.194-.149-.93-.6-1.638-1.004l-1.285-.734 1.014-.23c1.823-.414 2.294-1.091 1.283-1.844-.657-.488-2.283-.663-6.209-.667l-3.483-.003v4.586h2.999v-3.755l1.973.125c1.085.069 2.124.206 2.307.304.316.169.318.197.034.51-.234.26-.596.343-1.646.383l-1.346.051 1.764 1.274 1.764 1.274h1.41c1.303-.001 1.385-.022 1.06-.27zm-76.64-.778v-.882h5.644v1.764h2.833l-.05-2.25-.05-2.248-1.366-.052-1.367-.051v1.779h-5.645v-1.764h-2.822v4.586h2.822zm28.257-.124.053-1.006 1.74-1.243 1.74-1.243-.827-.054c-.726-.048-.989.046-2.146.768l-1.32.822-1.41-.819-1.408-.819-1.536.051-1.536.05 1.893 1.236 1.893 1.234.003 1.014.003 1.015h2.804l.053-1.006zm24.483.565v-.441h-6.174v-3.704h-2.646v4.586h8.82zm11.465 0v-.441H275.657V55.713h6.174v-.881h-6.174v-.882h6.35v-.882H273.012v4.586h9.172zM487.82 43.246c.128-.051.28-.045.338.014.059.058-.045.1-.231.092-.206-.008-.248-.05-.107-.106zm1.059-.177c.127-.05.279-.044.338.014.058.059-.046.1-.232.093-.205-.009-.247-.05-.106-.107zM265.074 19.965c-3.154-.221-7.874-.819-8.078-1.022-.048-.049.388-1.944.577-2.504.05-.145.267-.159.743-.049 3.639.845 7.311 1.237 11.672 1.245 3.833.007 5.811-.22 7.385-.85 1.24-.497 1.62-.92 1.76-1.962.239-1.78-1.172-2.374-7.797-3.281-1.746-.24-3.612-.484-4.145-.543-2.928-.328-6.407-1.262-7.85-2.108-2.066-1.21-2.81-3.64-1.677-5.474.783-1.267 3.264-2.451 6.296-3.005 2.137-.39 8.663-.544 11.897-.281 2.617.213 9.197.917 9.29.994.03.023-.038.568-.15 1.21l-.203 1.166-.732-.103a96.647 96.647 0 0 1-1.702-.26c-3.328-.54-11.172-.73-13.758-.333-1.977.303-3.175 1.133-3.175 2.197 0 .83 1.074 1.8 2.314 2.091.494.116 2.698.416 7.387 1.004 7.053.886 9.778 1.667 11.372 3.26 1.094 1.095 1.461 2.71.913 4.013-.273.65-1.56 1.894-2.42 2.339-1.909.986-5.322 1.761-9.31 2.113-2.577.227-8.312.305-10.609.143zm153.37-2.945a401.24 401.24 0 0 1-5.291-4.914l-1.94-1.855 1.851-.124c2.429-.162 5.174-.562 6.207-.904a3.583 3.583 0 0 0 1.445-.958c1.868-2.068.396-4.31-3.243-4.94-.63-.108-3.666-.243-6.746-.3l-5.6-.103v16.985h-6.88V.483l11.422.07c12.376.078 12.315.073 15.433 1.112 2.593.863 3.837 2.16 3.837 4 0 1.72-1.224 3.263-3.223 4.064-1.233.493-3.735 1.005-4.914 1.005-.375 0-.682.069-.682.152 0 .084.536.553 1.19 1.042 1.326.99 8.511 7.738 8.511 7.993 0 .094-1.69.161-4.013.16l-4.012-.002-3.352-3.06zM82.688 19.71c-4.05-.457-8.587-1.767-10.748-3.103-1.855-1.147-3.395-2.744-3.903-4.047-.53-1.36-.566-3.457-.082-4.78.717-1.962 2.574-3.738 5.293-5.062C77.192.8 82.058.018 88.942.197c3.4.089 9.397.6 9.66.822.194.166.642 2.483.48 2.483-.08 0-1.559-.113-3.286-.252-5.386-.434-7.46-.494-9.674-.282-5.582.534-10.008 2.442-11.234 4.844-.511 1-.627 2.865-.241 3.876.894 2.34 5.158 4.59 9.942 5.245 2.096.287 7.974.235 11.463-.101a230.7 230.7 0 0 1 2.977-.277c.137 0-.075 1.641-.282 2.186-.173.455-.05.434-5.387.91-3.043.27-8.531.302-10.672.06zm108.986-2.61a420.173 420.173 0 0 1-5.265-4.91l-2.2-2.102 2.641-.218c2.661-.22 4.717-.543 5.576-.874.75-.289 1.702-1.23 1.923-1.899.596-1.806-1.084-3.44-4.064-3.95-.63-.108-3.666-.243-6.747-.3l-5.6-.102V19.73h-6.88V.306l11.422.068c10.906.064 11.496.084 13.09.445 4.637 1.05 6.332 2.414 6.149 4.947-.184 2.54-2.527 4.134-6.837 4.65-.928.112-1.75.257-1.829.323-.078.067.635.708 1.584 1.425 1.649 1.246 7.995 7.27 7.995 7.59 0 .084-1.776.153-3.947.153h-3.947zm-47.114-1.648-.048-4.278-9.48-.045-9.481-.046v8.293h-6.88V.151h6.88v8.643h19.05V.327h6.879V19.73H144.607zm81.532-.22c0-2.581-.068-4.499-.16-4.499-.171 0-3.72-3.13-8.598-7.584L214.34.416l3.78-.048 3.782-.048.728.621a826.765 826.765 0 0 1 6.523 5.604c1.313 1.14 2.435 2.073 2.494 2.073.058 0 .52-.414 1.024-.919.505-.504 2.583-2.37 4.618-4.145l3.7-3.227 1.416.002 1.414.001-2.998 2.956a727.116 727.116 0 0 1-5.336 5.204l-2.337 2.247v8.993h-7.056v-4.498zm79.552-5.204V.327h6.875l.046 8.511.046 8.51 11.774.046 11.774.046v2.29h-30.515zm44.626-.088V.327h30.339v2.291l-11.862.045-11.862.046v5.997l11.773.045 11.774.046v2.288l-11.774.045-11.773.045-.049 3.043-.048 3.043h24.174v2.293H350.27Z" style="fill:#000;stroke-width:.176389"/></svg>