<svg xmlns="http://www.w3.org/2000/svg" viewBox="0 0 692.95 99.21"><path d="M102.17 20.46 81.22 30.71l12.77 4.9c2.63 1 5.76 2.29 6.91 5.4s-.56 6-2.09 8.45l-7 10.92Q79.4 79.81 66.97 99.21v-12q4.76-15 9.26-30 1.27-4.28 2.52-8.56c.5-1.72.18-2.75-1.48-3.57l-12.74-6.27-12.69 6.26c-1.66.82-2 1.85-1.48 3.57q1.24 4.29 2.52 8.56 4.48 15.06 9.26 30v12Q49.69 79.8 37.3 60.37l-7-10.92c-1.54-2.41-3.27-5.26-2.09-8.45s4.28-4.39 6.91-5.4l12.77-4.9-20.95-10.25 6.53 10.95-10.8 4.15Q11.32 17.78 0-.03c21.5 7.62 43 15.31 64.56 22.68C86.15 15.28 107.62 7.6 129.12-.03q-11.3 17.79-22.66 35.54l-10.8-4.15 6.53-10.95"/><path d="M587.22 284.19v11.23h60.38a2.24 2.24 0 0 0 2.32-2.14v-6.94a2.24 2.24 0 0 0-2.32-2.14ZM572 321.53v-47.82h78.28c7.27 0 13.17 4.45 13.17 11.18v9.89c0 6.91-4.6 11.59-9.26 11.59l10.42 15.18h-17l-9-14.58h-51.39v14.58Z" transform="translate(-74.47 -248.03)" style="fill-rule:evenodd"/><path d="M277.53 73.53h-78.28c-7.27 0-13.17-5.46-13.17-12.19V37.88c0-6.73 5.9-12.19 13.17-12.19h78.28v13.09h-75.65a2.24 2.24 0 0 0-2.35 2.19v17.37a2.24 2.24 0 0 0 2.32 2.14h75.68Zm103.85-47.85v35.66c0 6.73-5.9 12.19-13.17 12.19h-65.22c-7.27 0-13.17-5.46-13.17-12.19V25.69h15.71V58.3a2.23 2.23 0 0 0 2.32 2.14h55.48a2.24 2.24 0 0 0 2.32-2.14V25.69Zm296.77 21.67v-11.2h-59.76a2.24 2.24 0 0 0-2.32 2.14v9c0-.1 40.75.01 62.08.06Zm14.8 26.18h-14.8V58.97h-62v14.58h-14.8l-.13-35.66c0-6.73 5.9-12.19 13.17-12.19h78.28c.14.1.22.05.23 0ZM408.36 47.39h61.08a2.24 2.24 0 0 0 2.32-2.14v-6.94a2.24 2.24 0 0 0-2.32-2.14h-61.08Zm63.71-21.7c9.67 0 13.17 4.45 13.17 11.18v9.89c0 6.73-3 12.19-13.17 12.19h-63.71v14.58h-14.83V25.69Z"/></svg>