<svg xmlns="http://www.w3.org/2000/svg" version="1.0" viewBox="0 0 600 109"><path d="M109.86 94.219h.02l.02.002.02.002.01.004.02.004.02.006.02.006.01.007.02.008.01.009.02.01.01.01.02.012.01.012.01.012.02.013.01.014.01.015.01.015.01.016.01.016.01.017.01.017v.018l.01.019.01.018v.019l.01.02V105.6c0 .22-.16.4-.36.4h-1.96c-.2 0-.36-.18-.36-.4V94.621c0-.223.16-.402.36-.402h1.96zM122.45 106h-1.88c-.2 0-.36-.18-.36-.4v-4.57h-3.97v4.57c0 .22-.16.4-.35.4H114c-.19 0-.36-.18-.36-.4V94.621c0-.223.17-.402.36-.402h1.89c.19 0 .35.179.35.402v5.149h3.97v-5.149c0-.223.16-.402.36-.402h1.88c.2 0 .36.179.36.402V105.6c0 .22-.16.4-.36.4z" transform="matrix(4.86072 0 0 -4.85653 -184.916 539.998)" style="font-style:normal;font-variant:normal;font-weight:400;font-stretch:normal;letter-spacing:normal;word-spacing:normal;text-anchor:start;fill:red;fill-opacity:1;fill-rule:evenodd;stroke:#e1114d;stroke-width:0;stroke-linecap:butt;stroke-linejoin:miter;stroke-miterlimit:10.43299961;stroke-dasharray:none;stroke-dashoffset:0;stroke-opacity:1"/><path d="M83 722.5c-.249 0-.438.225-.438.5v13.719c0 .274.19.5.438.5h5.781c3.414 0 6.094-2.095 6.094-7.375 0-5.2-2.643-7.344-6.031-7.344H83zm2.813 1.594H88c2.651 0 3.5 1.762 3.5 5.75 0 4.03-.795 5.812-3.5 5.812h-2.188v-11.562zM101.625 722.5c-.131 0-.295.131-.344.281L96.5 736.97c-.049.147.025.25.156.25h1.438a.389.389 0 0 0 .344-.25l1.187-3.625h5.156l1.094 3.375c.088.274.388.5.625.5h2.625c.237 0 .369-.197.281-.469L104.625 723c-.088-.288-.344-.5-.594-.5h-2.406zm.563 2.938 2.062 6.343h-4.125l2.063-6.343zM138.281 722.5c-.137 0-.281.112-.344.25l-4.75 14.219c-.05.147 0 .25.125.25h1.47a.399.399 0 0 0 .343-.25l1.188-3.625h5.156l1.094 3.375c.087.274.375.5.625.5h2.593c.238 0 .381-.222.281-.5L141.313 723c-.087-.275-.375-.5-.625-.5h-2.406zm.594 2.938 2.063 6.343h-4.125l2.062-6.343z" transform="matrix(3.8886 0 0 3.8853 -97.423 -2781.891)" style="font-style:normal;font-variant:normal;font-weight:400;font-stretch:normal;letter-spacing:normal;word-spacing:normal;text-anchor:start;fill:red;fill-opacity:1;fill-rule:evenodd;stroke:#e1114d;stroke-width:0;stroke-linecap:butt;stroke-linejoin:miter;stroke-miterlimit:10.43299961;stroke-dasharray:none;stroke-dashoffset:0;stroke-opacity:1"/><path d="M142.99 105.99h-8.8c-.1 0-.19-.09-.19-.21v-.85c0-.12.08-.22.19-.22h3.13V94.621c0-.223.16-.402.36-.402h1.9c.2 0 .36.179.36.402v10.089h3.05c.13 0 .22.1.22.22v.85c0 .12-.1.21-.22.21zM159.95 98.102v7.678c0 .12.09.21.2.21h1.14c.11 0 .19-.09.19-.21v-7.303c0-.672.01-.887-.02-1.297-.14-2.328-1.64-3.082-4.04-3.082-2.85 0-4.18 1.613-4.44 3.066-.1.566-.12 1.149-.11 1.641v6.785c0 .23.16.4.36.4h1.88c.2 0 .36-.17.36-.4v-7.656c-.01-.305-.01-.633.06-.981.12-.64.55-1.687 2.22-1.687 1.47 0 2.2.871 2.2 1.945v.891zM150.05 104.17h.02v-.01h.08l.01.01h.01v.01h.01v.01h.01v.01l.01.01.01.01v.02l.01.01v.02l.01.01v1.06c0 .14-.06.19-.18.25 0 0-.24.14-.82.3-.46.12-1.15.24-1.88.24-1.73 0-2.54-.57-3.03-1.24-.49-.66-.67-1.48-.51-2.38.27-1.51 1.48-2.44 2.7-3.354.95-.715 1.87-1.265 2.17-2.183.13-.379.08-.957-.24-1.254-.35-.321-.74-.446-1.38-.446-.73 0-1.64.157-2.6.602-.17.086-.37.184-.37.184-.1.043-.18-.016-.18-.129v-1.059c0-.117.08-.215.19-.262 0 0 .13-.054.26-.097.8-.274 1.7-.414 2.72-.414 1.71 0 2.62.613 3.1 1.16.55.621.82 1.547.62 2.652-.33 1.746-1.79 2.7-2.96 3.52-.88.62-1.76 1.23-1.99 1.93-.16.53.06.89.19 1.07.23.31.75.54 1.42.54.59 0 1.21-.11 1.88-.43.14-.06.43-.2.71-.37zM38.043 88.746h38.148v22.444H38.043V88.746z" transform="matrix(4.86072 0 0 -4.85653 -184.916 539.998)" style="font-style:normal;font-variant:normal;font-weight:400;font-stretch:normal;letter-spacing:normal;word-spacing:normal;text-anchor:start;fill:red;fill-opacity:1;fill-rule:evenodd;stroke:#e1114d;stroke-width:0;stroke-linecap:butt;stroke-linejoin:miter;stroke-miterlimit:10.43299961;stroke-dasharray:none;stroke-dashoffset:0;stroke-opacity:1"/><path d="M49.566 104.57h.694l.709-.01 1.459-.02 1.504-.05 1.537-.06 1.557-.08 1.565-.11 1.561-.12 1.544-.15 1.516-.17 1.475-.19.718-.1.704-.12.687-.11.669-.13.65-.13.629-.14.607-.14.582-.16.557-.16.53-.16.501-.18.471-.18c.453-.18.813-.34.813-.67 0-.46-.996-.78-1.914-1.07-3.602-1.125-10.036-2.433-19.457-3.105l-8.739 8.735c-.847-.02-1.554-.05-2.078-.09l9.028-9.024-2.45-3.574c14.59 2.308 21.188 4.617 24.118 5.964.628.286 2.429 1.094 2.429 2.164 0 .64-.609 1.03-1.398 1.37-3.008 1.29-8.063 2.15-13.059 2.58-5.176.51-12.07.65-15.879.61l8.133-8.13c1.602.117 3.113.25 4.543.399l-6.516 6.511z" transform="matrix(4.86072 0 0 -4.85653 -184.916 539.998)" style="font-style:normal;font-variant:normal;font-weight:400;font-stretch:normal;letter-spacing:normal;word-spacing:normal;text-anchor:start;fill:#fff;fill-opacity:1;fill-rule:evenodd;stroke:#fff;stroke-width:0;stroke-linecap:butt;stroke-linejoin:miter;stroke-miterlimit:10.43299961;stroke-dasharray:none;stroke-dashoffset:0;stroke-opacity:1"/></svg>