<svg xmlns="http://www.w3.org/2000/svg" xmlns:xlink="http://www.w3.org/1999/xlink" xml:space="preserve" viewBox="0 0 300 300"><defs><radialGradient cx="0" cy="0" r="1" fx="0" fy="0" id="c" gradientUnits="userSpaceOnUse" gradientTransform="matrix(-51 -42 -42 51 201.892 161.326)" spreadMethod="pad"><stop style="stop-color:#505050;stop-opacity:1" offset="0"/><stop style="stop-color:#505050;stop-opacity:1" offset=".5"/><stop style="stop-color:#fff;stop-opacity:1" offset=".7"/><stop style="stop-color:#fff;stop-opacity:1" offset="1"/></radialGradient><radialGradient cx="0" cy="0" r="1" fx="0" fy="0" id="b" gradientUnits="userSpaceOnUse" gradientTransform="matrix(-51 -42 -42 51 201.892 161.326)" spreadMethod="pad"><stop style="stop-color:#505050;stop-opacity:1" offset="0"/><stop style="stop-color:#505050;stop-opacity:1" offset=".5"/><stop style="stop-color:#fff;stop-opacity:1" offset=".75"/><stop style="stop-color:#fff;stop-opacity:1" offset="1"/></radialGradient><radialGradient cx="0" cy="0" r="1" fx="0" fy="0" id="d" gradientUnits="userSpaceOnUse" gradientTransform="scale(-33.255 33.255) rotate(-49.698 2.18 9.275)" spreadMethod="pad"><stop style="stop-color:#ff1f28;stop-opacity:1" offset="0"/><stop style="stop-color:#a71d22;stop-opacity:1" offset="1"/></radialGradient><radialGradient id="f" cx="100.788" cy="104.523" r="83.875" gradientUnits="userSpaceOnUse"><stop offset=".006" style="stop-color:#c4513d"/><stop offset="1" style="stop-color:#991f22"/></radialGradient><radialGradient id="g" cx="100.788" cy="104.523" r="83.875" gradientUnits="userSpaceOnUse"><stop offset=".006" style="stop-color:#c4513d"/><stop offset="1" style="stop-color:#991f22"/></radialGradient><radialGradient xlink:href="#i" id="n" gradientUnits="userSpaceOnUse" gradientTransform="matrix(1 0 0 1.06888 0 -10.568)" cx="150" cy="153.429" fx="150" fy="153.429" r="98"/><radialGradient xlink:href="#h" id="q" gradientUnits="userSpaceOnUse" gradientTransform="matrix(1 0 0 .61538 0 13.018)" cx="55" cy="33.846" fx="55" fy="33.846" r="55"/><radialGradient xlink:href="#h" id="r" gradientUnits="userSpaceOnUse" gradientTransform="matrix(1 0 0 .61538 0 13.018)" cx="55" cy="33.846" fx="55" fy="33.846" r="55"/><radialGradient xlink:href="#h" id="s" gradientUnits="userSpaceOnUse" gradientTransform="matrix(1 0 0 .61538 0 13.018)" cx="55" cy="33.846" fx="55" fy="33.846" r="55"/><radialGradient xlink:href="#h" id="t" gradientUnits="userSpaceOnUse" gradientTransform="matrix(1 0 0 .61538 0 13.018)" cx="55" cy="33.846" fx="55" fy="33.846" r="55"/><radialGradient xlink:href="#h" id="p" gradientUnits="userSpaceOnUse" gradientTransform="matrix(1 0 0 .61538 0 13.018)" cx="55" cy="33.846" fx="55" fy="33.846" r="55"/><radialGradient xlink:href="#h" id="o" gradientUnits="userSpaceOnUse" gradientTransform="matrix(1 0 0 .61538 0 13.018)" cx="55" cy="33.846" fx="55" fy="33.846" r="55"/><linearGradient id="i"><stop style="stop-color:#e60a47;stop-opacity:1" offset="0"/><stop offset="1" style="stop-color:#7c0626;stop-opacity:1"/></linearGradient><linearGradient id="e"><stop style="stop-color:#8c8c8c;stop-opacity:1" offset="0"/><stop offset=".5" style="stop-color:#464646;stop-opacity:1"/><stop style="stop-color:#fff;stop-opacity:1" offset=".75"/><stop style="stop-color:#fff;stop-opacity:1" offset="1"/></linearGradient><linearGradient id="a"><stop style="stop-color:#d3d1d2;stop-opacity:1" offset="0"/><stop style="stop-color:#c9c7c8;stop-opacity:1" offset=".5"/><stop style="stop-color:#8d8b8c;stop-opacity:1" offset="1"/></linearGradient><linearGradient xlink:href="#e" id="m" gradientUnits="userSpaceOnUse" x1="547.982" y1="353.558" x2="1114.97" y2="895.556"/><linearGradient xlink:href="#e" id="k" gradientUnits="userSpaceOnUse" x1="547.982" y1="353.558" x2="1114.97" y2="895.556"/><linearGradient xlink:href="#e" id="j" gradientUnits="userSpaceOnUse" x1="547.982" y1="353.558" x2="1114.97" y2="895.556"/><linearGradient id="h"><stop style="stop-color:#d3d1d2;stop-opacity:1" offset="0"/><stop style="stop-color:#c9c7c8;stop-opacity:1" offset=".5"/><stop style="stop-color:#8d8b8c;stop-opacity:1" offset="1"/></linearGradient><clipPath id="l"><path d="M1094.29 667.164c.1-1.012.22-1.965.33-2.984 3.27-32.551 4.77-23.84-.33 2.984zM607.449 803.75s25.906 23.891 44.403 41.492c0 0-24.668-13.828-44.403-41.492zm-6.894-317.059c14.668-29.589 29.101-48.843 29.101-48.843s-13.754 20.746-29.101 48.843zm480.495 284.368-4.82 14.046 43.05-15.304-41.65 21.347 42.3 25.102-46.49-19.059 7.44 46.485-15.09-44.903-10.94 3.09c-22.94 34.106-54.46 51.176-94.12 70.2-73.718 35.371-171.976 25.992-171.976 25.992s116-1.477 204.73-54.071c18.326-10.863 33.606-25.925 46.286-42.949l-19.15-1.055 21.95-2.8c2.07-2.918 4.07-5.883 5.99-8.891l-25.48-14.719 27.49 11.539a264.55 264.55 0 0 0 8.05-13.976l-10.87-34.028 12.85 30.286c19.04-36.828 29.07-75.95 33.69-100.227-5.33 50.816-14.63 87.039-27.77 114.211l.96 2.254s48.1-62.867 39.47-165.977c-8.63-103.109-33.3-139.574-57.97-164.722l-1.23 12.578s-35.76-106.887-213.363-104.367c-177.602 2.519-191.168 60.351-191.168 60.351l-9.867 5.039s-41.93 32.684-67.832 119.449c-25.903 86.762-1.235 157.176-1.235 157.176s-13.566-57.84-3.699-116.937c5.113-30.625 23.461-69.324 39.969-99.528-12.117 24.43-24.403 55.907-28.867 89.469-9.872 74.188-7.403 124.485 4.929 162.203 12.332 37.719 19.735 54.071 19.735 54.071s-51.797-60.36-53.032-188.614c-1.234-128.257 107.297-216.273 155.395-235.136 48.101-18.86 199.801-44.004 291.066 20.117 91.269 64.129 85.099 80.472 114.699 139.578 29.61 59.098 17.27 178.551-23.43 242.68zm-21.6 23.519c-.1.164-.19.328-.29.485l.92-.118-.63-.367zm4.24-7.57c-.52.984-1.04 1.988-1.57 2.949l2.9 1.219-1.33-4.168zm-434.034 5.426c7.395 12.574 45.629 35.207 45.629 35.207s-20.969-12.578-44.398-40.239c-23.438-27.66 8.633 2.516 51.801 31.438 43.164 28.918 103.597 26.402 103.597 26.402s-19.73 15.09-94.965-8.804l72.766 31.437S653.09 843.984 621.02 798.719c-32.071-45.266 1.23-18.86 8.636-6.285zm371.254 3.976c13.61-14.133 23.41-26.609 23.41-26.609s-4.01 12.711-23.41 26.609zM579.086 611.363c13.566-133.285 70.301-189.871 70.301-189.871s43.164-42.75 177.597-49.035c134.43-6.285 177.606 46.523 181.306 55.324 3.7 8.801-17.274-5.027-23.438-2.511-6.168 2.511 19.738 49.039 19.738 49.039-13.57-50.297 7.4 7.543 20.96 1.254 13.57-6.282-27.132-22.633-13.56-35.208 13.56-12.574 41.92 76.704 60.43 116.942 18.5 40.234 12.33 81.73 11.1 108.137-1.23 26.406-7.4 37.722-7.4 37.722l-3.7-62.875s2.47-8.797-17.27 35.215l-16.03 42.75c-11.1-196.16-55.507-270.351-55.507-270.351s-16.031-49.032-145.531-50.293c-129.496-1.25-148 32.699-148 32.699-41.93 55.324-66.598 173.519-60.426 251.476 6.164 77.961 0 99.34 55.496 123.231 55.5 23.887 139.364 26.406 139.364 26.406 100.734 2.832 151.375-17.074 176.394-35.004a315.563 315.563 0 0 1-9.894 9.852c-18.5 17.601-189.934 54.07-279.965 18.863-90.031-35.207-96.199-69.156-90.031-172.266 6.168-103.109 38.234-188.609 60.433-221.304 22.199-32.692 101.133-42.754 101.133-42.754-107.301 2.519-119.633 59.094-125.801 69.164-6.168 10.058-24.668 30.18-28.367 13.828-3.699-16.344-36.859 83.609-30.691 88.641 6.164 5.031 44.257-50.922 44.257-50.922s-13.566 27.668-27.132 105.625c-13.567 77.957 7.398 116.937-6.168 119.453-13.567 2.515 16.871-115.035-21.985-120.262-11.07-1.492-1.883 103.965 3.055 125.34 4.93 21.379 10.301 27.617 10.301 27.617s-34.535-22.637-20.969-155.922"/></clipPath></defs><path style="fill:#231f20;fill-opacity:1;fill-rule:nonzero;stroke:none" d="M297.5 149.998c0 81.465-66.04 147.502-147.5 147.502-81.462 0-147.5-66.037-147.5-147.502C2.5 68.539 68.538 2.5 150 2.5c81.46 0 147.5 66.04 147.5 147.498"/><path style="fill:#bdbcbc;fill-opacity:1;fill-rule:nonzero;stroke:none" d="M292.324 149.998c0 78.608-63.72 142.327-142.325 142.327-78.604 0-142.326-63.719-142.326-142.327 0-78.602 63.722-142.323 142.326-142.323 78.605 0 142.325 63.721 142.325 142.323"/><path style="fill:#231f20;fill-opacity:1;fill-rule:nonzero;stroke:none" d="M35.532 78.315c0 .117-15.791 2.518-15.776 2.594.077.392-.818 81.232 13.603 77.163 9.495-4.467 4.386-57.141 4.386-50.057 0 9.876.959 26.073 4.747 51.51 4.27 28.656 2.47 32.226 4.462 38.396-4.632-4.498-11.838-6.522-11.838-6.522l10.218 34.537 7.525-.077s.108-2.32.207-2.43c.203-.002 7.432.536 12.4 9.627 28.744 52.607 104.42 32.378 84.61 33.518l31.184-3.754C89.932 278.445 72.8 236.336 68.207 227.93c-2.877-4.216-11.148-8.634-16.347-6.119 0 0 12.692.507 12.128-2.859 3.966 3.853-9.863-6.234-9.863-6.234l.696 2.187c2.145.217 1.179-2.098 3.439-2.477l-2.805-1.283c-.359-.441 1.559-2.73-5.288-48.68-3.762-25.246-3.004-44.901-3.004-54.682 0-9.476-.619-10.147-.601-10.216l-5.565-3.634-1.068-.217c-1.534-.311-3.054-.802-3.713-1.168.342-.508.54-1.186.54-2.306 0-1.082-.117-2.493-.267-4.316-.2-2.437-.1-11.17-.437-8.254-17.734 153.9 6.814-17.225 3.798-13.937l1.725-1.954c8.352-9.642 37.533-32.16 112.824-33.92 79.622-1.866 79.983 27.216 80.255 27.641l20.625 10.217c-.272-.437-27.061-44.9-107.92-43.008C71.163 24.495 48.545 50.597 40.03 60.424l-1.684 1.912c-3.5 3.818-7.517 3.852-7.517 9.477 0 3.004-3.368 7.005-3.163 9.49 9.83 17.268 6.437 8.732 7.866-2.989zm217.733-7.404c-1.737.746-1.475 3.564-1.113 7.461.267 2.906.574 6.2 0 8.498l1.989.5c.658-2.638.331-6.118.05-9.19-.179-1.951-.456-4.905-.04-5.429.05.068.623 21.994 5.141 27.22 7.186 8.319 3.603 3.532 3.603 18.028 0 7.145 5.344 15.472 5.131 18.389-2.662-3.371-3.419-12.043-4.097-19.821-.792-9.056-1.47-16.875-4.691-19.473 3.97-3.482-9.825-21.72-8.883-9.37.649 4.32-1.465-9.7-4.533-14.472-9.397-14.625-28.864-31.713-96.514-34.062-62.014-2.153-92.749 23.3-100.65 31.066l1.027-1.77-10.077-5.195-2.851 30.17 4.313-6.807s6.962-12.625 7.09-12.92C49.246 72.451 78.632 38.8 149.236 41.25c75.26 2.612 89 23.99 94.87 33.12 2.825 4.402 3.567 9.321 4.225 13.66.861 5.716 1.683 11.114 8.101 10.251.589-.077 1.074.055 1.524.42 2.544 2.049 3.247 10.18 3.934 18.043.901 10.403 1.762 20.227 6.542 22.635l1.331.671.144-1.494c.178-1.91 4.3-46.878-8.432-61.62-5.013-5.806-6.859-6.608-8.21-6.026zm27.222 37.274a84.6 84.6 0 0 0-5.77-17.362c1.445 3.333 3.756 9.274 5.77 17.362zm-5.77-17.362a62.946 62.946 0 0 0-.9-2.008c.33.672.598 1.337.9 2.008zm-6.413-14.888c16.825 16.223 13.806 58.087 13.806 58.087l-8.185-9.509v40.563l-5.666 11.406c-10.075 53.873-33.996 101.408-127.803 98.872-93.804-2.535-108.282-52.603-117.097-100.138-8.814-47.533 3.777-99.503 3.777-99.503-27.702 82.39 5.038 144.502 5.038 144.502s15.736 58.307 112.691 57.675c96.95-.632 112.062-54.505 112.062-54.505l1.762 13.597s22.52-20.6 29.443-63.699c3.509-21.82-10.05-87.92-19.828-97.348zm5.512 12.88c-.326-.685-.524-1.062-.524-1.062.183.356.351.71.524 1.062"/><g style="fill:url(#j);fill-opacity:1" transform="matrix(.49485 0 0 -.49485 -261.408 458.006)"><g style="fill:url(#k);fill-opacity:1" clip-path="url(#l)"><path style="fill:url(#m);fill-opacity:1;fill-rule:nonzero;stroke:none" d="M1094.29 667.164c.227-.333 0 0 0 0zM607.449 803.75s25.906 23.891 44.403 41.492c0 0-24.668-13.828-44.403-41.492zm-6.894-317.059c14.668-29.589 29.101-48.843 29.101-48.843s-13.754 20.746-29.101 48.843zm480.495 284.368-4.82 14.046 43.05-15.304-41.65 21.347 42.3 25.102-46.49-19.059 7.44 46.485-15.09-44.903-10.94 3.09c-22.94 34.106-54.46 51.176-94.12 70.2-73.718 35.371-171.976 25.992-171.976 25.992s116-1.477 204.73-54.071c18.326-10.863 33.606-25.925 46.286-42.949l-19.15-1.055 21.95-2.8c2.07-2.918 4.07-5.883 5.99-8.891l-25.48-14.719 27.49 11.539a264.55 264.55 0 0 0 8.05-13.976l-10.87-34.028 12.85 30.286c19.04-36.828 29.07-75.95 33.69-100.227-5.33 50.816-14.63 87.039-27.77 114.211l.96 2.254s48.1-62.867 39.47-165.977c-8.63-103.109-33.3-139.574-57.97-164.722l-1.23 12.578s-35.76-106.887-213.363-104.367c-177.602 2.519-191.168 60.351-191.168 60.351l-9.867 5.039s-41.93 32.684-67.832 119.449c-25.903 86.762-1.235 157.176-1.235 157.176s-13.566-57.84-3.699-116.937c5.113-30.625 23.461-69.324 39.969-99.528-12.117 24.43-24.403 55.907-28.867 89.469-9.872 74.188-7.403 124.485 4.929 162.203 12.332 37.719 19.735 54.071 19.735 54.071s-51.797-60.36-53.032-188.614c-1.234-128.257 107.297-216.273 155.395-235.136 48.101-18.86 199.801-44.004 291.066 20.117 91.269 64.129 85.099 80.472 114.699 139.578 29.61 59.098 17.27 178.551-23.43 242.68zm-21.6 23.519c-.1.164-.19.328-.29.485l.92-.118zm4.24-7.57c-.52.984-1.04 1.988-1.57 2.949l2.9 1.219zm-434.034 5.426c7.395 12.574 45.629 35.207 45.629 35.207s-20.969-12.578-44.398-40.239c-23.438-27.66 8.633 2.516 51.801 31.438 43.164 28.918 103.597 26.402 103.597 26.402s-19.73 15.09-94.965-8.804l72.766 31.437S653.09 843.984 621.02 798.719c-32.071-45.266 1.23-18.86 8.636-6.285zm371.254 3.976c13.61-14.133 23.41-26.609 23.41-26.609s-4.01 12.711-23.41 26.609zM579.086 611.363c13.566-133.285 70.301-189.871 70.301-189.871s43.164-42.75 177.597-49.035c134.43-6.285 177.606 46.523 181.306 55.324 3.7 8.801-17.274-5.027-23.438-2.511-6.168 2.511 19.738 49.039 19.738 49.039-13.57-50.297 7.4 7.543 20.96 1.254 13.57-6.282-27.132-22.633-13.56-35.208 13.56-12.574 41.92 76.704 60.43 116.942 18.5 40.234 12.33 81.73 11.1 108.137-1.23 26.406-7.4 37.722-7.4 37.722l-3.7-62.875s2.47-8.797-17.27 35.215l-16.03 42.75c-11.1-196.16-55.507-270.351-55.507-270.351s-16.031-49.032-145.531-50.293c-129.496-1.25-148 32.699-148 32.699-41.93 55.324-66.598 173.519-60.426 251.476 6.164 77.961 0 99.34 55.496 123.231 55.5 23.887 139.364 26.406 139.364 26.406 100.734 2.832 151.375-17.074 176.394-35.004a315.563 315.563 0 0 1-9.894 9.852c-18.5 17.601-189.934 54.07-279.965 18.863-90.031-35.207-96.199-69.156-90.031-172.266 6.168-103.109 38.234-188.609 60.433-221.304 22.199-32.692 101.133-42.754 101.133-42.754-107.301 2.519-119.633 59.094-125.801 69.164-6.168 10.058-24.668 30.18-28.367 13.828-3.699-16.344-36.859 83.609-30.691 88.641 6.164 5.031 44.257-50.922 44.257-50.922s-13.566 27.668-27.132 105.625c-13.567 77.957 7.398 116.937-6.168 119.453-13.567 2.515 16.871-115.035-21.985-120.262-11.07-1.492-1.883 103.965 3.055 125.34 4.93 21.379 10.301 27.617 10.301 27.617s-34.535-22.637-20.969-155.922"/></g></g><path style="fill:url(#n);fill-opacity:1;stroke:#6d0115;stroke-width:2;stroke-miterlimit:4;stroke-opacity:1;stroke-dasharray:none" d="M159.06 257.157c.105-.005 15.295-.75 28.546-3.736 11.513-2.593 21.702-7.546 21.803-7.595l.038-.02.042-.018c.056-.024 5.733-2.475 9.225-5.811 3.54-3.386 5.15-7.814 5.166-7.858.07-.193 6.269-16.711 10.957-34.356 4.314-16.238 7.273-34.188 7.303-34.367.046-.237 3.62-18.374 4.623-37.668.844-16.215-.832-34.625-.85-34.81-.01-.138-.874-11.04-5.249-18.17-3.932-6.404-11.524-9.55-11.6-9.582l-.066-.026-.065-.035c-.088-.044-8.903-4.46-25.623-8.097-13.335-2.901-31.872-4.972-47.22-5.272-17.547-.344-36.385.879-50.385 3.272-16.792 2.87-27.7 7.134-27.81 7.177l-.09.034-.095.026C77.6 60.275 66.72 63.257 61 70.52c-5.81 7.377-6.752 19.496-6.76 19.618l-.007.073c-.017.123-1.234 10.575-1.234 23.385 0 2.296.038 4.669.132 7.072.655 17.061 3.638 35.972 3.668 36.161.034.186 4.075 22.387 8.684 41.097 3.414 13.87 7.86 26.14 7.905 26.261l.03.088.023.09c.016.062 1.532 6.288 3.996 10.633 2.146 3.78 5.305 6.003 5.338 6.022l.051.036.052.042c.023.017 2.173 1.753 5.473 3.562 3.8 2.08 8.891 4.311 9.108 4.402.359.14 11.584 4.437 26.382 6.39 15.453 2.04 35.021 1.708 35.218 1.705z"/><g style="fill:#6d0115;fill-opacity:1"><path style="fill:#6d0115;fill-opacity:1" d="M66.921 158.554c-.405-.188-.626-.297-.626-.297-.023-.01-.138-.061-.325-.148l-.068-.408c-1.602-8.961-4.047-25.333-4.847-45.297-.989-23.477-.951-52.25-.857-66.187v-1.008c.27-.092.55-.185.839-.279l.004 1.01c-.095 13.818-.14 42.809.855 66.429.813 20.312 3.333 36.889 4.926 45.696l.099.489z" transform="matrix(1.65414 0 0 1.63063 -18.7 -13.275)"/><path style="fill:#6d0115;fill-opacity:1" d="M69.566 159.703a85.396 85.396 0 0 1-.912-.381l-.078-.629c-1.167-8.439-3.232-25.643-4.213-47.651-1.042-23.396-.854-52.804-.691-66.173l.002-.751c.274-.08.554-.16.84-.24l.002.829c-.163 13.277-.357 42.82.688 66.298 1.003 22.506 3.141 39.974 4.288 48.161l.074.537zM89.348 40.495l1.001 122.333.016 1.829a82.55 82.55 0 0 1-.836-.094l-.021-1.738-1-122.217-.021-.758c.283-.024.566-.048.849-.07l.012.715zM100.301 40.158l.399 123.286.006 1.729c-.295.004-.578.007-.848.008v-1.962l-.4-123.341-.004-.58.822-.01.025.87zM104.506 40.271l-.603 123.175-.002 1.668-.854.021.012-1.354c.106-21.879.481-98.496.605-123.678l-.02-.813c.293.003.585.006.877.011l-.015.97zM115.874 163.003c.604-10.136 1.744-31.624 2.212-55.938.478-24.781.265-52.982.118-66.227l-.048-.852c.341.03.679.061 1.016.093l.046 1.092c.146 13.391.352 41.332-.121 65.913-.465 24.112-1.59 45.448-2.197 55.704l-.088 1.465c-.354.043-.66.084-1.02.123l.082-1.373zM144.603 152.957a12.19 12.19 0 0 1-1.324 1.535l.404-2.175c1.758-9.238 4.031-23.528 5.166-40.308 1.348-19.948 1.521-47.224 1.492-62.723l.018-1.485c.328.184.66.379.992.589l.002 1.979c.019 15.677-.177 42.19-1.496 61.709a343.79 343.79 0 0 1-5.071 39.844l-.183 1.035zM154.321 119.493c.728-5.839 1.4-12.392 1.863-19.314 1.017-15.213 1.043-32.448.914-43.416l-.023-1.831c.424.96.766 1.944 1.042 2.889l.02 1.701c.091 10.982-.007 26.708-.944 40.725a321.624 321.624 0 0 1-.693 8.626l-.309 3.083a495.73 495.73 0 0 1-2.375 11.394l.505-3.857z" transform="matrix(1.65414 0 0 1.63063 -18.7 -13.275)"/><path style="fill:#6d0115;fill-opacity:1" d="M141.024 156.292c-.32.221-.703.472-1.135.737l.307-1.75c1.686-9.41 4.309-26.49 5.34-46.338 1.131-21.803 1.135-47.72 1.04-60.988l-.039-1.879c.288.103.628.23 1.005.383l.047 1.75c.093 13.357.082 39.103-1.044 60.787-1.002 19.301-3.508 35.996-5.2 45.598l-.321 1.7zM128.614 160.607c.797-8.768 2.258-26.919 2.96-48.816.788-24.582.791-53.712.733-67.784l-.031-2.001c.352.073.699.147 1.039.222l.004 1.937c.057 14.141.051 43.156-.735 67.659-.697 21.753-2.143 39.816-2.944 48.675l-.103 1.076c-.335.1-.669.203-1.04.308l.117-1.276zM125.124 161.435c.875-7.446 2.309-21.879 2.9-40.651.862-27.313.756-61.757.643-77.696l-.019-1.773c.335.058.665.116.992.177l.038 1.853c.112 16.06.214 50.293-.645 77.473-.583 18.483-1.98 32.772-2.862 40.351l-.163 1.372c-.336.083-.695.175-1.049.258l.165-1.364zM122.292 162.039c.684-7.873 1.865-23.467 2.42-42.438.775-26.513.575-60.086.389-77.59l-.02-1.251c.344.047.684.096 1.02.146l.018 1.673c.184 17.666.371 50.813-.396 77.052-.546 18.678-1.699 34.088-2.388 42.098l-.126 1.453c-.348.073-.676.141-1.035.211l.118-1.354zM119.007 162.708c.58-9.196 1.677-28.41 2.156-49.02.637-27.397.668-57.958.64-72.264l-.029-1.077c.343.039.683.078 1.02.118l.021 1.214c.027 14.417-.007 44.788-.641 72.032-.474 20.364-1.549 39.367-2.135 48.706l-.088 1.378c-.361.061-.652.113-1.023.17l.079-1.257zM115.532 40.945c-.043 14.641-.188 47.856-.656 76.188a1989.915 1989.915 0 0 1-1.297 45.646l-.078 1.814-.857.072.082-1.612c.355-8.793.98-26.1 1.309-45.934.471-28.471.615-61.876.657-76.398l.006-1.005c.284.02.567.039.849.06l-.015 1.169zM111.372 40.271c.117 12.921.291 38.208.136 62.037-.169 25.795-.72 50.424-.981 61.028l-.031 1.484c-.287.019-.572.036-.857.053l.039-1.259c.259-10.431.818-35.277.988-61.313.155-23.689-.016-48.823-.133-61.806l-.01-1.017.841.04.008.753zM108.068 40.215c.173 14.819.413 41.343.296 66.358-.109 23.273-.6 45.563-.896 57.209l-.025 1.205-.848.037.035-1.411c.296-11.683.782-33.876.892-57.044.116-24.89-.121-51.273-.294-66.13l-.019-1.082.848.025.011.833zM78.317 162.636c-.293-.074-.584-.15-.873-.229l-.05-.554c-.707-7.738-2.129-25.139-2.717-45.565-.751-26.057-.501-58.624-.317-73.959l-.007-.672c.281-.049.563-.098.849-.146l.002.68c-.184 15.265-.438 47.946.315 74.073.596 20.69 2.048 38.27 2.743 45.829l.055.543zM72.612 160.877c-.304-.11-.601-.219-.89-.327l-.069-.64c-1.287-10.892-3.776-34.42-4.565-59.381-.668-21.118-.091-44.688.298-56.542l.015-.869c.279-.069.562-.138.849-.206l-.011.749c-.388 11.722-.984 35.532-.31 56.842.8 25.313 3.351 49.151 4.618 59.797l.065.577zM48.65 117.465c-1.028-5.078-1.629-8.787-1.64-8.852l-.144-2.224c-.593-7.598-1.126-16.11-1.25-23.368-.147-8.582-.085-17.163.013-23.581l-.035-.818c.247-.974.555-1.995.938-2.987l-.072 4.563c-.091 6.322-.143 14.564-.001 22.81.157 9.182.97 20.38 1.731 29.18l.46 5.277zM55.968 144.563a269.284 269.284 0 0 1-1.944-6.018l-.513-3.002c-1.312-7.869-2.476-16.227-2.806-22.647-1.716-21.341-1.803-45.976-1.695-59.089l.021-2.413c.267-.296.543-.575.824-.838l.005 2.282c-.12 12.82-.073 38.141 1.685 60.002.384 7.485 1.908 17.617 3.474 26.525l.949 5.198zM60.106 149.053c-1.73-8.651-3.864-21.41-4.968-35.999-1.714-22.638-1.655-49.277-1.486-62.456l.02-2.722c-.246.128-.539.289-.864.482l.001 2.269c-.168 13.209-.225 39.846 1.489 62.491 1.1 14.532 3.22 27.256 4.949 35.933l1.076 5.148a10.497 10.497 0 0 0 1.067 1.059l-1.284-6.205zM75.338 161.324c-.783-7.136-2.166-21.588-2.739-39.03-.943-28.697-1.01-64.515-.991-79.393l-.008-.725c-.287.058-.571.116-.851.175l.017.632c-.019 14.934.05 50.683.991 79.339.561 17.055 1.895 31.258 2.688 38.577l.066.63c.288.095.58.188.876.279l-.049-.484z" transform="matrix(1.65414 0 0 1.63063 -18.7 -13.275)"/><path style="fill:#6d0115;fill-opacity:1" d="M57.445 46.209c-.311.121-.597.235-.858.342l-.016 1.283c-.282 13.393-.652 40.171.397 57.767 1.488 24.952 4.571 42.639 6.095 50.236l.142.748c.323.206.691.426.994.6l-.189-.918c-1.469-7.202-4.674-25.123-6.201-50.716-1.056-17.713-.671-44.761-.389-58.027l.025-1.348M78.826 40.946l-.851.124.014.717c-.146 13.95-.333 41.538.112 65.691.423 22.967 1.812 43.91 2.595 54.279l.1 1.442c.287.059.574.117.862.173l-.092-1.273c-.776-10.209-2.195-31.385-2.624-54.637-.446-24.181-.257-51.807-.111-65.731l-.005-.785zM82.401 40.476l-.86.106-.002.699c-.218 11.374-.541 34.907-.069 58.338.51 26.646 1.885 51.803 2.549 62.854l.076 1.337c.29.047.577.094.864.138l-.095-1.461c-.663-11.009-2.042-36.199-2.552-62.885-.472-23.467-.147-47.037.071-58.376l.018-.75zM85.845 40.096c-.28.027-.561.057-.841.086l-.006.708c-.094 12.207-.224 37.87.065 62.769.281 24.145.999 48.016 1.359 58.948l.051 1.567c.285.04.568.079.847.116l-.056-1.688c-.36-10.919-1.079-34.8-1.359-58.954-.291-25.013-.158-50.798-.064-62.929l.004-.623zM93.149 39.519l-.879.052.021.477.806 123.397.014 1.48c.298.026.581.05.847.071l-.018-1.495-.807-123.511.016-.471zM96.694 39.359l-.859.03.021.825.22 122.892-.013 2.038c.219.014.378.022.469.027l.385.005.002-2.125-.221-122.836-.004-.856zM131.472 159.445c1.217-10.387 3.426-31.854 4.361-57.596.697-19.163.144-44.87-.22-57.725l-.065-1.384c.354.085.697.17 1.033.255l.051 1.422c.363 12.971.903 38.438.211 57.469-.934 25.709-3.137 47.163-4.358 57.6l-.146 1.19a51.98 51.98 0 0 1-1.062.355l.195-1.586z" transform="matrix(1.65414 0 0 1.63063 -18.7 -13.275)"/><path style="fill:#6d0115;fill-opacity:1" d="M135.694 157.961c.984-9.042 2.711-26.914 3.752-49.206.999-21.405.947-49.041.826-63.693l-.021-1.066a96.57 96.57 0 0 0-1.02-.293l.029 1.264c.122 14.613.176 42.309-.824 63.741-1.053 22.562-2.809 40.587-3.785 49.495l-.188 1.615c.303-.14.66-.307 1.049-.491l.182-1.366zM138.79 155.977c1.191-8.092 2.813-21.325 3.732-38.227 1.368-25.141 1.615-57.214 1.654-71.552l-.02-.952a62.927 62.927 0 0 0-1.001-.343l.011.962c-.036 14.161-.276 46.516-1.654 71.83-.957 17.59-2.674 31.19-3.872 39.139l-.233 1.563c.373-.189.746-.384 1.105-.577l.278-1.843zM147.633 145.489s.907-2.535 2.026-6.161l.424-2.818c1.378-9.352 2.832-21.017 3.797-33.656 1.283-16.825 1.003-37.319.646-49.656l-.078-2.328c-.336-.35-.689-.681-1.057-.991l.082 1.895c.373 12.105.73 33.542-.602 51.004-1.12 14.677-2.901 28.035-4.455 37.972l-.783 4.739z" transform="matrix(1.65414 0 0 1.63063 -18.7 -13.275)"/></g><g style="fill:#1a1a1a;fill-opacity:1;fill-rule:evenodd;stroke:none"><g style="fill:#1a1a1a;fill-opacity:1;stroke:none"><path class="fil0" style="fill:#1a1a1a;fill-opacity:1;stroke:none" d="M21.547 39.621V30.87h-8.934l.033-22.025H24.31L24.247 0H0l2.192 67.691h10.654l-.233-28.07zM28.459 0l1.348 67.691h11.002L41.032 0zM99.12 67.691l2.261-59.162H110L109.934 0H80.036v8.538h8.69l-.25 59.153zM57.623 31.329l.12-22.992h6.144c2.785 5.12 4.574 11.892 5.977 22.992h-12.24zm-9.815 36.36H57.993l.114-27.99H70.31c.959 4.94 1.194 20.19 1.251 27.99h9.88C82.376 33.132 79.48 13.6 71.479 0H46.876l.932 67.69z" transform="matrix(1.38981 0 0 1.65448 77.5 98.435)"/></g></g><g style="fill:url(#o);fill-opacity:1;fill-rule:evenodd;stroke:none"><g style="fill:url(#p);fill-opacity:1;stroke:none" transform="matrix(1.3933 0 0 1.65445 79.237 96.43)"><path class="fil0" style="fill:url(#q);fill-opacity:1;stroke:none" d="M21.547 30.87h-8.934l.033-22.025H24.31L24.247 0H0l2.192 67.691h10.654l-.233-28.07h8.934z"/><path class="fil0" style="fill:url(#r);fill-opacity:1;stroke:none" d="M41.032 0H28.459l1.348 67.691h11.002z"/><path class="fil0" style="fill:url(#s);fill-opacity:1;stroke:none" d="M88.476 67.691H99.12l2.261-59.162H110L109.934 0H80.036v8.538h8.69z"/><path class="fil0" d="m57.623 31.329.12-22.992h6.144c2.785 5.12 4.574 11.892 5.977 22.992h-12.24zm-9.815 36.36H57.993l.114-27.99H70.31c.959 4.94 1.194 20.19 1.251 27.99h9.88C82.376 33.132 79.48 13.6 71.479 0H46.876l.932 67.69z" style="fill:url(#t);fill-opacity:1;stroke:none"/></g></g></svg>