<svg width="571" height="571" xmlns="http://www.w3.org/2000/svg" xmlns:xlink="http://www.w3.org/1999/xlink" overflow="hidden"><defs><clipPath id="clip0"><rect x="28" y="88" width="571" height="571"/></clipPath><linearGradient x1="314" y1="89" x2="314" y2="658" gradientUnits="userSpaceOnUse" spreadMethod="reflect" id="fill1"><stop offset="0" stop-color="#05DBE4"/><stop offset="0.47" stop-color="#05B5E7"/><stop offset="0.56" stop-color="#0063CA"/><stop offset="0.63" stop-color="#006DD8"/><stop offset="0.74" stop-color="#0280DB"/><stop offset="1" stop-color="#36CCFC"/></linearGradient><linearGradient x1="29" y1="374" x2="599" y2="374" gradientUnits="userSpaceOnUse" spreadMethod="reflect" id="fill2"><stop offset="0" stop-color="#05ABEF" stop-opacity="0"/><stop offset="0.25" stop-color="#01AEE1"/><stop offset="0.5" stop-color="#03A9DA"/><stop offset="0.75" stop-color="#03AEE1"/><stop offset="1" stop-color="#05ABEF" stop-opacity="0"/></linearGradient><linearGradient x1="387" y1="475" x2="387" y2="511" gradientUnits="userSpaceOnUse" spreadMethod="reflect" id="fill3"><stop offset="0" stop-color="#077CDA"/><stop offset="0.05" stop-color="#067DDB"/><stop offset="0.1" stop-color="#067FDC"/><stop offset="0.15" stop-color="#0681DE"/><stop offset="0.2" stop-color="#0683DF"/><stop offset="0.25" stop-color="#0684E0"/><stop offset="0.3" stop-color="#0686E1"/><stop offset="0.35" stop-color="#0687E2"/><stop offset="0.4" stop-color="#0688E3"/><stop offset="0.45" stop-color="#068AE4"/><stop offset="0.5" stop-color="#068BE5"/><stop offset="0.55" stop-color="#068CE6"/><stop offset="0.6" stop-color="#068DE7"/><stop offset="0.65" stop-color="#068EE7"/><stop offset="0.7" stop-color="#058EE8"/><stop offset="0.75" stop-color="#058FE8"/><stop offset="0.8" stop-color="#058FE9"/><stop offset="0.85" stop-color="#0590E9"/><stop offset="0.9" stop-color="#0590E9"/><stop offset="0.95" stop-color="#0590E9"/><stop offset="1" stop-color="#0591EA"/></linearGradient><linearGradient x1="380.782" y1="458.108" x2="393.218" y2="527.892" gradientUnits="userSpaceOnUse" spreadMethod="reflect" id="fill4"><stop offset="0" stop-color="#0280DB" stop-opacity="0"/><stop offset="0.28" stop-color="#0280DB" stop-opacity="0"/><stop offset="0.77" stop-color="#03A2E9"/><stop offset="1" stop-color="#03A2E9"/></linearGradient><linearGradient x1="313.5" y1="625" x2="313.5" y2="122" gradientUnits="userSpaceOnUse" spreadMethod="reflect" id="fill5"><stop offset="0" stop-color="#63CEF3"/><stop offset="0.28" stop-color="#3DA9E9"/><stop offset="0.39" stop-color="#3385D0"/><stop offset="0.52" stop-color="#33A6E0"/><stop offset="0.65" stop-color="#43C0E6"/><stop offset="0.95" stop-color="#2ED9E5"/><stop offset="1" stop-color="#11616E"/></linearGradient><linearGradient x1="391" y1="236" x2="391" y2="433" gradientUnits="userSpaceOnUse" spreadMethod="reflect" id="fill6"><stop offset="0" stop-color="#05C1E7"/><stop offset="0.63" stop-color="#05B5E7"/><stop offset="0.87" stop-color="#0075D3"/><stop offset="1" stop-color="#0173D6"/></linearGradient><linearGradient x1="347.133" y1="214.477" x2="434.867" y2="455.523" gradientUnits="userSpaceOnUse" spreadMethod="reflect" id="fill7"><stop offset="0" stop-color="#36BEDC"/><stop offset="0.1" stop-color="#36BEDC" stop-opacity="0.870588"/><stop offset="0.36" stop-color="#36BEDC" stop-opacity="0.160784"/><stop offset="0.6" stop-color="#0173D6" stop-opacity="0"/><stop offset="1" stop-color="#0173D6" stop-opacity="0"/></linearGradient><linearGradient x1="391" y1="433" x2="391" y2="236" gradientUnits="userSpaceOnUse" spreadMethod="reflect" id="fill8"><stop offset="0" stop-color="#479DE8"/><stop offset="0.48" stop-color="#51CFF0"/><stop offset="0.87" stop-color="#8EF3F7"/><stop offset="1" stop-color="#7BDBF2"/></linearGradient><linearGradient x1="432" y1="434" x2="432" y2="269" gradientUnits="userSpaceOnUse" spreadMethod="reflect" id="fill9"><stop offset="0" stop-color="#004883"/><stop offset="0.5" stop-color="#004D6F"/><stop offset="1" stop-color="#004C64"/></linearGradient><linearGradient x1="409.5" y1="433" x2="409.5" y2="269" gradientUnits="userSpaceOnUse" spreadMethod="reflect" id="fill10"><stop offset="0" stop-color="#54B5F3"/><stop offset="0.21" stop-color="#54B5F3"/><stop offset="0.58367" stop-color="#5ED3F8"/><stop offset="1" stop-color="#65E9FF"/></linearGradient><linearGradient x1="1.22465e-16" y1="2" x2="164" y2="2" gradientUnits="userSpaceOnUse" spreadMethod="reflect" id="fill11"><stop offset="0" stop-color="#044A85"/><stop offset="0.21" stop-color="#044A85"/><stop offset="1" stop-color="#006173"/></linearGradient><linearGradient x1="327" y1="433" x2="327" y2="269" gradientUnits="userSpaceOnUse" spreadMethod="reflect" id="fill12"><stop offset="0" stop-color="#54B5F3"/><stop offset="0.21" stop-color="#54B5F3"/><stop offset="0.58367" stop-color="#5ED3F8"/><stop offset="1" stop-color="#65E9FF"/></linearGradient><linearGradient x1="289.5" y1="433" x2="289.5" y2="236" gradientUnits="userSpaceOnUse" spreadMethod="reflect" id="fill13"><stop offset="0" stop-color="#0C3A71"/><stop offset="0.0147059" stop-color="#0C3B71" stop-opacity="0.999827"/><stop offset="0.0294118" stop-color="#0C3D72" stop-opacity="0.999654"/><stop offset="0.0441176" stop-color="#0D3F73" stop-opacity="0.999481"/><stop offset="0.0588235" stop-color="#0D4174" stop-opacity="0.999308"/><stop offset="0.0735294" stop-color="#0D4375" stop-opacity="0.999135"/><stop offset="0.0882353" stop-color="#0E4476" stop-opacity="0.998962"/><stop offset="0.102941" stop-color="#0E4677" stop-opacity="0.998789"/><stop offset="0.117647" stop-color="#0E4877" stop-opacity="0.998616"/><stop offset="0.132353" stop-color="#0F4A78" stop-opacity="0.998443"/><stop offset="0.147059" stop-color="#0F4B79" stop-opacity="0.99827"/><stop offset="0.161765" stop-color="#0F4D7A" stop-opacity="0.998097"/><stop offset="0.176471" stop-color="#104F7B" stop-opacity="0.997924"/><stop offset="0.191176" stop-color="#10507B" stop-opacity="0.997751"/><stop offset="0.205882" stop-color="#10527C" stop-opacity="0.997578"/><stop offset="0.220588" stop-color="#11537D" stop-opacity="0.997405"/><stop offset="0.235294" stop-color="#11557E" stop-opacity="0.997232"/><stop offset="0.25" stop-color="#11567E" stop-opacity="0.997059"/><stop offset="0.264706" stop-color="#12587F" stop-opacity="0.996886"/><stop offset="0.279412" stop-color="#125980" stop-opacity="0.996713"/><stop offset="0.294118" stop-color="#125B80" stop-opacity="0.99654"/><stop offset="0.308824" stop-color="#125C81" stop-opacity="0.996367"/><stop offset="0.323529" stop-color="#135D82" stop-opacity="0.996194"/><stop offset="0.338235" stop-color="#135F82" stop-opacity="0.996021"/><stop offset="0.352941" stop-color="#136083" stop-opacity="0.995848"/><stop offset="0.367647" stop-color="#146184" stop-opacity="0.995675"/><stop offset="0.382353" stop-color="#146384" stop-opacity="0.995502"/><stop offset="0.397059" stop-color="#146485" stop-opacity="0.995329"/><stop offset="0.411765" stop-color="#146585" stop-opacity="0.995156"/><stop offset="0.426471" stop-color="#156686" stop-opacity="0.994983"/><stop offset="0.441176" stop-color="#156786" stop-opacity="0.99481"/><stop offset="0.455882" stop-color="#156887" stop-opacity="0.994637"/><stop offset="0.470588" stop-color="#156A87" stop-opacity="0.994464"/><stop offset="0.485294" stop-color="#156B88" stop-opacity="0.994291"/><stop offset="0.5" stop-color="#166C89" stop-opacity="0.994118"/><stop offset="0.514706" stop-color="#166D89" stop-opacity="0.993945"/><stop offset="0.529412" stop-color="#166E89" stop-opacity="0.993772"/><stop offset="0.544118" stop-color="#166F8A" stop-opacity="0.993599"/><stop offset="0.558824" stop-color="#16708A" stop-opacity="0.993426"/><stop offset="0.573529" stop-color="#17718B" stop-opacity="0.993253"/><stop offset="0.588235" stop-color="#17718B" stop-opacity="0.99308"/><stop offset="0.602941" stop-color="#17728C" stop-opacity="0.992907"/><stop offset="0.617647" stop-color="#17738C" stop-opacity="0.992734"/><stop offset="0.632353" stop-color="#17748C" stop-opacity="0.992561"/><stop offset="0.647059" stop-color="#18758D" stop-opacity="0.992388"/><stop offset="0.661765" stop-color="#18758D" stop-opacity="0.992215"/><stop offset="0.676471" stop-color="#18768E" stop-opacity="0.992042"/><stop offset="0.691176" stop-color="#18778E" stop-opacity="0.991868"/><stop offset="0.705882" stop-color="#18788E" stop-opacity="0.991696"/><stop offset="0.720588" stop-color="#18788E" stop-opacity="0.991522"/><stop offset="0.735294" stop-color="#18798F" stop-opacity="0.991349"/><stop offset="0.75" stop-color="#18798F" stop-opacity="0.991176"/><stop offset="0.764706" stop-color="#197A8F" stop-opacity="0.991003"/><stop offset="0.779412" stop-color="#197A90" stop-opacity="0.99083"/><stop offset="0.794118" stop-color="#197B90" stop-opacity="0.990657"/><stop offset="0.808824" stop-color="#197B90" stop-opacity="0.990484"/><stop offset="0.823529" stop-color="#197C90" stop-opacity="0.990311"/><stop offset="0.838235" stop-color="#197C90" stop-opacity="0.990138"/><stop offset="0.852941" stop-color="#197D91" stop-opacity="0.989965"/><stop offset="0.867647" stop-color="#197D91" stop-opacity="0.989792"/><stop offset="0.882353" stop-color="#197D91" stop-opacity="0.989619"/><stop offset="0.897059" stop-color="#197E91" stop-opacity="0.989446"/><stop offset="0.911765" stop-color="#197E91" stop-opacity="0.989273"/><stop offset="0.926471" stop-color="#197E91" stop-opacity="0.9891"/><stop offset="0.941176" stop-color="#197E91" stop-opacity="0.988927"/><stop offset="0.955882" stop-color="#197E91" stop-opacity="0.988754"/><stop offset="0.970588" stop-color="#197E91" stop-opacity="0.988581"/><stop offset="0.985294" stop-color="#197E91" stop-opacity="0.988408"/><stop offset="1" stop-color="#1A7F92" stop-opacity="0.988235"/></linearGradient><linearGradient x1="313.5" y1="658" x2="313.5" y2="89" gradientUnits="userSpaceOnUse" spreadMethod="reflect" id="fill14"><stop offset="0" stop-color="#005483"/><stop offset="0.19" stop-color="#012C60"/><stop offset="0.36" stop-color="#011C4F"/><stop offset="0.67" stop-color="#067596"/><stop offset="0.88" stop-color="#2B91B0"/><stop offset="1" stop-color="#65C8E9"/></linearGradient><linearGradient x1="197" y1="236" x2="197" y2="512" gradientUnits="userSpaceOnUse" spreadMethod="reflect" id="fill15"><stop offset="0" stop-color="#05C1E7"/><stop offset="0.44" stop-color="#05B5E7"/><stop offset="0.64" stop-color="#0176D6"/><stop offset="0.92" stop-color="#00AAEF"/><stop offset="1" stop-color="#00AAEF"/></linearGradient><linearGradient x1="189" y1="478" x2="189" y2="430" gradientUnits="userSpaceOnUse" spreadMethod="reflect" id="fill16"><stop offset="0" stop-color="#55C9FF"/><stop offset="0.03" stop-color="#55C9FF"/><stop offset="0.16" stop-color="#1687C2"/><stop offset="0.39" stop-color="#094071"/><stop offset="1" stop-color="#03498B"/></linearGradient><linearGradient x1="197" y1="434" x2="197" y2="236" gradientUnits="userSpaceOnUse" spreadMethod="reflect" id="fill17"><stop offset="0" stop-color="#003678"/><stop offset="0.18" stop-color="#01417B"/><stop offset="0.29" stop-color="#035C83"/><stop offset="0.48" stop-color="#046F88"/><stop offset="0.85" stop-color="#1F89A1"/><stop offset="0.95" stop-color="#48B1C7"/><stop offset="1" stop-color="#84EBFF"/></linearGradient><linearGradient x1="208.5" y1="511" x2="208.5" y2="236" gradientUnits="userSpaceOnUse" spreadMethod="reflect" id="fill18"><stop offset="0" stop-color="#005573"/><stop offset="0.07" stop-color="#085A91"/><stop offset="0.20832" stop-color="#1F89CB"/><stop offset="0.48" stop-color="#5AABE9"/><stop offset="1" stop-color="#59D5F0"/></linearGradient><linearGradient x1="196.5" y1="401" x2="196.5" y2="269" gradientUnits="userSpaceOnUse" spreadMethod="reflect" id="fill19"><stop offset="0" stop-color="#72BAF3"/><stop offset="0.05" stop-color="#9ECFE7"/><stop offset="0.13" stop-color="#5FADDE"/><stop offset="0.19" stop-color="#54ACDF"/><stop offset="0.87" stop-color="#50E2F3"/><stop offset="1" stop-color="#016A78"/></linearGradient><linearGradient x1="131" y1="2" x2="3.67394e-16" y2="2" gradientUnits="userSpaceOnUse" spreadMethod="reflect" id="fill20"><stop offset="0" stop-color="#00538E"/><stop offset="0.0333333" stop-color="#00548D"/><stop offset="0.0666667" stop-color="#00568D"/><stop offset="0.1" stop-color="#01588D"/><stop offset="0.133333" stop-color="#015A8D"/><stop offset="0.166667" stop-color="#025B8D"/><stop offset="0.2" stop-color="#025D8D"/><stop offset="0.233333" stop-color="#025F8D"/><stop offset="0.266667" stop-color="#03608C"/><stop offset="0.3" stop-color="#03628C"/><stop offset="0.333333" stop-color="#03638C"/><stop offset="0.366667" stop-color="#04648B"/><stop offset="0.4" stop-color="#04668B"/><stop offset="0.433333" stop-color="#04678A"/><stop offset="0.466667" stop-color="#04688A"/><stop offset="0.5" stop-color="#056989"/><stop offset="0.533333" stop-color="#056A89"/><stop offset="0.566667" stop-color="#056B88"/><stop offset="0.6" stop-color="#056C88"/><stop offset="0.633333" stop-color="#056D87"/><stop offset="0.666667" stop-color="#066E86"/><stop offset="0.7" stop-color="#066E86"/><stop offset="0.733333" stop-color="#066F85"/><stop offset="0.766667" stop-color="#066F84"/><stop offset="0.8" stop-color="#067084"/><stop offset="0.833333" stop-color="#067083"/><stop offset="0.866667" stop-color="#067182"/><stop offset="0.9" stop-color="#067181"/><stop offset="0.933333" stop-color="#067180"/><stop offset="0.966667" stop-color="#06717F"/><stop offset="1" stop-color="#07727F"/></linearGradient><linearGradient x1="62" y1="373.5" x2="565" y2="373.5" gradientUnits="userSpaceOnUse" spreadMethod="reflect" id="fill21"><stop offset="0" stop-color="#11616E" stop-opacity="0"/><stop offset="0.97" stop-color="#11616E" stop-opacity="0"/><stop offset="1" stop-color="#11616E"/></linearGradient><linearGradient x1="29" y1="373.5" x2="598" y2="373.5" gradientUnits="userSpaceOnUse" spreadMethod="reflect" id="fill22"><stop offset="0" stop-color="#57CFEE" stop-opacity="0"/><stop offset="0.95" stop-color="#57CFEE" stop-opacity="0"/><stop offset="1" stop-color="#57CFEE"/></linearGradient><linearGradient x1="314" y1="659" x2="314" y2="89" gradientUnits="userSpaceOnUse" spreadMethod="reflect" id="fill23"><stop offset="0" stop-color="#0071D5" stop-opacity="0"/><stop offset="0.09" stop-color="#0071D5" stop-opacity="0"/><stop offset="0.43" stop-color="#0071D5" stop-opacity="0.788235"/><stop offset="0.58" stop-color="#3596DF" stop-opacity="0"/><stop offset="0.87" stop-color="#4DA6E4" stop-opacity="0"/><stop offset="0.93" stop-color="#ADE7F7"/><stop offset="0.99" stop-color="#ADE7F7" stop-opacity="0"/><stop offset="1" stop-color="#ADE7F7" stop-opacity="0"/></linearGradient></defs><g clip-path="url(#clip0)" transform="translate(-28 -88)"><path d="M102.548 89 525.452 89C566.071 89 599 121.871 599 162.419L599 584.581C599 625.129 566.071 658 525.452 658L102.548 658C61.9287 658 29 625.129 29 584.581L29 162.419C29 121.871 61.9287 89 102.548 89ZM102.548 125.71C82.2385 125.71 65.7741 142.145 65.7741 162.419L65.7741 584.581C65.7741 604.855 82.2385 621.29 102.548 621.29L525.452 621.29C545.761 621.29 562.226 604.855 562.226 584.581L562.226 162.419C562.226 142.145 545.761 125.71 525.452 125.71L102.548 125.71Z" fill="url(#fill1)" fill-rule="evenodd"/><path d="M101.676 125.524C82.1094 125.524 66.2475 141.386 66.2475 160.953L66.2475 587.047C66.2475 606.614 82.1094 622.476 101.676 622.476L526.324 622.476C545.891 622.476 561.753 606.614 561.753 587.047L561.753 160.953C561.753 141.386 545.891 125.524 526.324 125.524ZM101.208 89 526.792 89C566.672 89 599 121.328 599 161.208L599 586.792C599 626.672 566.672 659 526.792 659L101.208 659C61.3284 659 29 626.672 29 586.792L29 161.208C29 121.328 61.3284 89 101.208 89Z" fill="url(#fill2)" fill-rule="evenodd"/><path d="M286 475 488 475 488 511 286 511 286 475Z" fill="url(#fill3)" fill-rule="evenodd"/><rect x="286" y="475" width="202" height="36" fill="url(#fill4)"/><path d="M0 3 3.02381 0 198.976 0 202 3Z" fill="#6FBCF7" fill-rule="evenodd" transform="matrix(1 0 0 -1 286 478)"/><path d="M488 511 484 507.032 484 478.968 488 475Z" fill="#56C2FA" fill-rule="evenodd"/><path d="M286 511 289.036 508 484.964 508 488 511Z" fill="#003971" fill-rule="evenodd"/><path d="M0 4 3.97637 0 33.0236 0 37 4Z" fill="#00396D" fill-rule="evenodd" transform="matrix(-6.12323e-17 -1 -1 6.12323e-17 290 512)"/><path d="M101.4 125.776C81.7262 125.776 65.7777 141.711 65.7777 161.367L65.7777 585.55C65.7777 605.206 81.7262 621.141 101.4 621.141L525.18 621.141C544.853 621.141 560.802 605.206 560.802 585.55L560.802 161.367C560.802 141.711 544.853 125.776 525.18 125.776ZM101.184 122 525.816 122C547.457 122 565 139.528 565 161.149L565 585.851C565 607.472 547.457 625 525.816 625L101.184 625C79.5431 625 62 607.472 62 585.851L62 161.149C62 139.528 79.5431 122 101.184 122Z" fill="url(#fill5)" fill-rule="evenodd"/><path d="M288 236 448.222 236C473.505 236 494 256.512 494 281.814L494 433 452.8 433 452.8 286.395C452.8 278.805 446.651 272.651 439.067 272.651L411.6 272.651 411.6 433 370.4 433 370.4 272.651 329.2 272.651 329.2 433 288 433 288 236Z" fill="url(#fill6)" fill-rule="evenodd"/><path d="M288 236 448.222 236C473.505 236 494 256.616 494 282.047L494 434 452.8 434 452.8 286.651C452.8 279.022 446.651 272.837 439.067 272.837L411.6 272.837 411.6 434 370.4 434 370.4 272.837 329.2 272.837 329.2 434 288 434 288 236Z" fill="url(#fill7)" fill-rule="evenodd"/><path d="M288 236 450.027 236C463.003 236.75 474.41 242.854 480.984 249.477 487.559 256.1 493.784 268.168 493.96 278.73 494.056 330.153 493.904 381.577 494 433L490.233 429.185 490.08 281.905C490.098 268.091 484.878 258.318 478.383 252.044 471.888 245.769 462.022 240.07 449.617 239.77L291.813 239.77 288 236Z" fill="url(#fill8)" fill-rule="evenodd"/><path d="M370 433 373.036 430 407.964 430 411 433Z" fill="#00305B" fill-rule="evenodd"/><path d="M453 434 457.048 430 489.952 430 494 434Z" fill="#00305B" fill-rule="evenodd"/><path d="M287 433 290.036 430 325.964 430 329 433Z" fill="#00245B" fill-rule="evenodd"/><path d="M0 4 4.04791 0 44.9521 0 49 4Z" fill="#005669" fill-rule="evenodd" transform="matrix(1 0 0 -1 325 273)"/><path d="M407 269.092 439.996 269C449.856 269.519 456.71 277.198 457 285.683L457 430.061 453.154 434C453.232 384.318 453.311 334.635 453.389 284.953 452.88 279.637 446.742 273.115 440.56 272.866L424.594 272.866 424.594 272.865 410.892 272.865 407 269.092Z" fill="url(#fill9)" fill-rule="evenodd"/><path d="M411 433 408 429.869 408 269 411 272.131Z" fill="url(#fill10)" fill-rule="evenodd"/><path d="M0 4 4.17497 0 164 0 159.825 4Z" fill="url(#fill11)" fill-rule="evenodd" transform="matrix(-6.12323e-17 -1 -1 6.12323e-17 374 433)"/><path d="M329 433 325 428.825 325 269 329 273.175Z" fill="url(#fill12)" fill-rule="evenodd"/><path d="M288 236 291 239.036 291 429.964 288 433Z" fill="url(#fill13)" fill-rule="evenodd"/><path d="M103.215 92.8065C64.5442 92.8065 33.1951 124.156 33.1951 162.827L33.1951 584.173C33.1951 622.844 64.5442 654.194 103.215 654.194L523.785 654.194C562.456 654.194 593.805 622.844 593.805 584.173L593.805 162.827C593.805 124.156 562.456 92.8065 523.785 92.8065ZM102.646 89 524.354 89C565.028 89 598 121.972 598 162.646L598 584.354C598 625.028 565.028 658 524.354 658L102.646 658C61.9722 658 29 625.028 29 584.354L29 162.646C29 121.972 61.9722 89 102.646 89Z" fill="url(#fill14)" fill-rule="evenodd"/><path d="M180.926 236 259 236 259 443C259 481.108 224.045 512 180.926 512L157.963 512 157.963 475.2 180.926 475.2C201.217 475.2 217.667 460.784 217.667 443L217.667 433.8 180.926 433.8C155.562 433.8 135 413.205 135 387.8L135 282C135 256.595 155.562 236 180.926 236ZM190.111 272.8C182.502 272.8 176.333 278.978 176.333 286.6L176.333 383.2C176.333 390.821 182.502 397 190.111 397L217.667 397 217.667 272.8 190.111 272.8Z" fill="url(#fill15)" fill-rule="evenodd"/><path d="M157 474.213 183.567 474.213C192.995 473.314 216.94 467.88 217.084 441.52 217.229 436.697 217.252 436.803 217.084 433.005 218.108 431.939 219.447 431.266 220.852 430 220.894 436.094 221.163 437.193 220.852 442.772 220.289 468.887 195.381 478.097 183.567 477.999L157 477.999 157 474.213Z" fill="url(#fill16)" fill-rule="evenodd"/><path d="M259 431.686 259 434 256.685 434 259 431.686ZM180.864 236 259 236 259 239.851 183.132 239.851C158.906 239.851 139.268 259.486 139.268 283.707L139.268 386.65C139.268 410.871 158.906 430.506 183.132 430.506L221.218 430.506 217.973 434C205.603 434 193.234 434 180.864 434 155.534 434 135 413.47 135 388.144L135 281.855C135 256.53 155.534 236 180.864 236Z" fill="url(#fill17)" fill-rule="evenodd"/><path d="M258.998 236 258.998 439.69C259.317 485.6 216.223 510.802 183.607 510.803L158 511 160.903 507.061 183.607 507.061C221.951 506.036 254.057 477.317 255.226 439.615L255.226 239.817 258.998 236Z" fill="url(#fill18)" fill-rule="evenodd"/><path d="M0 4 3.97638 0 32.0236 0 36 4Z" fill="#1E516D" fill-rule="evenodd" transform="matrix(-6.12323e-17 -1 -1 6.12323e-17 161 511)"/><path d="M189.689 272.784C182.146 272.784 176.03 278.907 176.03 286.46L176.03 383.476C176.03 391.029 182.146 397.152 189.689 397.152L217.221 397.152 217.221 272.784ZM188.248 269 221 269 221 401 188.248 401C179.275 401 172 393.716 172 384.731L172 285.269C172 276.284 179.275 269 188.248 269Z" fill="url(#fill19)" fill-rule="evenodd"/><rect x="217" y="302" width="4" height="30" fill="#4472C4"/><path d="M0 4 4.04791 0 126.952 0 131 4Z" fill="url(#fill20)" fill-rule="evenodd" transform="matrix(1.83697e-16 1 1 -1.83697e-16 217 269)"/><path d="M101.4 125.776C81.7262 125.776 65.7777 141.711 65.7777 161.367L65.7777 585.55C65.7777 605.206 81.7262 621.141 101.4 621.141L525.18 621.141C544.853 621.141 560.802 605.206 560.802 585.55L560.802 161.367C560.802 141.711 544.853 125.776 525.18 125.776ZM101.184 122 525.816 122C547.457 122 565 139.528 565 161.149L565 585.851C565 607.472 547.457 625 525.816 625L101.184 625C79.5431 625 62 607.472 62 585.851L62 161.149C62 139.528 79.5431 122 101.184 122Z" fill="url(#fill21)" fill-rule="evenodd"/><path d="M103.215 92.8065C64.5442 92.8065 33.1951 124.156 33.1951 162.827L33.1951 584.173C33.1951 622.844 64.5442 654.194 103.215 654.194L523.785 654.194C562.456 654.194 593.805 622.844 593.805 584.173L593.805 162.827C593.805 124.156 562.456 92.8065 523.785 92.8065ZM102.646 89 524.354 89C565.028 89 598 121.972 598 162.646L598 584.354C598 625.028 565.028 658 524.354 658L102.646 658C61.9722 658 29 625.028 29 584.354L29 162.646C29 121.972 61.9722 89 102.646 89Z" fill="url(#fill22)" fill-rule="evenodd"/><path d="M103.346 92.8132C64.6067 92.8132 33.2024 124.217 33.2024 162.956L33.2024 585.044C33.2024 623.783 64.6067 655.187 103.346 655.187L524.654 655.187C563.393 655.187 594.798 623.783 594.798 585.044L594.798 162.956C594.798 124.217 563.393 92.8132 524.654 92.8132ZM102.775 89 525.225 89C565.97 89 599 122.03 599 162.775L599 585.225C599 625.97 565.97 659 525.225 659L102.775 659C62.0302 659 29 625.97 29 585.225L29 162.775C29 122.03 62.0302 89 102.775 89Z" fill="url(#fill23)" fill-rule="evenodd"/></g></svg>