<svg xmlns="http://www.w3.org/2000/svg" viewBox="0 0 49.13 7.214"><defs><clipPath id="b"><path d="M0 0h595.277v841.89H0Zm0 0"/></clipPath><clipPath id="a"><path d="M0 0h596v842H0z"/></clipPath><clipPath id="d"><path d="M0 0h491v491H0z"/></clipPath><filter height="1" width="1" y="0" x="0" filterUnits="objectBoundingBox" id="c"><feColorMatrix values="0 0 0 0 1 0 0 0 0 1 0 0 0 0 1 0 0 0 1 0" in="SourceGraphic"/></filter></defs><path d="M229.494 305.144v1.828h-2.072v-1.828h-1.143v4.798h1.143v-1.93h2.072v1.93h1.143v-4.798zM234.822 305.144l-1.195 1.9-1.193-1.9h-1.348l1.972 3.136v1.662h1.141v-1.662l1.972-3.136zM239.843 305.144v3.516c0 .134-.1.241-.242.241h-1.83v-3.757h-1.143v4.798h3.375c.3 0 .542-.09.718-.265.175-.176.263-.417.263-.716v-3.817zM245.418 305.144h-3.375v4.798h1.14v-3.76h1.834c.147 0 .24.116.24.24v3.52h1.142v-3.817c0-.3-.09-.542-.263-.717-.178-.176-.418-.264-.718-.264M250.832 305.144h-3.375v4.798h3.375c.3 0 .54-.09.715-.265.176-.176.265-.417.265-.716v-2.836c0-.3-.089-.542-.265-.717-.175-.176-.416-.264-.715-.264m-.161 1.287v2.222a.24.24 0 0 1-.243.248h-1.831v-2.718h1.823c.15 0 .25.104.25.248M253.802 305.144c-.3 0-.542.088-.717.264-.176.176-.263.418-.263.717v3.817h1.138v-1.484h2.074v1.484h1.141v-4.798zm2.232 1.039v1.236h-2.074v-.993c0-.118.092-.243.244-.243zM258.286 309.942h1.142v-4.798h-1.142zM217.354 310.884c3.605 0 6.528-1.496 6.528-3.341 0-1.847-2.923-3.343-6.528-3.343-3.604 0-6.527 1.496-6.527 3.343 0 1.845 2.923 3.341 6.527 3.341m1.229-1.64c-.109.253-.296.792-.726 1.007a1.11 1.11 0 0 1-.436.1h-.066c-1.204 0-2.326-.168-3.264-.453l-.036-.014c-.087-.029-.131-.069-.131-.119 0-.042.023-.075.054-.106l.059-.052c.218-.18.87-.653 2.099-1.125.43-.164.971-.369 1.536-.489.33-.069 1.56-.257.911 1.252m3.298-3.37c.023-.04.053-.074.11-.077.03-.003.072.004.135.044.766.471 1.22 1.061 1.22 1.7 0 1.151-1.48 2.142-3.6 2.575-.135.027-.226.026-.256-.008-.022-.02-.028-.058 0-.104a.443.443 0 0 1 .056-.078c1.154-1.36 2.033-3.367 2.282-3.946.02-.04.038-.08.053-.106m-5.736-.042c.11-.252.297-.791.727-1.005.13-.065.292-.096.435-.1h.065c1.206 0 2.326.166 3.266.453.007.003.029.01.036.014.086.029.13.069.13.118 0 .043-.023.075-.053.105-.014.014-.033.03-.06.052-.216.182-.87.654-2.098 1.125-.433.165-.972.37-1.535.489-.333.07-1.562.258-.913-1.251m-1.183-.867c.136-.026.226-.026.259.008.019.022.024.058-.001.103a.484.484 0 0 1-.057.078c-1.153 1.361-2.032 3.366-2.283 3.946-.018.04-.037.08-.053.106-.022.04-.053.075-.109.078-.03.003-.073-.006-.136-.045-.766-.47-1.22-1.06-1.22-1.699 0-1.152 1.48-2.143 3.6-2.575" style="fill:#002e6b;fill-opacity:1;fill-rule:nonzero;stroke:none;stroke-width:.35277778" transform="translate(-210.563 -303.935)"/></svg>