<svg xmlns="http://www.w3.org/2000/svg" viewBox="0 0 300 144.05"><path style="fill:#231f20;fill-opacity:1;fill-rule:nonzero;stroke:none" d="M0 0v-9.364S-3.094-.588-3.165-.358C-3.24-.124-3.409 0-3.727 0h-2.951v-11.4h1.992v9.24s3.047-8.657 3.125-8.882c.067-.228.263-.358.52-.358h3.032V0H0Z" transform="matrix(2.95884 0 0 -2.95884 54.152 109.32)"/><path style="fill:#231f20;fill-opacity:1;fill-rule:nonzero;stroke:none" d="M0 0v-11.4h2.342l-.004 4.851h4.219v2.084l-4.215-.006v2.373h4.279V0H0Z" transform="matrix(2.95884 0 0 -2.95884 85.137 109.32)"/><path style="fill:#231f20;fill-opacity:1;fill-rule:nonzero;stroke:none" d="M0 0v-2.192h2.615v-9.207h2.381v9.207h2.61V0H0Z" transform="matrix(2.95884 0 0 -2.95884 245.354 109.32)"/><path style="fill:#231f20;fill-opacity:1;fill-rule:nonzero;stroke:none" d="M361.972 809.1h7.46v-33.716h-7.46V809.1zM446.941 809.1h7.463v-33.716h-7.463V809.1zM524.43 809.1h7.427v-33.716h-7.427V809.1zM233.857 809.1h7.462v-33.716h-7.462V809.1z" transform="translate(-232.857 -666.051)"/><path style="fill:#231f20;fill-opacity:1;fill-rule:nonzero;stroke:none" d="M0 0h-1.991v-9.364S-5.083-.588-5.157-.358c-.076.234-.245.358-.555.358h-2.957v-11.4h1.988v9.24s3.055-8.657 3.126-8.882c.072-.228.269-.358.519-.358H0V0Z" transform="matrix(2.95884 0 0 -2.95884 188.309 109.32)"/><path style="fill:#231f20;fill-opacity:1;fill-rule:nonzero;stroke:none" d="M0 0c-.961 1.245-10.321 13.861-10.321 13.861S-19.717 1.138-20.615-.028c-3.47.296-9.5 2.611-9.5 6.628 0 5.108 8.755 9.839 19.794 9.839 11.593 0 19.796-4.731 19.796-9.839 0-4.017-6-6.304-9.475-6.6m-10.321 17.898c-14.258 0-24.182-5.569-24.182-12.782 0-3.365 2.17-7.172 6.775-9.461 4.274-2.123 10.312-2.863 11.184-2.97l6.223 18.338 6.287-18.338c.869.107 6.852.847 11.127 2.97 4.602 2.289 6.773 6.096 6.773 9.461 0 7.213-9.927 12.782-24.187 12.782" transform="matrix(2.95884 0 0 -2.95884 180.541 53.957)"/></svg>