<?xml version="1.0" encoding="UTF-8" standalone="no"?>
<svg
   xmlns:dc="http://purl.org/dc/elements/1.1/"
   xmlns:cc="http://creativecommons.org/ns#"
   xmlns:rdf="http://www.w3.org/1999/02/22-rdf-syntax-ns#"
   xmlns:svg="http://www.w3.org/2000/svg"
   xmlns="http://www.w3.org/2000/svg"
   version="1.1"
   id="svg3914"
   viewBox="0 0 300 144.05028"
   height="144.05028"
   width="300">
  <defs
     id="defs3916" />
  <metadata
     id="metadata3919">
    <rdf:RDF>
      <cc:Work
         rdf:about="">
        <dc:format>image/svg+xml</dc:format>
        <dc:type
           rdf:resource="http://purl.org/dc/dcmitype/StillImage" />
        <dc:title></dc:title>
      </cc:Work>
    </rdf:RDF>
  </metadata>
  <g
     transform="translate(-232.85714,-666.05135)"
     id="layer1">
    <g
       transform="matrix(2.9588443,0,0,-2.9588443,287.00923,775.3708)"
       id="g3610">
      <path
         id="path3612"
         style="fill:#231f20;fill-opacity:1;fill-rule:nonzero;stroke:none"
         d="m 0,0 0,-9.364 c 0,0 -3.094,8.776 -3.165,9.006 C -3.24,-0.124 -3.409,0 -3.727,0 l -2.951,0 0,-11.4 1.992,0 0,9.24 c 0,0 3.047,-8.657 3.125,-8.882 0.067,-0.228 0.263,-0.358 0.52,-0.358 l 3.032,0 0,11.4 L 0,0 Z" />
    </g>
    <g
       transform="matrix(2.9588443,0,0,-2.9588443,317.99454,775.3708)"
       id="g3614">
      <path
         id="path3616"
         style="fill:#231f20;fill-opacity:1;fill-rule:nonzero;stroke:none"
         d="m 0,0 0,-11.4 2.342,0 c 0,0 -0.004,4.604 -0.004,4.851 l 4.219,0 0,2.084 -4.215,-0.006 0,2.373 4.279,0 L 6.621,0 0,0 Z" />
    </g>
    <g
       transform="matrix(2.9588443,0,0,-2.9588443,478.21126,775.3705)"
       id="g3618">
      <path
         id="path3620"
         style="fill:#231f20;fill-opacity:1;fill-rule:nonzero;stroke:none"
         d="m 0,0 0,-2.192 2.615,0 0,-9.207 2.381,0 0,9.207 2.61,0 L 7.606,0 0,0 Z" />
    </g>
    <path
       id="path3622"
       style="fill:#231f20;fill-opacity:1;fill-rule:nonzero;stroke:none"
       d="m 361.97214,809.09955 7.45925,0 0,-33.71603 -7.45925,0 0,33.71603 z" />
    <path
       id="path3624"
       style="fill:#231f20;fill-opacity:1;fill-rule:nonzero;stroke:none"
       d="m 446.94127,809.09955 7.46225,0 0,-33.71603 -7.46225,0 0,33.71603 z" />
    <path
       id="path3626"
       style="fill:#231f20;fill-opacity:1;fill-rule:nonzero;stroke:none"
       d="m 524.43039,809.09955 7.42675,0 0,-33.71603 -7.42675,0 0,33.71603 z" />
    <path
       id="path3628"
       style="fill:#231f20;fill-opacity:1;fill-rule:nonzero;stroke:none"
       d="m 233.85714,809.09955 7.4622,0 0,-33.71603 -7.4622,0 0,33.71603 z" />
    <g
       transform="matrix(2.9588443,0,0,-2.9588443,421.16564,775.3708)"
       id="g3630">
      <path
         id="path3632"
         style="fill:#231f20;fill-opacity:1;fill-rule:nonzero;stroke:none"
         d="m 0,0 -1.991,0 0,-9.364 c 0,0 -3.092,8.776 -3.166,9.006 C -5.233,-0.124 -5.402,0 -5.712,0 l -2.957,0 0,-11.4 1.988,0 0,9.24 c 0,0 3.055,-8.657 3.126,-8.882 0.072,-0.228 0.269,-0.358 0.519,-0.358 L 0,-11.4 0,0 Z" />
    </g>
    <g
       transform="matrix(2.9588443,0,0,-2.9588443,413.39839,720.00875)"
       id="g3634">
      <path
         id="path3636"
         style="fill:#231f20;fill-opacity:1;fill-rule:nonzero;stroke:none"
         d="m 0,0 c -0.961,1.245 -10.321,13.861 -10.321,13.861 0,0 -9.396,-12.723 -10.294,-13.889 -3.47,0.296 -9.5,2.611 -9.5,6.628 0,5.108 8.755,9.839 19.794,9.839 C 1.272,16.439 9.475,11.708 9.475,6.6 9.475,2.583 3.475,0.296 0,0 m -10.321,17.898 c -14.258,0 -24.182,-5.569 -24.182,-12.782 0,-3.365 2.17,-7.172 6.775,-9.461 4.274,-2.123 10.312,-2.863 11.184,-2.97 l 6.223,18.338 6.287,-18.338 c 0.869,0.107 6.852,0.847 11.127,2.97 4.602,2.289 6.773,6.096 6.773,9.461 0,7.213 -9.927,12.782 -24.187,12.782" />
    </g>
  </g>
</svg>
