<svg xmlns="http://www.w3.org/2000/svg" overflow="visible" xml:space="preserve" viewBox="0 0 168.929 37.216"><g fill-rule="evenodd" clip-rule="evenodd" fill="#003A80"><path d="M149.326 8.883c2.757.153 4.747 2.144 5.054 4.748.153 1.378.153 3.522.153 4.9 0 1.685 0 3.063-.153 4.441-.46 3.217-2.757 5.055-5.054 5.055h-3.983c-2.144 0-4.595-1.838-5.054-5.055-.153-1.378-.153-2.757-.153-4.288s0-3.675.153-5.054c.306-2.604 2.45-4.595 5.207-4.748.612-.153 1.072-.153 1.838-.153l1.992.154zM147.793 0c2.91 0 5.667.153 7.965.459 6.432.766 11.64 5.82 12.711 12.1.153 1.072.46 3.522.46 5.973 0 2.604-.307 5.054-.46 5.973-1.071 6.433-6.279 11.334-12.711 12.253-2.298.153-5.055.459-7.965.459h-.919c-3.063 0-5.666-.306-8.117-.459-6.432-.919-11.486-5.82-12.559-12.253-.153-.919-.459-3.369-.459-5.973 0-2.45.306-4.9.459-5.973 1.072-6.28 6.127-11.333 12.559-12.1C141.208.153 143.812 0 146.721 0h1.072zM92.505 18.531c0-1.991.153-3.981.612-5.973 1.072-6.28 6.126-11.333 12.559-12.1C107.974.153 110.731 0 113.64 0c3.217 0 6.127.153 8.577.459.919.153 1.531.919 1.531 1.838V7.81c0 1.072-.766 1.838-1.685 1.838 0 0-2.91-.154-4.441-.154-1.838 0-3.369 0-5.055.154-2.756.153-4.747 2.144-5.054 4.748-.153 1.378-.307 2.757-.307 4.135v.153c0 1.379.153 2.757.307 4.135.307 2.604 2.145 4.595 5.054 4.901 1.532.153 3.37.307 5.055.307 1.531 0 4.441-.153 4.441-.153.919 0 1.685.766 1.685 1.838v5.514c0 .919-.612 1.685-1.531 1.838-2.45 0-5.36.152-8.577.152-2.909 0-5.666-.306-7.964-.459-6.433-.919-11.486-5.82-12.559-12.253-.459-1.837-.612-3.828-.612-5.819v-.154zM88.371 27.567c1.071 0 1.837.919 1.837 1.838v5.514c0 1.072-.766 1.838-1.837 1.838H66.469a7.19 7.19 0 0 1-7.198-7.198V7.811A7.19 7.19 0 0 1 66.469.613H88.37c1.071 0 1.837.766 1.837 1.685v5.36c0 1.073-.766 1.838-1.837 1.838H74.893c-1.072 0-1.838.613-1.838 1.685v3.37l11.487-.153c.918 0 1.837.919 1.837 1.838v4.595c0 1.072-.919 1.838-1.837 1.838H73.055v3.063c0 1.072.766 1.838 1.838 1.838h13.478v-.003zM32.622 36.757c-3.216 0-5.973-2.145-6.892-5.055L18.226 2.757v-.459c0-.919.766-1.685 1.838-1.685h11.18c.919 0 1.685.613 1.837 1.378l5.82 24.199c0 .307.307.612.766.612.306 0 .612-.306.612-.612l5.973-24.199c.153-.766.919-1.378 1.685-1.378h6.279c1.072 0 1.838.766 1.838 1.685v.459l-7.198 28.334c-.766 3.216-3.37 5.666-7.045 5.666h-9.189zM1.838.612h10.874c1.072 0 1.838.766 1.838 1.685v32.622c0 1.072-.766 1.838-1.838 1.838H1.838C.919 36.757 0 35.991 0 34.919V2.297C0 1.378.919.612 1.838.612z"/></g></svg>