<svg xmlns="http://www.w3.org/2000/svg" viewBox="0 0 578.346 259.816"><path d="M567.295 259.584c-4.754-.106-8.881-.342-9.172-.525-.541-.341-13.364-9.554-17.815-12.8l-2.47-1.8-10.48-.148c-5.765-.08-10.672-.03-10.906.115-.319.197-.368 1.925-.199 6.98.184 5.484.135 6.808-.265 7.208-.347.347-1.96.557-5.547.72-8.374.384-9.388.337-9.809-.448-.24-.448-.365-7.762-.365-21.3 0-17.61.078-20.804.534-21.895l.534-1.278 28.13.006c30.581.007 30.83.021 34.835 1.983 2.577 1.261 5.176 4.092 6.191 6.743.962 2.512 1.319 8.146.703 11.112-1.064 5.126-5.404 8.367-12.013 8.97-4.192.382-5.163-.498 12.657 11.469 2.402 1.613 4.849 3.325 5.438 3.806l1.07.873-.851.238c-.468.13-1.01.22-1.204.2-.194-.021-4.242-.124-8.996-.23zM555.01 238.52a6.293 6.293 0 0 0 2.64-2.256c.888-1.343 1-1.855 1.111-5.059.112-3.222.043-3.716-.725-5.151-1.12-2.096-3.308-3.73-5.638-4.212-1.233-.255-7.69-.353-19.146-.291l-17.286.093.132 8.467c.072 4.656.204 8.546.293 8.643.226.246 17.19.582 27.974.553 8.447-.022 9.096-.07 10.645-.787zm-218.96 20.434c-11.93-.57-21.229-2.697-26.323-6.023-4.311-2.814-6.967-6.434-7.88-10.738-.605-2.852-.93-28.99-.373-29.893.345-.557 15.518-.478 15.97.084.22.274.369 5.096.393 12.768.04 13.081.082 13.706 1.128 16.851 1.527 4.594 4.259 7.467 8.962 9.425 5.166 2.15 6.283 2.319 15.354 2.319 9.542 0 11.36-.309 16.26-2.762 2.446-1.224 3.25-1.856 4.792-3.764 2.135-2.644 3.175-5.146 3.592-8.644.162-1.358.22-7.339.128-13.291s-.062-11.24.066-11.75l.232-.926 7.721.107c4.247.06 7.836.223 7.976.363.14.14.327 5.867.415 12.725.18 14.005-.107 16.943-2.038 20.934-1.188 2.454-4.846 6.162-7.412 7.514-2.259 1.19-8.444 3.03-12.334 3.669-6.608 1.086-17.037 1.49-26.63 1.032zm130.305-1.415c-.686-.727-2.444-2.751-3.907-4.498-1.463-1.746-2.99-3.47-3.392-3.83-.692-.619-1.994-.664-24.389-.844l-23.658-.19-1.85 1.955a311.332 311.332 0 0 0-4.49 4.902c-2.44 2.722-2.763 2.96-4.234 3.123-2.386.264-7.412-.003-7.412-.395 0-.189 1.627-2.211 3.616-4.494 1.989-2.284 5.918-6.83 8.731-10.102 2.813-3.273 5.353-6.204 5.645-6.514.29-.31 1.229-1.433 2.085-2.494.855-1.062 1.808-2.17 2.116-2.46.309-.293 1.034-1.166 1.613-1.941.579-.776 1.849-2.309 2.822-3.407a329.576 329.576 0 0 0 4.064-4.709 455.312 455.312 0 0 1 4.744-5.5l2.451-2.787 5.486.035c3.018.02 6.787.138 8.376.264l2.89.23 3.637 4.305c2 2.368 4.748 5.671 6.106 7.34a226.184 226.184 0 0 0 4.5 5.346c1.117 1.271 2.466 2.92 2.999 3.662.839 1.172 2.106 2.726 5.484 6.723.426.505 1.648 1.99 2.715 3.3a761.101 761.101 0 0 0 3.888 4.727c1.072 1.29 2.206 2.741 2.52 3.226.315.485 1.463 1.902 2.55 3.149 1.088 1.247 1.979 2.477 1.979 2.734 0 .374-1.633.467-8.22.467h-8.218l-1.247-1.323zm-12.385-14.218c.06-.302-.651-1.44-1.58-2.528-.928-1.09-2.8-3.342-4.157-5.007a533.775 533.775 0 0 0-4.63-5.585c-1.188-1.408-3.41-4.055-4.939-5.882-3.786-4.525-3.682-4.484-5.704-2.26-3.473 3.822-5.493 6.183-6.52 7.621-.584.819-1.317 1.736-1.63 2.039-.311.302-1.122 1.24-1.801 2.084-.68.843-1.473 1.79-1.764 2.103-.291.312-1.402 1.592-2.47 2.843a313.32 313.32 0 0 1-2.568 2.981c-.345.39-.581.95-.524 1.247.09.47 1.945.562 14.386.716 22.762.28 23.776.265 23.901-.372zm-216.622 13.73c-10.482-.32-19.253-1.226-23.713-2.45-2.73-.75-6.763-2.34-7.584-2.99-.291-.231-1.131-.7-1.867-1.041-1.703-.791-5.298-4.745-6.458-7.104-2.403-4.882-2.496-14.833-.185-19.686 1.51-3.169 4.02-5.733 7.49-7.652 7.634-4.22 14.985-5.096 41.942-4.995 20.267.075 31.784.353 32.21.778.156.155.235 1.218.176 2.362l-.107 2.08-9.172-.003c-5.045 0-15.681-.057-23.636-.124-16.079-.135-18.661.09-23.486 2.054-2.472 1.006-2.957 1.334-5.738 3.886-3.255 2.987-5.017 9.526-3.938 14.617 1.054 4.974 3.003 7.932 6.9 10.473 5.578 3.636 9.143 4.142 29.704 4.224 10.695.042 14.151-.048 14.553-.381.433-.36.526-1.643.526-7.26 0-6.395.043-6.847.685-7.19.638-.342 14.678-.184 15.807.178.69.22.633 19.673-.06 20.248-.533.442-29.28.427-44.05-.024zm-67.81-.565a4.411 4.411 0 0 1-1.258-.577c-.62-.447-5.85-6.346-7.224-8.149-.492-.644-1.324-1.334-1.85-1.533-.603-.228-10.349-.436-26.359-.562-24.847-.195-25.427-.184-26.547.496-.629.383-1.144.85-1.144 1.04 0 .188-1.195 1.659-2.655 3.268a563.147 563.147 0 0 0-3.474 3.854c-.45.51-1.15 1.106-1.555 1.323-.93.498-8.77.53-9.075.037-.121-.196 1.288-2.061 3.131-4.145 1.844-2.083 4.658-5.296 6.254-7.14a414.334 414.334 0 0 1 4.873-5.528 252.607 252.607 0 0 0 3.587-4.057 410.193 410.193 0 0 1 4.586-5.188c1.634-1.82 3.363-3.804 3.842-4.41.479-.606 1.617-1.895 2.529-2.865.912-.97 2.023-2.24 2.469-2.823.937-1.223 8.386-9.391 8.933-9.796.368-.271 13.372-.259 16.476.016 1.613.142 2.206.509 3.63 2.24 1.185 1.443 9.724 11.324 11.617 13.444a673.858 673.858 0 0 1 4.275 4.856c1.358 1.558 3.502 4.003 4.763 5.432 1.26 1.43 3.35 3.848 4.641 5.374 1.292 1.527 4.73 5.553 7.641 8.947 2.911 3.393 5.219 6.29 5.128 6.438-.18.291-16.081.298-17.234.008zm-15.467-15.809c.216-.562-1.123-2.456-3.477-4.922-.927-.97-1.952-2.16-2.279-2.646-.327-.485-1.468-1.785-2.537-2.89-1.068-1.105-2.096-2.284-2.284-2.62-.188-.335-.7-.94-1.14-1.342-.438-.403-2.416-2.637-4.394-4.966-1.979-2.328-3.83-4.366-4.115-4.53-.953-.545-2.04.128-4.058 2.514a518.441 518.441 0 0 1-5.585 6.426c-1.97 2.231-4.414 5.01-5.433 6.174-1.018 1.164-3.01 3.44-4.427 5.057-3.853 4.4-4.993 4.095 15.786 4.21 9.452.053 17.82.132 18.596.177 2.656.152 5.158-.148 5.347-.642zM12.935 255.43C4.84 255.36.82 255.2.5 254.935c-.722-.6-.64-4.762.102-5.177.335-.188 8.287-.249 19.138-.147 19.594.184 22.539.034 27.384-1.387 2.681-.786 6.532-2.7 7.938-3.946 1.042-.924 3.528-3.95 3.528-4.295 0-.243.555-1.591 1.45-3.521.387-.837.5-3.804.542-14.175.029-7.214.165-13.299.303-13.522.33-.533 15.875-.382 16.602.162.41.307.499 2.602.511 13.247.016 13.65-.148 15.62-1.62 19.473-.76 1.987-1.379 2.869-3.418 4.864-3.503 3.427-7.202 5.255-14.238 7.034-6.282 1.588-19.11 2.116-45.787 1.885zm487.16-64.48c-3.893-1.373-6.858-3.684-15.203-11.85-4.285-4.194-8.968-8.452-10.407-9.462-5.38-3.78-10.579-6.146-16.478-7.502-3.146-.724-20.42-.568-29.177.263-9.491.9-21.67.923-26.106.048-4.252-.839-9.304-2.414-12.72-3.966-7.05-3.202-14.669-9.657-20.22-17.133-3.775-5.083-4.013-5.47-10.598-17.2-1.783-3.176-3.67-6.314-4.193-6.973-2.71-3.412-9.179-7.324-14.16-8.561-3.63-.902-8.582-.966-15.72-.206-12.432 1.325-24.6 2.003-32.808 1.827-12.352-.264-20.387-1.485-30.162-4.582l-3.703-1.173-1.87 1.524c-2.459 2.002-4.652 3.084-8.24 4.061-2.598.708-3.713.799-9.471.768-10.037-.053-14.691-1.174-34.749-8.366-13.073-4.688-26.583-9.53-30.296-10.858-3.851-1.378-6.075-1.678-7.741-1.044-1.665.632-3.473 2.626-4.83 5.325-3.317 6.597-8.707 11.444-15.419 13.865-3.586 1.294-5.398 1.49-6.843.744-8.26-4.27-10.628-12.056-6.284-20.664 3.701-7.334 10.69-14.624 17.68-18.444 3.23-1.766 5.473-2.569 9.364-3.355 4.462-.901 15.368-2.495 17.075-2.495.728 0 1.402-.127 1.498-.283.096-.155-1.151-1.259-2.772-2.453-7.678-5.655-13.649-8.71-20.535-10.505-6.988-1.823-13.464-.924-21.528 2.986-5.897 2.86-9.125 5.687-13.81 12.095-1.379 1.885-2.939 3.71-3.467 4.057-2.17 1.421-7.571.33-12.59-2.544-3.15-1.803-3.49-2.608-2.207-5.23l.904-1.846-.694-2.229c-.381-1.225-.61-2.361-.51-2.525.101-.163.915.027 1.81.422 3.259 1.442 4.996.809 7.219-2.631 1.63-2.521 2.208-5.093 2.008-8.917-.269-5.11-2.422-8.203-5.95-8.542-3.557-.342-6.462 2.26-8.134 7.283-.936 2.812-.765 5.346.559 8.301 1.23 2.749 1.064 3.16-1.03 2.529-.883-.266-2.146-.802-2.807-1.192-1.125-.664-1.302-.675-2.733-.181-4.143 1.43-9.78-1.974-12.636-7.63-.608-1.205-1.746-2.885-2.529-3.734-3.245-3.522-1.96-6.794 5.853-14.898l4.028-4.178-.196-1.457c-.284-2.121.044-2.986 2.04-5.384 6.742-8.103 19.83-13.42 39.628-16.098 6.315-.854 22.573-1.02 31.602-.32 17.879 1.383 34.747 4.322 57.15 9.958 15 3.774 22.622 6.485 49.389 17.567 1.067.442 4.062 1.705 6.656 2.806a386.458 386.458 0 0 0 8.29 3.403c1.966.769 4.289 1.707 5.162 2.084.873.377 6.667 2.683 12.876 5.123 6.21 2.441 12.956 5.134 14.993 5.984 5.004 2.087 7.682 3.162 16.581 6.651 10.811 4.24 20.916 8.492 33.337 14.029.777.346 1.967.856 2.646 1.133 1.793.732 25.887 11.802 30.868 14.182a503.853 503.853 0 0 0 6.35 2.986c3.476 1.581 18.697 9.596 23.813 12.539 9.96 5.729 30.583 18.323 42.157 25.744 16.65 10.676 33.005 20.316 42.51 25.054 5.115 2.55 5.808 2.793 10.012 3.516 4.182.72 7.231.68 11.52-.152 4.02-.779 6.15-1.66 10.797-4.467 2.468-1.49 3.71-2.014 5.292-2.23 6.45-.882 10.123 3.757 7.925 10.01-2.194 6.244-8.153 11.92-15.17 14.45-7.04 2.54-18.453 3.031-25.845 1.114-1.036-.269-1.948-.426-2.025-.349-.077.077.485.819 1.248 1.647 1.703 1.847 2.985 4.418 3.213 6.441.146 1.291 0 1.769-.968 3.176-1.557 2.263-4.075 5.061-5.8 6.446-3.148 2.526-8.354 3.209-12.72 1.669zm10.577-3.877c2.813-1.443 2.867-1.895.171-1.45-2.518.417-6.347-.115-8.389-1.166-1.77-.91-4.412-2.861-4.184-3.089.102-.102 1.664.151 3.472.562 6.157 1.398 10.759.891 13.513-1.49 1.295-1.12 1.308-1.155.915-2.611-.58-2.157-3.396-5.045-7.026-7.205-6.967-4.147-12.056-9.087-20.503-19.904-4.908-6.285-7.33-8.804-10.37-10.785-4.882-3.18-7.839-3.749-22.806-4.381-22.353-.944-24.975-1.484-30.128-6.206-3.93-3.602-5.535-6.186-9.723-15.653-2.478-5.603-3.865-8.196-5.474-10.23-1.77-2.24-1.87-2.537-.576-1.718 2.419 1.532 5.808 5.351 9.057 10.207 3.744 5.596 6.93 9.497 9.53 11.664 2.148 1.791 5.207 3.757 7.03 4.52 2.216.925 7.794 2.228 12.17 2.842 2.23.313 5.644.793 7.584 1.067 1.94.273 5.75.748 8.467 1.055 6.488.733 10.287 1.655 13.361 3.241 2.748 1.418 6.804 5.281 16.23 15.457 5.787 6.247 8.566 8.778 12.39 11.287 8.892 5.834 16.866 7.727 28.751 6.826 7.23-.548 11.181-1.873 15.635-5.245 4.997-3.782 6.9-8.458 4.817-11.83-1.508-2.439-4.238-2.18-10.46.99-5.202 2.65-7.209 3.145-12.814 3.165-6.113.021-12.726-1.556-18.658-4.45-3.03-1.477-16.392-8.987-18.169-10.21-.754-.52-1.51-.945-1.68-.945-.17 0-2.57-1.375-5.331-3.056-2.762-1.68-13.356-8.08-23.543-14.222a73080.448 73080.448 0 0 1-22.93-13.829c-12.047-7.274-24.761-13.67-43.216-21.737-8.531-3.73-23.995-10.292-30.339-12.876-3.104-1.264-7.866-3.206-10.583-4.315-14.153-5.778-28.889-11.565-36.512-14.34-17.127-6.233-30.198-11.227-42.334-16.176-21.052-8.584-36.853-13.82-45.684-15.137-1.553-.232-3.1-.5-3.44-.599-.903-.26-.763.334.57 2.421 2.242 3.51 5.85 11.214 5.246 11.203-.143-.002-1.768-1.372-3.611-3.044-8.044-7.295-19.327-14.205-30.339-18.58-7.965-3.165-18.664-5.981-27.829-7.325-11.373-1.667-19.39-.017-28 5.764-2.613 1.754-3.509 2.83-2.855 3.426.164.15 1.252.623 2.416 1.05 8.013 2.935 17.37 11.448 23.283 21.182.721 1.188 1.254 2.212 1.185 2.276-.07.064-2.11-1.383-4.536-3.214-10.39-7.847-20.642-13.37-28.076-15.127-4.403-1.04-7.612-2.193-9.555-3.43-1.722-1.098-3.547-3.328-3.081-3.767.175-.165 1.35-.148 2.612.038 5.832.858 12.395-1.213 16.392-5.173 1.903-1.886 3.334-4.204 2.878-4.66-.472-.472-20.853-.305-24.738.202-7.422.968-16.684 3.342-22.017 5.642-5.71 2.462-8.735 5.027-9.093 7.71-.218 1.637.785 3.107 2.355 3.452 1.635.36 2.4-.085 3.178-1.845 1.107-2.501 2.964-4.525 5.12-5.58 1.73-.846 2.43-.964 6.53-1.094 5.582-.178 5.705-.063 3.388 3.184-3.624 5.08-7.46 7.295-14.134 8.166-3.214.419-4.758.81-6.517 1.649-3.898 1.86-7.352 5.95-8.384 9.927-.693 2.673-.155 4.198 2.344 6.644 3.76 3.68 7.481 3.691 9.995.03.5-.729 1.808-3.23 2.906-5.558 3.694-7.833 5.186-9.599 8.827-10.438 1.484-.342 2.117-.314 3.769.166 5.181 1.506 8.457 6.563 8.981 13.867.248 3.446-.615 6.663-2.594 9.668-1.773 2.692-6.512 8.04-8.54 9.636-3.104 2.446-3.011 3.362.48 4.718 2.48.963 4.074 1.17 5.223.677.593-.255 2.641-2.537 5.118-5.704 2.27-2.904 4.524-5.479 5.008-5.722.483-.244 1.97-.963 3.304-1.6 2.934-1.4 6.428-4.51 7.707-6.86 1.237-2.272 1.677-5.222 1.333-8.937-.328-3.55-.797-5.454-2.02-8.21-.498-1.12-.804-2.136-.68-2.26.486-.486 3.345 1.238 5.645 3.405 2.557 2.41 4.909 5.478 6.227 8.123 1.219 2.446 3.118 4.573 4.72 5.289.8.357 2.854.98 4.565 1.387 7.33 1.74 15.94 5.9 26.153 12.638 3.308 2.182 6.181 3.968 6.385 3.969.228 0 .065-1.193-.422-3.086-.57-2.212-.799-4.137-.809-6.791-.022-5.62.631-8.32 1.18-4.883.607 3.793 4.024 9.923 7.818 14.024 5.331 5.763 15.417 12.133 23.436 14.801 5.225 1.739 3.632 1.973-2.64.388-4.37-1.105-6.412-1.811-16.608-5.742-10.044-3.872-14.15-4.349-27.864-3.236-10.025.813-14.985 2.04-20.25 5.014-5.134 2.899-11.122 9.633-14.585 16.403-1.04 2.033-1.131 2.486-1.13 5.564 0 3 .106 3.552 1.005 5.262 1.395 2.654 4.467 5.677 5.76 5.667 1.119-.01 3.992-1.21 3.992-1.669 0-.164-.54-.494-1.199-.732-3.077-1.113-5.465-5.608-4.991-9.399.195-1.558 1.996-6.184 2.408-6.184.07 0 .058 1.324-.027 2.942-.17 3.239.37 5.038 2.137 7.129 1.063 1.256 4.416 2.99 6.26 3.238 1.173.157 1.476-.003 3.444-1.825 2.715-2.514 4.19-4.726 4.953-7.427.835-2.961 3.359-5.528 6.266-6.373 3.178-.924 5.907-.536 14.616 2.077 6.957 2.088 18.799 5.582 28.928 8.535 2.23.65 5.406 1.59 7.055 2.089 5.073 1.533 12.716 3.292 16.051 3.694 11.978 1.443 20.787-1.383 23.88-7.66.733-1.49.813-2.137.8-6.42-.015-4.556-.073-4.93-1.338-8.642-1.635-4.8-4.798-11.273-7.672-15.7-2.754-4.24-2.905-4.659-1.188-3.303 4.484 3.54 13.581 8.626 20.62 11.529 4.082 1.683 10.962 3.92 15.953 5.186 4.607 1.169 15.425 2.997 20.03 3.385 3.91.33 2.734.679-4.073 1.209-7.542.587-17.905-.378-27.148-2.529-4.771-1.11-12.386-3.273-13.817-3.925-.454-.207-.915-.288-1.024-.179-.109.11.29 1.166.888 2.35 2.617 5.185 3.606 9.15 3.516 14.095l-.07 3.757 1.373.791c3.852 2.222 12.658 4.91 19.365 5.91 12.746 1.903 24.504 1.942 41.98.137 6.413-.662 13.138-.754 17.463-.24.755.09.867-.022.778-.778-.234-1.988-2.57-5.904-5.523-9.26-1.665-1.892-2.926-3.44-2.803-3.44.607 0 4.837 2.879 7.524 5.12 7.183 5.993 14.218 14.639 19.084 23.455 5.118 9.273 9.154 14.84 14.969 20.644 8.241 8.226 16.707 12.545 28.06 14.315 1.826.285 5.54.343 11.994.187 5.142-.125 13.556-.327 18.698-.45 14.749-.355 23.947.935 30.703 4.304 4.703 2.345 12.848 9.208 22.39 18.865 8.833 8.941 13.492 11.708 19.428 11.538 2.373-.068 3.192-.258 4.91-1.14zM127.734 13.25c0-.283.833-.972 1.852-1.53 1.733-.951 2.113-1.017 5.91-1.027 2.377-.006 4.12.136 4.209.343.084.194-1.027.816-2.47 1.382-2.067.812-3.35 1.063-6.061 1.188-2.85.13-3.44.07-3.44-.356zm196.85 41.733c-.813-.47-24.535-9.946-33.161-13.248-3.603-1.38-13.698-5.503-22.93-9.367-15.736-6.585-30.964-12.519-38.277-14.913-8.305-2.72-26.252-7.073-39.373-9.55-20.541-3.879-41.515-5.55-56.146-4.473-8.81.648-8.948 1.012-.4 1.047 7.083.029 16.304.555 16.702.952.101.102-.17.835-.606 1.63-.435.793-.708 1.525-.608 1.626.1.1 1.704-.332 3.563-.96 4.816-1.63 10.16-2.274 14.927-1.8 10.221 1.018 21.46 3.629 31.197 7.247 5.915 2.198 15.413 6.94 20.686 10.326 2.424 1.556 4.47 2.766 4.548 2.688.078-.078-.515-1.217-1.318-2.531-1.32-2.163-1.394-2.401-.775-2.5.91-.147 10.304 1.217 14.33 2.08 8.555 1.834 22.053 6.455 39.84 13.638l11.288 4.56c2.135.862 6.58 2.596 9.878 3.852 3.299 1.256 6.553 2.51 7.232 2.788.68.276 4.092 1.552 7.585 2.835 3.492 1.283 7.54 2.788 8.996 3.344 2.621 1.002 3.843 1.317 2.822.729zM112.917 37.33c0-.566-2.154-2.836-3.21-3.382-1.117-.578-4.55-.697-4.55-.158 0 .194.417.353.928.353 1.726 0 3.703.826 5.183 2.166 1.65 1.493 1.65 1.492 1.65 1.021zm-30.15-5.244c1.811-1.713 4.092-3.658 5.07-4.321 1.886-1.281 2.087-1.836.733-2.034-.667-.097-1.62.687-4.798 3.945-3.631 3.724-5.105 5.525-4.52 5.525.123 0 1.705-1.402 3.516-3.115zm68.234-4.842c-.77-.927-4.97-3.262-7.649-4.25-1.536-.568-3.005-1.403-3.714-2.112l-1.173-1.173-2.002.62c-1.101.34-2.087.704-2.19.807-.103.103 1.09.462 2.652.797 2.927.63 6.077 1.86 11.253 4.398 3.352 1.643 3.458 1.677 2.823.913zm-49.46-3.388c1.352-.643 3.615-2.866 3.615-3.552 0-.15-1.178-.272-2.619-.272-2.275 0-2.755.115-3.662.877-1.012.853-2.185 2.846-2.185 3.714 0 .605 2.945.14 4.85-.767z" style="fill:#000;stroke-width:.352778"/></svg>