<svg xmlns="http://www.w3.org/2000/svg" viewBox="0 0 72.603 29.127"><path d="M30.215 28.99C6.928 27.27-6.315 17.445 3.013 8.809 13.76-1.142 46.428-3.091 64.05 5.168c9.736 4.563 11.324 11.284 3.915 16.571-4.562 3.255-12.545 5.784-21.61 6.844-4.29.502-12.166.7-16.14.407zm26.39-4.42c4.054-1.399 6.58-2.835 8.74-4.97 2.018-1.993 2.55-3.107 2.55-5.348 0-2.714-2.55-5.791-6.575-7.936-2.363-1.259-6.678-2.773-9.617-3.375a166.439 166.439 0 0 1-2.559-.54c-.573-.132-.58-.099-.435 2.05.187 2.762-.392 4.444-2.412 7.008-3.773 4.789-8.921 7.418-16.458 8.406-2.82.37-10.407.562-10.407.263 0-.073 1.784-4.143 3.964-9.045 2.18-4.9 3.92-8.954 3.868-9.006-.174-.174-5.248.729-7.95 1.414C3.857 7.409-.327 15.913 10.15 22.117c1.537.91 6.236 2.907 6.84 2.907.125 0 .43-.425.677-.946.394-.825.544-.926 1.174-.793 4.902 1.038 15.576.826 20.424-.405 3.327-.845 4.344-1.933 4.363-4.667l.012-1.778 1.462-1.005 1.462-1.006 2.97.18c1.633.1 2.97.275 2.97.389 0 .114-.114.506-.252.87-.208.547-.533.718-1.852.978-.88.173-1.6.455-1.6.627s.343.567.762.877c.981.725 2.148 3.067 2.148 4.31 0 .532-.298 1.527-.661 2.212-.364.684-.662 1.285-.662 1.336 0 .205 3.739-.776 6.218-1.632zM25.58 16.504c2.03-1.083 4.28-3.334 6.174-6.18 2.114-3.178 2.878-5.423 2.33-6.85-.259-.675-1.547-1.203-2.931-1.201l-1.27.001-3.346 7.54c-2.4 5.407-3.233 7.538-2.947 7.538.219 0 1.114-.381 1.99-.848z" style="fill:#000;stroke-width:.264583"/></svg>