<svg xmlns="http://www.w3.org/2000/svg" version="1.0" xml:space="preserve" viewBox="0 0 192.756 192.754"><path style="fill:#e6e7e8" d="M96.025 192.409c-1.916-.722-15.88-7.523-19.647-9.571-26.058-14.16-43.396-31.176-57.529-56.458C9.301 109.296 4.212 91.082 2.542 68c-.377-5.196-.188-22.348.311-28.398l.218-2.641 3.797-2.903C20.69 23.491 37.119 14.474 51.574 9.521c8.267-2.833 18.175-5.102 28.272-6.475 7.421-1.009 25.304-1.094 32.526-.156 17.349 2.254 30.602 6.146 45.238 13.285 11.074 5.402 22.782 12.849 31.638 20.124l1.206.991.377 6.77c.468 8.368.206 24.598-.496 30.822-1.156 10.258-2.568 17.179-5.515 27.042-2.504 8.383-4.037 12.264-7.737 19.57-7.371 14.56-15.314 25.62-26.217 36.505-12.72 12.699-24.929 20.91-45.816 30.814-7.75 3.674-8.269 3.881-9.025 3.596zm-66.963-66.852c-.367-.601-1.714-3.188-2.995-5.75-7.062-14.131-11.29-28.659-13.104-45.039-.633-5.718-.98-23.28-.568-28.728l.288-3.798-.925-1.288c-1.149-1.599-1.149-1.722.011-1.954.516-.103 1.667-.757 2.559-1.453 4.311-3.364 12.984-9.058 17.608-11.559 8.099-4.381 8.72-4.604 26.447-9.516 7.078-1.961 13.101-3.424 17.666-4.291 2.998-.569 4.37-1.145 2.728-1.145-.48 0-.971-.159-1.091-.353-.345-.559.79-1.195 3.811-2.135 1.544-.481 2.94-1.001 3.103-1.156.601-.574-1.59-.723-5.377-.363-19.419 1.843-40.659 9.826-59.309 22.29-2.725 1.82-6.708 4.484-8.854 5.919l-3.9 2.609 1.343 1.239c1.227 1.133 1.32 1.334 1.093 2.361-.388 1.745-.237 21.367.204 26.715.954 11.548 2.662 20.278 6.198 31.7 3.146 10.154 8.229 20.669 12.482 25.815 1.201 1.458 1.507 1.393.582-.12zm143.169-7.53c4.444-8.816 6.54-14.241 8.358-21.629.926-3.767 1.643-9.153 1.157-8.708-.125.115-.878 2.715-1.674 5.779-3.165 12.176-5.522 18.731-9.966 27.694-1.351 2.725-2.154 4.582-1.787 4.128.368-.454 2.128-3.723 3.912-7.264zM42.202 54.31c0-.177.283-.473.63-.659.347-.186.976-.896 1.396-1.581.421-.683 1.896-2.505 3.278-4.049 7.052-7.877 13.679-12.89 22.319-16.884 3.897-1.802 6.351-2.662 11.671-4.094 2.452-.66 4.599-1.336 4.772-1.503.172-.167.692-.313 1.156-.325.805-.021.795-.044-.258-.568-1.04-.517-1.292-.507-4.623.18-12.437 2.568-24.643 9.297-33.31 18.363-3.253 3.404-6.973 8.2-8.101 10.445-.411.817-.956 1.746-1.21 2.064-.313.389-.34.578-.083.578.209 0 .381.245.381.545 0 .323.403-.011.991-.823.544-.751.991-1.512.991-1.689z"/><path style="fill:#acafb2" d="M91.073 189.561c-12.53-5.909-20.296-10.152-27.904-15.244-19.358-12.957-34.042-29.521-45.521-51.35-6.126-11.654-10.672-25.768-12.926-40.131-1.579-10.062-1.92-16.164-1.68-30.026.118-6.902.302-13.19.407-13.975.179-1.334.398-1.591 3.375-3.961C21.992 22.794 41.732 12.638 59.51 7.766c12.684-3.475 24.112-5.019 37.177-5.02 12.205-.001 22.453 1.288 34.837 4.382 19.275 4.815 40.266 15.753 58.164 30.31 1.028.836 1.253 26.141.317 35.681-1.067 10.892-2.552 18.34-5.817 29.214-3.761 12.524-8.317 21.968-16.651 34.518-5.679 8.55-9.92 13.754-16.832 20.655-11.381 11.363-22.865 19.406-39.779 27.863-7.324 3.661-13.74 6.629-14.303 6.617-.238-.006-2.735-1.097-5.55-2.425zm13.946-4.919c8.913-4.508 12.418-6.559 14.42-8.438l10.923-5.967 18.26-13.342 24.435-33.052 12.865-35.945 2.336-29.275-1.346-19.422-19.223-14.491-23.638-11.191c-6.632-3.035-20.939-6.677-32.505-8.276-5.949-.821-21.021-1.014-27.635-.352-13.735 1.375-26.528 4.443-36.821 8.83-12.5 5.327-19.321 9.067-31.8 17.431-8.567 5.742-8.925 6.023-9.144 7.211-.124.68-.327 5.099-.451 9.822-.732 27.87 3.955 51.66 14.211 72.139 16.175 30.951 43.274 56.318 76.527 68.021.934.014 3.017-.886 8.586-3.703z"/><path style="fill:#01336b" d="M90.743 176.438c-17.578-9.126-28.017-16.397-38.326-26.695-9.534-9.523-15.789-17.884-22.402-29.94-11.279-20.562-15.619-43.427-13.678-72.055l.209-3.081 3.169-2.391C34.405 31.19 49.921 23.34 64.82 19.455c11.363-2.963 19.249-3.951 31.536-3.951 11.328 0 17.454.67 28.233 3.09 13.502 3.03 28.146 9.527 41.277 18.312 5.409 3.619 10.562 7.535 10.867 8.258.165.392.313 6.805.329 14.25.028 12.355-.034 14.016-.718 18.988-2.789 20.271-8.421 35.294-19.435 51.843-11.048 16.6-25.317 29.851-43.218 40.128-3.512 2.016-15.843 8.589-16.676 8.888-.271.098-3.095-1.173-6.272-2.823z"/><path style="fill:#e6e7e8" d="M103.881 156.312c12.01-1.308 23.561-5.813 33.181-12.944 3.304-2.448 9.168-8.105 11.894-11.472 6.893-8.517 11.669-18.606 13.994-29.555.856-4.036.912-4.795.92-12.713.008-7.337-.083-8.908-.719-12.218-3.823-19.939-15.787-36.652-33.493-46.787-6.207-3.555-14.206-6.375-21.909-7.728-5.141-.902-15.237-1.08-20.144-.355-16.701 2.47-31.436 10.422-42.015 22.675-15.108 17.498-20.18 40.641-13.785 62.906C37 126.21 50.328 141.901 67.462 150.1c6.212 2.974 14.78 5.428 21.629 6.197 3.631.409 11.111.416 14.79.015zM86.78 147.92c-20.455-3.45-38.221-17.645-45.587-36.423-2.838-7.235-3.929-12.496-4.184-20.171-.208-6.3.225-10.773 1.556-16.063 5.786-22.985 23.54-39.987 46.351-44.389 5.067-.978 5.421-.947 6.037.527 1.384 3.312 2.649 10.172 3.917 21.238.533 1.009-.14 8.654 2.075 7.723.418-.263.635-1.049.821-2.965 1.336-13.802 3.489-25.248 5.053-26.862.405-.418.893-.41 3.854.068 12.167 1.963 23.264 7.724 32.282 16.758 4.729 4.736 7.713 8.762 10.548 14.227 5.133 9.896 7.261 19.132 6.858 29.769-.206 5.408-.703 8.71-2.067 13.716-5.717 20.986-23.081 37.448-44.423 42.118-2.075.454-4.48.923-5.349 1.041l-1.576.216-.528-1.259c-1.577-3.758-3.582-14.837-4.41-24.376-.204-2.359-.447-4.552-.538-4.869-.169-.59-1.265-.801-1.573-.304-.092.151-.55 3.646-1.016 7.767-1.395 12.354-3.298 21.935-4.512 22.703-.534.338-.435.344-3.589-.19z"/><path style="fill:#8d9093" d="M91.073 152.176c-.273-.063-2.279-.261-4.458-.439-3.881-.316-8.215-1.35-12.298-2.927-1.88-.726-4.837-2.366-4.634-2.569.069-.068 1.307.336 2.75.9 6.373 2.491 8.749 2.991 15.338 3.233 4.77.176 6.394.353 7.404.807.988.445 1.183.653.824.88-.444.282-3.866.362-4.926.115zm5.95-.127c-.418-.265-.475-1.905-.396-11.47.051-6.139.447-12.488.424-14.133-.048-3.496.096-8.42-.396-8.42.313-.093.693.271.743 1.04.238 3.747.438 20.29 1.557 26.968.691 4.14 1.68 4.402 6.348 4.635 5.732-.24 8.87-.913 14.969-3.214 1.983-.746 3.667-1.298 3.741-1.224.286.287-3.014 1.947-5.937 2.988-4.154 1.479-8.497 2.37-13.628 2.795-5.205.433-6.785.442-7.425.035zM96.658 59.909c.493 0 .754-5.635.396-8.585-.533-4.402-.629-24.637-.12-25.146.711-.711 8.699.146 14.116 1.514 5.617 1.419 8.728 2.594 13.704 5.175 3.643 1.89 7.145 4.158 6.857 4.444-.074.075-2.205-.901-4.735-2.168-5.966-2.989-8.945-4.046-14.906-5.285-2.687-.559-6.022-1.307-7.414-1.662-3.258-.832-4.086-.814-5.082.109-.72.667-.851 1.173-1.138 4.375-.24 2.69-.216 4.291.096 6.232-.079 5.007 1.051 7.876-1.774 20.997z"/><path style="fill:#5f6269" d="M90.743 188.904c-12.144-5.771-19.193-9.594-26.417-14.327-17.574-11.515-31.183-26.059-42.568-45.487-10.534-17.978-16.227-36.998-17.89-59.769-.403-5.525-.199-27.346.283-30.215.487-2.893.694-.719.396 4.148-1.813 29.634 3.46 58.155 14.622 79.065 10.473 19.622 23.126 34.4 39.942 46.653 6.758 4.924 18.528 11.823 30.972 18.151 5.341 2.718 6.622 3.246 7.516 3.103.591-.094 2.969-1.031 5.283-2.082 8.97-4.071 16.699-8.389 19.765-11.041.825-.715 4.554-3.469 8.283-6.119 3.729-2.651 8.521-6.278 10.649-8.061 18.567-15.558 33.69-38.172 40.619-60.741 4.349-14.161 6.632-30.764 6.609-48.052-.01-7.202-.414-15.013-.834-16.107-.17-.445-.038-.569.611-.569.742 0 .852.167 1.031 1.569.501 3.921.8 18.513.514 25.038-.65 14.766-2.243 24.485-6.139 37.427-2.652 8.814-4.106 12.514-7.736 19.676-7.914 15.624-18.554 29.944-29.669 39.936-10.817 9.724-19.888 15.737-35.554 23.574-5.985 2.993-14.321 7.015-14.474 6.983-.018-.004-2.637-1.242-5.814-2.753zm-.242-5.814c-8.759-4.562-20.321-11.963-24.061-15.404-1.463-1.346-1.453-1.34 3.672 1.857 4.946 3.087 11.485 6.671 19.059 10.444l7.18 3.577 4.543-2.255c15.102-7.494 24.616-13.375 33.66-20.801 14-11.496 24.576-24.36 33.25-40.446 9.495-17.607 14.063-37.234 14.077-60.484.004-6.317-.599-17.252-1.013-18.367-.451-1.214-13.651-10.417-20.754-14.47-7.556-4.311-16.979-8.521-26.764-11.96-2.809-.987-5.187-1.875-5.284-1.973-.543-.549 8.036 1.472 12.896 3.038 8.196 2.642 17.231 6.845 24.737 11.509 3.424 2.127 13.229 9.265 16.121 11.735.695.594.798 1.077 1.108 5.207.449 5.944.139 23.714-.514 29.512-1.283 11.402-4.381 24.627-8.19 34.972-1.963 5.33-7.261 16.251-10.333 21.299-2.471 4.06-8.891 13.304-11.695 16.842-5.005 6.311-17.53 18.016-22.893 21.395-3.964 2.496-20.759 11.146-27.737 14.282-2.128.958-4.305 2.052-4.839 2.432-.534.381-1.022.688-1.085.685-.06-.005-2.375-1.185-5.141-2.626zm6.845-31.375c-.421-.27-.478-1.486-.386-8.329.121-8.845.678-12.075.729-4.226.04 6.308.424 10.244 1.043 10.704.675.501.987 1.844.428 1.844-.24 0-.635.072-.878.162-.242.089-.663.019-.936-.155zm-6.108-.337c-.267-.431 2.471-.431 3.137 0 .356.229.01.321-1.219.325-.943.004-1.806-.143-1.918-.325zM49.797 47.766c.003-.507 3.71-4.363 6.333-6.585 5.647-4.787 13.496-9.216 19.982-11.277 6.382-2.028 18.263-4.221 18.263-3.372 0 .196-.054.356-.122.356-1.134 0-6.931 1.337-11.435 2.638-8.445 2.439-16.94 6.709-24.435 12.282-4.945 3.677-8.587 6.205-8.586 5.958zm47.464-5.028c-.374-2.506-.615-14.303-.313-15.355l.284-.991 3.608.114c3.985.125 8.657.914 13.17 2.222 2.81.814 7.111 2.566 7.111 2.895 0 .084-.706-.062-1.567-.324-3.552-1.081-16.313-4.096-18.15-4.288-1.74-.182-2.003-.133-2.199.413-.122.341-.453 1.035-.734 1.542-.395.709-.566 2.575-.75 8.09-.152 4.574-.319 6.631-.46 5.682zM14.169 76.35c-.663-5.35-.978-9.498-1.198-15.781-.232-6.617.244-17.705.783-18.245.227-.226.562.028 1.036.783.573.915.667 1.447.517 2.934-1.134 11.266-1.38 19.705-.815 27.877.196 2.344.516 8.754-.323 2.432zm168.679-42.116c-3.376-2.263-6.217-4.444-6.236-4.787-.029-.529.759-.188 3.046 1.319 2.069 1.363 6.646 5.326 6.187 5.355-.092.006-1.441-.843-2.997-1.887z"/><path style="fill:#8d9093" d="M89.061 188.416c-18.44-8.795-29.153-15.554-40.438-25.512-16.561-14.616-30.756-35.838-37.895-56.651-6.021-17.558-8.436-36.327-7.509-58.397.257-6.139.54-9.774.788-10.128.604-.866 5.619-4.842 9.89-7.841 10.357-7.274 22.824-13.865 34.27-18.119C76.724 1.153 107.918.21 137.303 9.074c15.593 4.703 35.434 15.189 48.376 25.566 1.634 1.311 3.217 2.47 3.518 2.576.848.299 1.106 4.96 1.099 19.721-.009 13.943-.264 17.479-1.997 27.738-1.035 6.123-1.98 10.018-4.291 17.692-3.721 12.357-8.552 22.353-16.749 34.646-13.575 20.362-29.425 34.234-53.235 46.591-7.206 3.739-16.558 8.061-17.439 8.057-.399-.002-3.785-1.463-7.524-3.245zm14.207-1.21c5.315-2.483 8.45-4.204 9.599-5.272.455-.42 2.98-2.068 5.614-3.66 14.419-8.715 23.866-15.95 32.36-24.784 8.772-9.123 15.422-18.241 21.884-30.014 10.512-19.146 15.489-41.424 15.568-69.675.015-5.267-.094-10.843-.244-12.393-.264-2.751-.297-2.832-1.401-3.467C162.24 19.8 141.545 8.945 111.712 4.544c-6.52-.849-24.101-.857-30.546-.015C67.27 6.344 55.303 9.398 46.995 13.25c-15.396 7.136-19.743 9.5-30.22 16.438-3.904 2.585-8.009 5.251-9.12 5.924l-2.021 1.224-.202 2.209c-.485 5.283-.625 20.593-.242 26.479 1.827 28.119 8.488 48.71 22.646 70.005 4.882 7.345 9.704 13.202 16.33 19.843 12.135 12.158 22.917 19.494 44.671 30.389 7.031 3.522 8.075 3.948 9.122 3.728.425-.092 2.815-1.119 5.309-2.283zm-13.02-3.758c-9.647-5.048-18.609-10.814-26.054-16.763-4.25-3.396-11.755-10.247-11.755-10.73 0-.186.631.201 1.403.862 6.402 5.472 15.771 12.023 23.362 16.336 5.579 3.168 18.305 9.596 19.001 9.596.7 0 13.856-6.588 18.973-9.5 23.198-13.204 39.721-30.091 52.578-53.735 5.517-10.146 9.733-22.494 11.785-34.507 1.448-8.485 2.339-23.862 1.858-32.113-.426-7.78 1.541-9.856-4.884-14.712-18.636-13.622-34.387-21.018-55.678-26.142-3.152-.759-6.05-1.508-6.438-1.665-1.197-.483 2.001-.384 6.134.191 18.105 2.518 32.893 8.09 47.975 18.081 4.308 2.853 12.708 9.213 14.034 10.625l.825.879-.004 14.42c-.005 15.845-.22 18.774-2.158 29.314-3.102 16.879-8.446 31.702-16.195 44.914-2.06 3.513-7.623 11.724-11.484 16.952-4.621 6.255-16.68 18.142-22.927 22.6-2.385 1.701-20.342 10.857-28.242 14.399-2.604 1.167-4.874 2.387-5.047 2.711-.562 1.047-1.995.639-7.062-2.013zM15.134 70.311l.161 3.87c.542 13.024 4.415 28.387 10.321 40.933 3.142 6.676 7.736 14.331 13.041 21.735l4.252 5.934c.973 1.356 4.576 5.294 8.006 8.751 3.432 3.456 5.809 5.905 5.284 5.441-12.815-11.309-22.304-23.572-29.495-38.122-7.465-15.105-11.097-27.348-13.125-44.25-.756-6.294-.896-31.188-.182-32.437 1.48-2.59 17.449-13.237 25.501-17.003 3.224-1.508 9.389-3.897 9.993-3.873.226.009-1.38.875-3.567 1.925-7.405 3.554-13.536 7.241-21.782 13.097-1.634 1.161-4.271 2.891-5.861 3.845-1.589.954-2.89 1.892-2.89 2.084l.343 28.07zm42.545 87.754c-.41-.523-.399-.535.125-.124.55.431.726.701.453.701-.069 0-.328-.259-.578-.577z"/><path style="fill:#101a4b" d="M90.082 175.774c-23.017-11.908-37.562-23.673-49.959-40.411-11.329-15.297-18.39-31.212-21.824-49.201-1.735-9.089-2.022-12.88-2.005-26.583.008-6.992.124-13.233.255-13.869.207-.997.752-1.527 3.947-3.849 10.958-7.958 19.212-12.745 29.822-17.294 14.983-6.423 34.933-9.861 51.681-8.905 26.618 1.52 47.284 9.205 70.472 26.207 3.98 2.918 4.147 3.078 3.894 3.739-.145.377-.236.378-.548.01-.205-.242-1.042-.919-1.859-1.504a678.06 678.06 0 0 1-4.339-3.151c-1.568-1.148-3.427-2.43-4.128-2.849a102.377 102.377 0 0 1-3.078-1.948c-2.361-1.554-4.55-2.722-11.735-6.265-9.117-4.495-11.144-5.439-12.218-5.692-.545-.128-2.328-.706-3.962-1.283-11.063-3.905-24.551-6.066-37.81-6.058-16.012.01-31.048 2.889-44.875 8.593-3.822 1.576-12.405 5.857-15.978 7.968-6.521 3.854-16.079 10.544-17.19 12.034-.843 1.129-1.158 5.102-1.188 14.976-.055 18.464 2.859 33.933 9.239 49.047 7.016 16.621 21.447 35.563 36.581 48.014 5.334 4.391 5.835 4.777 7.661 5.931.862.545 2.718 1.771 4.128 2.724 1.408.954 2.763 1.734 3.01 1.734.247 0 .449.149.449.333 0 .184.648.666 1.44 1.073 3.498 1.798 5.453 2.895 7.138 4.006.996.656 2.063 1.192 2.375 1.192.311 0 .655.145.764.32.109.177.824.619 1.588.981.765.364 1.613.798 1.886.962.272.165 1.202.625 2.067 1.023.865.399 1.487.862 1.383 1.03-.103.168-.291.303-.417.3-.124-.001-3.125-1.503-6.667-3.335zm.991-17.32c-.454-.077-2.461-.389-4.458-.693-1.997-.304-4.034-.751-4.525-.991-.49-.241-1.307-.439-1.815-.441-1.269-.006-8.109-2.387-11.269-3.922-.304-.149-1.147-.547-1.874-.886-.726-.339-2.264-1.178-3.418-1.864-1.154-.688-2.174-1.25-2.267-1.25-.308 0-4.069-2.784-5.464-4.045-.753-.681-1.483-1.238-1.62-1.238-.139 0-.682-.408-1.208-.907-4.543-4.312-6.662-6.467-6.508-6.62.1-.1 1.258.876 2.573 2.169 17.815 17.514 44.875 23.637 68.924 15.598 14.461-4.835 26.126-13.814 34.746-26.75 11.705-17.564 14.561-38.462 7.985-58.447-5.591-16.998-18.392-31.66-34.8-39.863-1.182-.59-1.964-1.075-1.739-1.079.585-.008 8.572 3.856 8.828 4.271.118.191.443.347.725.347s1.052.413 1.715.918c.66.505 1.633 1.136 2.158 1.402 2.68 1.357 11.896 10.234 15.248 14.687 10.325 13.719 14.89 29.62 13.503 47.055-.252 3.178-.617 6.447-.811 7.264-.194.818-.516 2.23-.717 3.138-.777 3.524-3.532 11.191-4.981 13.869-4.171 7.71-6.694 11.396-10.935 15.978-7.424 8.021-16.39 14.194-25.802 17.769-9.395 3.568-13.838 4.409-24.106 4.564-3.994.058-7.634.045-8.088-.033zm11.373-11.527c-1.8-4.308-4.424-20.38-4.436-27.167-.004-2.303.529-2.738 1.514-1.236.643.981 1.453 4.979 1.455 7.176 0 .859.144 2.197.318 2.972.176.774.634 3.832 1.018 6.795.712 5.504 1.975 10.7 2.834 11.66.426.476.394.559-.277.738-1.495.399-1.938.228-2.426-.938zm-15.134.549c-.091-.149.271-.207.807-.128.535.078.973.2.973.271 0 .252-1.616.121-1.78-.143zm-1.763-.259c.109-.11.395-.123.632-.027.264.105.186.185-.199.2-.348.014-.543-.064-.433-.173zm-4.053-.834c-4.311-1.153-7.322-2.254-11.063-4.047-29.945-14.35-42.061-50.455-26.884-80.116 8.241-16.105 23.105-27.44 40.715-31.047 4.276-.875 6.269-.797 6.417.253.081.563-.021.693-.418.54-.603-.231-6.311.704-8.272 1.356-.726.242-2.361.767-3.632 1.167-3.217 1.012-10.363 4.534-13.627 6.714-12.858 8.589-21.53 21.57-24.852 37.197-.918 4.319-1.243 12.878-.676 17.764.772 6.64 2.599 12.822 5.522 18.686 1.713 3.437 2.839 5.271 6.241 10.171 1.374 1.979 6.786 7.506 9.75 9.955 2.02 1.67 7.052 5.174 7.43 5.174.204 0 .638.297.967.661.327.362.812.659 1.073.659.261 0 .879.288 1.373.639.493.352 1.332.744 1.867.872.533.128 1.125.352 1.312.498.421.328 4.253 1.673 6.923 2.43 1.089.309 2.278.689 2.641.847 1.169.504-.215.321-2.807-.373zm27.878-37.74c-1.153-.503-4.693-3.673-4.414-3.953.101-.101.752.285 1.446.857 1.782 1.47 4.007 1.997 6.111 1.452 3.409-.885 5.398-3.457 6.643-8.591.4-1.651.825-3.112.945-3.246.119-.134.557-.008.969.281.669.469.742.766.672 2.712-.044 1.203-.275 2.563-.515 3.021-.24.46-.437 1.164-.438 1.567-.001.401-.292.886-.648 1.075-.355.191-.736.828-.848 1.416-.216 1.134-1.998 2.691-3.938 3.438-1.37.529-4.744.511-5.985-.029zm-54.824-.192c-5.42-.129-7.094-.271-7.543-.645-.547-.456-.546-.492.033-.721.334-.131 4.046-.25 8.247-.263 5.995-.019 7.717-.119 8.008-.47.205-.246.786-2.473 1.292-4.95.506-2.477 1.079-4.66 1.27-4.853.2-.199 1.328-.307 2.629-.25l2.279.099.098 1.019c.094.955.04 1.01-.87.877-1.615-.238-2.227.349-2.817 2.701-.297 1.179-.54 2.41-.541 2.735-.002 1.061-.661 2.999-1.273 3.756-.823 1.015-2.471 1.162-10.812.965zm17.866.107c-.984-.262-1.886-1.16-1.525-1.521.168-.169 3.629-.335 7.69-.37 4.062-.034 7.568-.177 7.793-.314.223-.139.407-.774.407-1.414 0-1.141-.022-1.158-1.239-1.054l-1.239.105-.074-12.381c-.049-8.067.037-12.193.244-11.841.174.298.82 2.039 1.435 3.87 1.013 3.021 1.086 3.488.789 5.072-.188 1.009-.248 4.442-.138 8.149l.187 6.405 1.009 1.041c1.333 1.376 1.38 2.896.116 3.725-.776.509-1.809.593-7.843.645-3.824.031-7.249-.022-7.612-.117zm23.858-.134c-.827-.482-.713-.965.228-.965.444 0 .889-.133.988-.295.132-.213.542-26.944.519-33.779-.001-.407.334-.586 1.236-.661 1.131-.093 1.247-.196 1.342-1.176.105-1.096.279-1.249.921-.82.42.28 1.122 1.534 1.122 2.005 0 .176-.52.943-1.153 1.702l-1.156 1.382.155 9.463c.183 11.154.192 9.424-.092 16.512-.221 5.484-.264 5.752-1.01 6.356-.85.688-2.189.808-3.1.276zm25.26-.3c-.59-.359-1.072-.805-1.072-.989 0-.217 2.611-.335 7.39-.335 7.951 0 8.306-.075 8.072-1.715-.078-.552-.357-.79-1.015-.865-.631-.073-.908-.294-.908-.722 0-.536.637-3.936 1.161-6.191.16-.694.345-.743 2.808-.743h2.635v1.146c0 1.081-.054 1.138-.92.964-1.424-.284-2.322.677-2.729 2.918-.315 1.734-.283 1.975.392 2.886.625.845.688 1.178.428 2.228-.479 1.929-1.049 2.066-8.563 2.07-6.007.002-6.702-.057-7.679-.652zm19.731-.062-1.155-.718.826-.239c.453-.132 2.778-.255 5.165-.272 4.67-.036 4.74-.064 4.74-1.876 0-1.037.444-1.013 1.297.071.904 1.149.863 1.714-.202 2.826-.883.923-.905.927-5.201.925-3.852-.001-4.438-.077-5.47-.717zm-88.015-4.317c-.088-.227-.12-7.174-.074-15.438l.087-15.024 1.254-.104c.985-.081 1.322-.281 1.568-.928.172-.453.461-.732.644-.62.622.385.331 1.563-.665 2.699l-.996 1.134.041 9.979c.021 5.489.148 11.834.28 14.1.167 2.848.13 4.195-.118 4.362-.574.389-1.849.289-2.021-.16zm25.035-.014c-.164-.219-.839-2.925-1.503-6.012-.664-3.087-2.093-9.7-3.178-14.695-1.084-4.996-2.077-9.877-2.206-10.852-.225-1.701-.208-1.757.429-1.416.364.195.826.769 1.025 1.275.445 1.128 2.546 9.471 3.352 13.304 1.303 6.196 3.616 15.311 4.336 17.076.237.583.364 1.119.281 1.19-.45.393-2.272.484-2.536.13zm49.592.014c-.086-.227-.119-7.248-.071-15.602l.086-15.19 1.092-.011c1.108-.011 1.701-.538 1.709-1.522.008-.815.933-1.02 1.322-.292.633 1.185.385 2.479-.673 3.492l-1.006.965.099 14.104c.097 13.869.087 14.109-.562 14.283-1.093.293-1.827.209-1.996-.227zm19.86-.164c-.097-.319-1.606-7.191-3.353-15.273-3.239-14.987-3.842-18.491-3.178-18.491.564 0 1.658 1.32 2.026 2.448.371 1.132 1.519 6.345 1.985 9.017.166.948.594 2.879.951 4.293.357 1.413.823 3.461 1.035 4.551.214 1.089.613 2.947.892 4.128a860.377 860.377 0 0 1 1.742 7.594c.143.636.368 1.415.501 1.734.207.494.051.577-1.092.577-.981-.001-1.379-.153-1.509-.578zm-38.045-.078c-.948-.383-2.024-1.813-2.457-3.264-.196-.661-.441-4.247-.544-7.97-.196-7.154.198-13.187 1.052-16.059.848-2.857 2.905-4.014 5.078-2.858 1.189.632 2.33 2.213 1.905 2.639-.142.142-.402-.001-.581-.317-.435-.778-2.105-.739-2.912.068-1.495 1.494-2.151 7.351-1.915 17.055.187 7.673.335 8.462 1.863 9.844.382.346.694.753.694.907.001.353-1.264.327-2.183-.045zm25.954-10.282c-.013-.916 2.152-11.188 2.357-11.188.116 0 .459 1.672.762 3.715.727 4.903.713 4.602.241 5.456-.469.851-.213 1.529.477 1.264.267-.102.462.028.462.309 0 .307-.331.485-.908.488-.5.002-1.465.096-2.146.208-.932.154-1.242.091-1.245-.252zm-69.682-.208c-.032-.665 2.183-10.98 2.357-10.98.111 0 .39 1.316.621 2.925.318 2.221.33 3.198.043 4.063-.207.626-.406 1.836-.444 2.689l-.067 1.55h-1.249c-.687.001-1.253-.11-1.261-.247zm25.488-12.846c-1.699-4.146-3.169-8.044-3.27-8.662l-.183-1.123.99.732c.724.535 1.508 1.91 2.902 5.083 1.051 2.394 2.066 4.45 2.255 4.571.341.219.746 5.201.515 6.343-.067.327-1.51-2.798-3.209-6.944zm26.203 2.403c-.363-.265-.586-.532-.495-.592.09-.06.462-.274.824-.474.605-.335.676-.801.826-5.505.091-2.827.276-5.25.412-5.387.137-.135.249.195.249.734 0 1.236.529 1.771 1.754 1.771.909 0 .951.06.75 1.073-.118.59-.331 2.378-.476 3.973-.189 2.089-.45 3.15-.932 3.798-.774 1.044-1.973 1.295-2.912.609zm-37.413-8.528c-.539-.539-.499-.925.099-.925.274 0 .495.293.495.661-.001.77-.061.797-.594.264zm13.538 0c-.581-.582-.484-.925.265-.925.44 0 .661.22.661.661-.001.749-.343.847-.926.264zm20.747-3.747c-1.267-.895-1.112-1.012.546-.413.602.218 1.096.589 1.096.826 0 .599-.323.519-1.642-.413zm-17.159-8.714c-.385-.243-.396-.395-.058-.801.245-.295.607-2.686.88-5.798 1.02-11.64 3.485-24.023 4.89-24.563.243-.093 1.689.046 3.216.311 15.058 2.61 27.516 9.989 37.003 21.915.648.817 1.355 1.857 1.568 2.311l.389.826-.593-.771c-.325-.423-1.26-1.538-2.078-2.477a117.4 117.4 0 0 1-2.146-2.533c-1.552-1.937-7.131-6.497-11.213-9.164-8.137-5.318-22.905-10.232-24.602-8.186-.784.943-1.919 5.624-2.648 10.912-.837 6.077-1 7.46-1.341 11.392-.443 5.132-.528 5.472-1.554 6.28-.941.741-1.053.763-1.713.346z"/><path style="fill:#fff" d="m97.598 89.895.086-17.068 1.234-.102c1.121-.093 1.245-.2 1.337-1.155l.103-1.051-3.448-.105c-4.516-.136-4.577-.121-4.452 1.162.089.918.242 1.065 1.257 1.211l1.156.165.088 7.701c.048 4.236-.035 7.625-.185 7.531-.151-.092-1.885-4.12-3.854-8.948l-3.579-8.779-4.327.091-4.325.092v.991c0 .906.104.999 1.242 1.093l1.242.103-.086 15.583-.086 15.583h-2.972l-3.419-15.85c-4.142-19.195-3.901-18.214-4.533-18.457-1.37-.525-1.557.037-4.543 13.722-3.012 13.801-3.865 16.541-5.769 18.551-1.345 1.421-3.117 2.199-5.006 2.199h-1.668l.086-15.602.086-15.604 1.156-.165c1.027-.147 1.155-.276 1.155-1.156v-.991H45.337l-.109.955c-.124 1.084.348 1.51 1.678 1.518l.908.004v31.04h-.799c-1.361 0-1.843.35-1.843 1.338 0 .514.112 1.002.248 1.086.136.083 4.253.054 9.147-.063l8.898-.214 1.008-4.953 1.008-4.953 2.714-.096c2.598-.092 2.723-.064 2.876.661.588 2.753 1.179 6.037 1.179 6.549 0 .44-.292.631-1.073.707-.949.092-1.073.219-1.073 1.095v.99l7.925.089c6.878.076 7.975.02 8.304-.428.678-.93.165-1.763-1.155-1.872l-1.204-.1-.087-12.198c-.047-6.708.031-12.316.177-12.461.145-.146 2.546 5.417 5.337 12.362 6.879 17.117 6.12 15.496 7.2 15.373l.911-.105.086-17.069zm-31.956 3.449c-.015-.795 2.463-11.971 2.654-11.971.266 0 2.579 11.595 2.389 11.971-.069.135-1.231.248-2.582.248-1.351 0-2.458-.113-2.461-.248zm47.33 13.432c2.832-.787 4.994-3.825 6.032-8.482.633-2.835.5-3.382-.824-3.382-1.2 0-1.215.022-2.021 3.175-.88 3.44-1.975 5.251-3.474 5.746-2.188.723-4.136-.248-5.207-2.593-.65-1.421-.714-2.204-.82-10.126-.165-12.161.56-16.617 2.895-17.825 3.067-1.586 5.668.63 6.589 5.611.401 2.175.669 2.588 1.561 2.418.556-.105.632-.596.803-5.231.104-2.814.126-5.3.047-5.528-.254-.738-1.708-.477-2.097.376l-.359.79-1.599-.994c-1.444-.898-1.806-.981-3.754-.857-1.721.11-2.434.334-3.536 1.113-3.864 2.729-6.559 9.833-6.559 17.29 0 8.62 3.398 16.345 8.091 18.396 1.216.53 2.573.563 4.232.103zm37.195-.456c.741-.893.27-1.654-1.133-1.832l-1.304-.165-3.722-17.171a6941.595 6941.595 0 0 1-3.729-17.253c-.004-.046-.446-.083-.984-.083-1.151 0-.934-.667-3.129 9.576-.839 3.905-2.374 11.038-3.414 15.851l-1.889 8.751-1.572.1-1.572.101.086-15.62.086-15.621 1.155-.165c1.028-.147 1.156-.276 1.156-1.156v-.991h-10.236v.991c0 .88.128 1.009 1.154 1.156l1.156.165v31.042l-1.156.164c-1.022.147-1.167.29-1.258 1.244l-.105 1.079 7.865-.088 7.864-.089.104-.912c.09-.786-.034-.939-.909-1.114-.557-.111-1.005-.295-.998-.408.01-.114.35-1.842.758-3.84l.74-3.632 2.702-.096c2.583-.092 2.708-.063 2.862.661.596 2.788 1.179 6.041 1.179 6.569 0 .445-.236.625-.815.625-.466 0-.958.271-1.154.639-.442.827-.438.87.177 1.484.734.732 9.432.765 10.035.038zm-14.766-13.472c.086-.408.644-3.157 1.24-6.108.598-2.951 1.193-5.367 1.324-5.367.133 0 .727 2.564 1.321 5.697.593 3.133 1.149 5.882 1.234 6.108.115.309-.526.413-2.562.413-2.64 0-2.71-.02-2.557-.743z"/><path style="fill:#8d9093" d="M150.161 50.498c1.228 2.078 1.551 2.73 3.348 6.771.929 2.088 2.047 4.581 2.483 5.54.436.958.793 1.814.793 1.901 0 .088.609 1.585 1.354 3.328 1.724 4.033 2.512 7.879 2.949 14.397.586 8.694-.404 17.789-2.72 25.025-1.025 3.198-3.456 8.804-3.71 8.551-.077-.077.521-1.962 1.33-4.188 2.959-8.159 4.1-14.421 4.1-22.534 0-8.513-.928-14.887-3.155-21.702-1.593-4.872-4.136-9.751-8.237-15.804-6.854-10.813-6.527-12.385 1.465-1.285z"/><path fill="none" d="M0 0h192.756v192.754H0V0z"/></svg>