<svg xmlns="http://www.w3.org/2000/svg" viewBox="0 0 233 35"><path d="M119.133 1.146c-6.3 7.067-12.41 14.134-18.71 21.2v10.697h5.536v-9.36c1.337-1.527 2.673-3.055 4.01-4.392.191.19 6.682 9.55 9.737 13.752h6.682c-4.2-5.921-8.401-12.033-12.601-17.954 3.628-4.202 11.837-13.561 12.028-13.943h-6.682ZM5.537 1.146H0v31.897h20.81v-5.157H5.537V1.146ZM25.774 1.146c.19.382 14.7 22.538 14.7 22.538v9.359h5.728V22.156S32.074 1.146 32.074.955c-2.1.191-4.2.191-6.3.191ZM81.904 21.2 60.712 0v33.043h5.537V12.988l21.191 21.2V1.147h-5.727v20.055M183.09 27.886c-.572.19-.954.19-1.527.19-.382 0-1.336 0-2.482-.19-1.909-.382-3.818-1.337-5.155-2.674-1.145-1.146-2.291-2.674-2.864-4.202-.763-2.101-1.145-4.966 0-7.831 1.146-3.056 3.437-5.54 6.492-6.494a10.803 10.803 0 0 1 3.436-.573c2.482 0 4.773.955 6.682 2.483 1.146-1.337 2.482-2.865 3.628-4.202-5.537-4.775-13.174-4.966-18.901-1.146-4.773 3.056-7.446 8.213-7.446 13.943 0 7.449 4.964 14.134 12.028 16.044 6.109 1.528 12.601-.573 16.419-5.73-1.337-1.146-2.864-2.292-4.2-3.438-1.528 1.91-3.628 3.247-6.11 3.82ZM150.825 28.268c1.337-1.337 2.673-2.674 3.819-4.011h-4.582l-1.528 1.528-4.009-4.584c.191-.191.573-.382.764-.764.954-.764 1.718-1.528 2.482-2.674.381-.955.954-2.483.381-4.202-.381-1.72-1.718-3.056-3.245-3.82-3.246-1.528-7.064.382-7.828 3.82-.191.955-.191 2.1 0 3.247.382.382.573.955.764 1.337.573.955 1.336 1.719 2.1 2.674-.955.764-2.1 1.528-2.673 2.483-.191.382-.573.764-.955 1.528-.381.764-.381 1.719-.381 2.674.191 1.91 1.145 3.438 2.482 4.584 1.145.764 2.291 1.337 3.627 1.528h1.718c.382 0 .573-.191.955-.191.573-.191 1.336-.573 1.909-.955s1.146-1.146 1.909-1.72c.764.765 1.528 1.72 2.1 2.484h4.391c-1.336-1.72-2.863-3.438-4.2-4.966Zm-10.691-14.325c.191-.382.382-.764.763-1.146.573-.382 1.146-.573 1.91-.573 1.527.19 2.482 1.337 2.482 2.674 0 1.146-.764 1.719-1.146 2.1l-.573.574c-.191.19-.763.573-1.336 1.146a13.854 13.854 0 0 1-1.718-2.101c-.191-.764-.573-1.72-.382-2.674Zm5.727 14.325c-.382.382-.954.764-1.336 1.146-.191.19-.573.382-.573.382-.191 0-.191.19-.382.19s-.572.192-.763.192c-.382 0-.955 0-1.528-.382-1.145-.573-1.909-1.528-1.909-2.674 0-.573 0-.955.191-1.337 0-.191.191-.382.382-.573.382-.764 1.145-1.337 2.291-2.101 1.336 1.528 2.864 3.247 4.2 4.775-.382.19-.382.382-.573.382ZM207.528 19.1h-5.537c.382 3.82 2.1 7.258 4.773 9.932 1.528 1.528 3.055 2.292 3.628 2.674.763.382 1.527.764 2.291.955 1.336.382 3.054.764 5.154.764 2.291 0 5.155-.573 8.019-2.674 3.055-2.101 5.346-5.348 6.491-8.977 1.337-4.775.764-10.887-3.055-15.471-2.863-3.629-7.254-5.921-11.836-5.921-4.01 0-7.828 1.528-10.692 4.393 1.337 1.146 2.864 2.292 4.2 3.629 2.673-2.292 5.728-2.674 8.019-2.292 1.909.382 3.818 1.337 5.155 2.674 2.1 2.1 3.245 4.966 3.245 8.022 0 3.247-1.336 6.494-4.009 8.786-1.336 1.146-2.864 1.719-4.391 2.1-1.718.383-3.628.192-5.346-.572-3.054-1.146-5.536-4.202-6.109-8.022Z"/></svg>