<svg xmlns="http://www.w3.org/2000/svg" xmlns:xlink="http://www.w3.org/1999/xlink" viewBox="0 0 707.5 747.5" xml:space="preserve"><defs><linearGradient id="b"><stop style="stop-color:#fff;stop-opacity:1" offset="0"/><stop style="stop-color:#919191;stop-opacity:1" offset="1"/></linearGradient><linearGradient id="a"><stop style="stop-color:#999;stop-opacity:1" offset="0"/><stop style="stop-color:#d7d7d7;stop-opacity:1" offset="1"/></linearGradient><linearGradient xlink:href="#a" id="c" gradientUnits="userSpaceOnUse" x1="483.479" y1="445.668" x2="478.44" y2="240.381" gradientTransform="matrix(1.25 0 0 -1.25 0 747.5)"/><radialGradient xlink:href="#b" id="d" gradientUnits="userSpaceOnUse" gradientTransform="matrix(3.61409 -2.70119 -1.66812 -2.23188 548.508 1223.555)" cx="35.818" cy="390.012" fx="35.818" fy="390.012" r="35.059"/></defs><path style="fill:#43565c;fill-opacity:1;fill-rule:nonzero;stroke:none" d="M291.082 257.743c-20.833-28.207-45.637-44.03-71.176-56.747-4.137-2.06-8.3-4.041-12.475-5.984 12.098 4.762 23.788 10.2 42.473 20.858 20.495 11.69 38.915 36.626 50.554 53.866 1.443 2.139 2.91 4.28 4.383 6.414-4.532-5.883-9.081-12.074-13.759-18.407"/><path style="fill:#657681;fill-opacity:1;fill-rule:evenodd;stroke:none" d="M84.588 303.404a427.047 427.047 0 0 0 3.242 22.28C138.773 496.05 198.04 508.7 343.7 515.148c113.15 5.006 177.921-23.074 216.067-58.237 38.18-35.192 49.912-77.67 56.595-102.001 4.803-17.484 7.983-34.366 9.382-51.501l81.11-.005c-3.293 55.027-20.592 108.289-57.149 155.43-45.203 55.674-115.877 81.28-177.034 92.922-61.188 11.648-113.118 9.377-121.087 9.124-7.956-.253-37.053.159-72.9-2.947-35.859-3.11-78.582-9.743-113.707-24.14-15.475-6.342-28.847-12.856-40.611-19.7-31.814-19.164-61.231-47.04-75.614-67.503-18.055-25.689-39.73-70.688-45.929-143.179l81.765-.007zm265.116 0c2.48 3.435 4.424 5.44 5.477 5.711.625-.114 1.35-.626 2.419-1.911.831-.999 1.738-2.298 2.697-3.795l70.83-.005c-12.23 9.161-22.818 19.64-32.782 32.187-16.282 20.504-25.596 40.671-28.573 50.496-3.098 10.228-8.992 18.848-9.908 20.127-1.088 1.519-6.079 2.812-7.75-.095-1.72-1.538-3.474-4.705-5.078-8.852-2.095-5.41-4.71-13.876-9.988-24.522-5.253-10.591-13.162-23.372-25.87-37.475-10.973-12.175-22.385-22.849-34.044-31.861l72.57-.005"/><path style="fill:#657681;fill-opacity:1;fill-rule:evenodd;stroke:none" d="M2.823 303.404c-1.116-13.056-1.73-27.013-1.73-41.91v-.465l.001-.451.002-.453.004-.451c.55-68.743 32.117-131.075 55.118-157.9 3.161-3.688 14.764-16.999 24.786-26.433C109.81 48.225 187.713-3.205 361.335 1.5c98.744.228 158.884 13.206 199.573 30.859 20.352 8.83 35.808 18.818 48.777 28.93 12.915 10.075 23.358 20.275 33.733 29.582l.277.25.117.354c.067.2 49.153 59.254 60.283 142.836 3.079 23.128 4.124 46.26 2.759 69.088l-81.11.006c1.426-17.492.995-35.25-1.465-54.182-1.729-9.857-3.538-17.74-4.844-22.926.286-.194-1.748 1.569-1.748 1.569s-14.4 8.92-84.147 29.936c-46.376 13.974-77.734 27.11-102.412 45.6l-70.83.002c.197-.304.397-.621.6-.946 2.386-3.833 4.937-8.515 7.293-12.353 5.206-8.476 21.015-30.996 43.49-52.062 21.94-20.565 74.6-44.788 113.511-59.242a453.353 453.353 0 0 0 19.395-7.705c16.012-7.382 31.862-16.75 46.073-26.12-.931-3.633-1.985-5.965-2.551-7.142 0 0-.683-1.771-2.27-4.755-1.618-3.041-4.183-7.37-7.97-12.521-7.584-10.314-20.093-23.96-39.762-37.196-9.138-6.31-22.373-13.306-39.703-20.986-34.507-14.167-81.568-24.659-145.288-24.659-98.708 0-156.437 24.894-189.453 49.639-16.516 12.377-26.877 24.739-33.1 33.98-3.104 4.609-5.184 8.449-6.487 11.138-1.276 2.63-3.177 6.408-3.177 6.408-1.877 5.254.254 7.494 4.087 9.986 7.755 5.042 19.378 11.97 21.512 13.238 9.422 4.678 22.406 10.529 39.007 16.696 38.91 14.454 91.57 38.677 113.51 59.242 22.501 21.09 37.224 44.035 42.403 52.467 2.348 3.822 5.118 8.408 7.74 12.135.184.263.367.517.546.765l-72.57-.006c-15.428-11.922-31.284-20.94-47.11-26.677-28.03-10.162-56.761-16.465-69.375-20.32-6.013-1.838-13.251-4.143-19.189-6.054a2546.539 2546.539 0 0 1-9.651-3.132l-1.504-.519c-13.634-4.755-27.607-10.757-40.78-18.383-.514-.298-.835-.365-1.01-.371a.587.587 0 0 0-.377.106c-.144.093-.315.257-.526.535-.239.315-.45.656-.659.97-.76 1.141-3.742 25.443-4.245 54.17.06-.001.448 7.635 1.88 19.679l-81.765-.005"/><path d="M85.722 322.974c51.387 174.262 111.164 187.254 258.13 193.756 226.823 10.038 260.7-112.563 274.077-161.266 14.765-53.756 6.5-124.049 6.5-124.049l23.036 78.564-45.483 147.677-63.796 47.26-67.929 20.671-108.687 12.404-138.81-12.404-78.561-39.575-39.579-56.707-15.356-53.756s-6.5-38.394-3.542-52.575z" style="fill:#ccc"/><path d="M620.319 213.07s24.824 102.794-14.79 184.925c-39.614 82.132-77.302 132.305-253.375 132.9-176.074.594-212.644-72.692-239.845-123.459-27.202-50.767-30.697-123.458-30.697-123.458l-3.201 85.387 50.399 94.782 41.991 38.427 59.612 25.942 159.5 10.035 70.31-10.035 74.996-18.88 71.498-59.684 28.32-102.2-2.9-113.353c-4.4-17.404-8.34-24.514-11.818-21.329z" style="fill:#666"/><path d="m50.4 159.232 16.34 10.712s-2.56 118.921-3.07 120.934c-.513 2.012 0 66.317 0 66.317l20.91 81.601-9.176 7.675-44.38-117.351 4.604-96.918 9.177-60.723 5.594-12.247z" style="fill:gray"/><path d="M625.143 216.21s25.2 105.5-12.918 187.029c-38.118 81.531-65.591 122.684-251.974 130.019-151.182 3.79-190.485-35.57-218.427-64.214-22.103-22.658-37.48-60.566-37.48-60.566s-68.23-126.25-61-86.424c9.476 52.184 24.6 126.96 83.369 173.895 35.998 28.75 108.602 46.47 108.602 46.47l113.714 8.999 101.747-6.034 160.934-62.048 68.821-150.457c-3.206-69.929-9.946-127.778-20.222-173.542l-22.446 19.378-12.72 37.495z" style="fill:url(#c);fill-opacity:1"/><path d="M57.188 114.134s-2.966 31.725 4.128 50.351c-9.586 15.352-22.21 61.339-23.846 98.282-1.637 36.946 5.265 133.354 52.886 188.38-7.95 15.044-12.686 24.308-12.686 24.308S2.709 424.571 2.709 261.676c0-78.563 42.322-149.159 64.768-167.786-6.857 9.586-10.29 20.244-10.29 20.244z" style="fill:url(#d);fill-opacity:1"/><path style="fill:#121113;fill-opacity:1;fill-rule:nonzero;stroke:none" d="M8.097 292.954s2.153 78.93 31.654 129.001c29.5 50.07 56.115 82.091 125.973 110.723 69.857 28.632 170.222 26.478 186.119 26.982 15.896.504 207.192 9.069 296.977-101.516 51.441-66.333 64.819-144.898 54.099-223.462-10.719-78.565-50.573-124.466-50.573-124.466s5.543 14.246-1.009 53.598c9.713 16.905 25.47 73.022 22.448 117.916-3.024 44.894-11.262 105.789-45.396 153.464-21.943 30.647-39.35 52.086-87.267 74.533-47.915 22.447-121.298 33.67-187.63 32.663-66.33-1.009-130.142-6.185-183.737-30.647-53.597-24.463-82.089-61.66-102.52-91.3-20.43-29.64-4.672-14.613-29.638-39.213-24.965-24.601-29.5-88.276-29.5-88.276"/><path style="fill:#c9cdd1;fill-opacity:1;fill-rule:nonzero;stroke:none" d="M58.746 101.51S127.955-3.244 361.511 3.083c197.305.453 239.774 51.86 281.183 89.013.896 2.71-16.404 16.738-16.404 16.738l-28.4 10.663-81.346-63.857-144.508-31.503s-135.991 16.1-141.642 15.403c-5.65-.696-94.738 49.074-94.738 49.074L119 139.689 66.228 99.838l-7.482 1.672"/><path d="M71.138 93.558s63.338-94.725 290.17-88.58c191.623.44 238.17 55.302 278.387 91.386-12.83 10.957-26.338 9.424-26.338 9.424l-22.476 12.252-79.005-62.019L371.53 25.426S239.455 41.063 233.966 40.385c-5.487-.676-92.011 47.661-92.011 47.661l-45.903 28.526-27.72-16.7 2.806-6.314z" style="fill:#e6e6e6"/><path d="M71.138 104.08s76.457-85.579 280.576-85.579c204.12 0 278.699 69.101 286.527 79.539-8.868 11.405-24.888 23.577-24.888 23.577C561.06 88.76 511.958 62.802 466.049 43.755L342.596 25.516s-145.9 33.67-148.706 33.67c-2.805 0-78.561 53.312-78.561 53.312s-6.196 10.422-11.956 9.132c-15.692-12.714-32.235-17.55-32.235-17.55z" style="fill:gray"/><path style="fill:#2a2e33;fill-opacity:1;fill-rule:nonzero;stroke:none" d="M589.523 137.463S551.236 36.495 353.33 36.495c-197.905 0-232.161 99.838-232.161 99.838l-9.462-16.577 33.67-46.067 89.197-40.785 61.952-9.473 59.153-2.925 75.824 4.123 59.705 12.72 82.406 41.692 44.638 35.375 3.19 3.579-31.92 19.468"/><path d="M583.926 153.102s-19.102 12.735-58.032 27.195c-38.929 14.462-91.332 38.604-113.039 58.95-22.368 20.965-38.1 43.384-43.254 51.775-5.154 8.39-11.244 20.828-14.481 19.614-.404 7.178-2.023 50.046-2.023 50.046l2.428 1.62 20.422-35.29 67.744-73.708 30.836-32.862 105.054-50.153 4.345-17.187z" style="fill:#b3b3b3"/><path style="fill:#121113;fill-opacity:1;fill-rule:nonzero;stroke:none" d="M522.018 182.869c-12.645 5.544-71.98 24.245-101.364 60.14-10.019 12.237-27.586 44.465-32.384 52.261-4.797 7.798-28.015 57.489-33.67 64.343-5.654 6.855 30.157-28.958 30.157-28.958s97.152-86.361 99.294-87.646c2.143-1.285 36.668-32.385 36.668-32.385s11.222-32.106 1.298-27.755"/><path d="M645.971 105.328s-50.888 44.895-102.721 68.197c-51.831 23.305-116.483 45.596-155.188 130.746-29.43 51.931 45.957-46.611 45.957-46.611l39.666-28.445 92.011-41.039 47.034-30.157 33.241-52.692z" style="fill:#333"/><path d="M646.827 104.471s-36.208 36.459-87.213 65.199c-16.878 9.51-61.755 29.164-82.417 40.096-45.518 24.087-69.052 66.485-76.42 75.138-7.367 8.654-45.32 76.851-45.32 76.851l16.363-3.513 63.055-83.276 51.319-31.1 117.027-36.67 38.382-31.957s9.298 4.716 12.08-38.81c1.713-26.818-6.855-31.958-6.855-31.958z" style="fill:#e6e6e6"/><path d="m560.744 247.531-77.509 24.901-43.49 17.888-55.063 41.036s-12.977 23.149-14.028 28.059c-1.053 4.91-9.119 31.566-9.119 31.566l-1.052 8.769-2.807 3.506-2.455-15.782 1.385-21.539 10.75-19.89 12.417-21.352 23.147-24.903 31.915-18.94 54.011-16.835 44.893-11.574 27.005-4.91z" style="fill:#333"/><path d="M617.067 226.914s-14.255 8.796-83.717 29.726c-69.463 20.93-105.556 40.063-135.89 78.261-16.38 20.628-25.784 40.951-28.816 50.961-3.033 10.01-8.824 18.484-9.706 19.718-.91 1.27-5.59 1.813-5.65-.917-.02-.94 4.01 2.55 5.376-7.488-.044-11.644 1.024-32.254 7.857-44.376 9.403-16.685 23.659-36.705 46.711-50.355 23.054-13.65 52.78-25.479 72.192-32.456 19.414-6.978 67.945-20.324 88.875-27.908 20.929-7.584 47.317-19.111 47.317-19.111l-4.548 3.945z" style="fill:#999"/><path d="M357.183 364.325s1.126 31.983 0 35.36c-1.125 3.377-6.72-1.69-6.72-1.69l-22.728-53.02-31.98-33.108-48.551-30.328-21.32-8.409-34.233-10.661-14.037-4.221-2.815-8.128 71.561 17.416 53.583 28.04 27.51 25.825 20.477 28.041 9.252 14.883z" style="fill:#b3b3b3"/><path d="M127.199 153.102s19.102 12.735 58.031 27.195c38.93 14.462 91.333 38.604 113.04 58.95 22.368 20.965 37.014 43.788 42.166 52.18 5.154 8.39 12.332 20.423 15.569 19.21.404 7.177 2.023 50.045 2.023 50.045l-2.428 1.62-20.424-35.29-67.742-73.708-30.838-32.862-105.054-50.153-4.343-17.186z" style="fill:#ccc"/><path d="m348.632 350.275-27.766-34.667-50.424-43.27-160.202-62.502-48.83-44.142S50 128.27 57.145 114.375c-.256-4.36 7.877-27.038 10.91-19.976 8.27 8.411 18.228 20.9 52.178 43.066-2.927 6.89-.19 9.905 4.202 12.761 8.586 5.581 21.904 13.473 21.904 13.473l28.6 15.772 55.681 28.069 29.478 18.584 28.83 30.365 21.567 26.632 23.325 30.365 23.883 47.658-9.072-10.869z" style="fill:#e6e6e6"/><path clip-rule="evenodd" d="M115.086 429.683c-12.356-8.674-27.877-15.86-43.018-25.563-12.172-7.801-21.755-40.096-26.519-66.957-16.966-95.668 16.553-165.994 16.553-165.994s.588-1.655-.06-2.247c-2.434-2.226-.687-6.233 3.14-3.69 42.799 28.44 53.768 28.685 87.293 44.322 48.011 22.391 98.344 22.182 151.739 75.997 25.416 25.616 50.675 76.054 53.605 75.425-.21 5.024-.97 28.743-.97 28.743s1.355-22.815-5.919-34.26c-29.501-46.414-72.72-65.723-72.72-65.723s-37.226-19.383-95.567-30.607c-25.152-4.839-60.976-13.765-92.202-31.843-2.583-1.495-3.542.328-4.441 1.678-1.7 2.55-8.426 66.846-1.452 108.199 6.474 38.386 15.349 59.156 30.538 92.52z" style="fill:#1a1a1a"/><path style="fill:#3c444b;fill-opacity:1;fill-rule:nonzero;stroke:none" d="M68.401 94.651s18.754 22.212 50.788 42.923c-13.396-4.969-19.393-5.744-31.499-14.975C79.563 116.4 68.401 94.65 68.401 94.65"/><path style="fill:#121113;fill-opacity:1;fill-rule:nonzero;stroke:none" d="M642.245 93.676s-14.88 16.023-24.85 23.486c-9.97 7.464-26.683 19.694-26.683 19.694l30.443-15.05 21.09-28.13"/><path d="M92.71 114.614s26.838-37.177 71.73-58.958S239.276 29.217 267 25.136c26.625-3.92 80.576-4.939 84.817-5.014h.265c4.367.073 61.395 1.09 88.05 5.014 27.724 4.081 57.898 7.85 102.79 29.631 44.893 21.782 76.508 60.927 76.508 60.927s-11.262 2.646-18.139 8.28c-6.876 5.633-9.46 3.091-9.46 3.091s-.612-15.556-21.505-38.314c-20.895-22.757-53.186-36.2-94.973-51.149-40.397-14.452-118.14-14.934-123.27-14.95h-.265c-4.998.017-79.663.504-120.04 14.95-41.787 14.95-66.095 32.118-86.99 54.876-20.892 22.757-25.24 45.825-25.24 45.825s-6.83-8.695-13.707-14.33c-6.876-5.633-13.13-9.36-13.13-9.36z" style="fill:#1a1a1a"/><path style="fill:#3c444b;fill-opacity:1;fill-rule:evenodd;stroke:none" d="M304.764 276.204a4323.5 4323.5 0 0 0-13.606-18.518c-20.845-28.223-45.664-44.053-71.21-56.775a527.445 527.445 0 0 0-12.477-5.985c12.019 4.934 23.705 10.372 42.387 21.027 20.472 11.677 38.88 36.595 50.522 53.837a678.449 678.449 0 0 0 4.384 6.414zM62.577 105.82c3.657 4.046 32.572 28.445 80.164 59.491 48.63 31.721 105.211 38.616 146.16 94.061 31.894 43.184 35.168 38.572 63.896 91.95-5.336-15.232-10.97-25.837-18.192-37.146-7.22-11.31-20.291-28.778-31.9-45.975-11.609-17.195-30.344-42.664-51.461-54.709-21.118-12.044-33.364-17.468-47.166-22.987-13.804-5.518-36.29-14.252-58.045-26.665-21.755-12.414-59.141-37.976-83.456-58.02"/><path d="M359.15 361.52c21.511-46.579 42.274-73.328 85.389-104.52 24.951-18.051 42.956-21.378 71.43-32.675 18.86-7.485 30.191-9.885 48.983-17.538 34.344-13.987 49.645-20.87 84.974-42.662 2.455 8.325-15.812 41.014-28.859 60.2-36.707 16.169-66.256 25.142-110.22 35.434-26.373 6.173-45.775 12.55-72.575 23.382-44.892 18.147-57.883 40.491-79.122 78.379z" style="fill:#1a1a1a"/><path d="M347.155 359.415c6.966 13.768 10.171 25.955 10.171 38.23 0 12.276-4.56 10.171-8.769-.701-4.208-10.873-10.52-34.021-36.123-62.431-25.603-28.41-53.66-48.752-81.718-58.924-28.057-10.17-56.817-16.484-69.444-20.343-12.625-3.857-30.662-9.78-30.662-9.78l31.715 8.028s71.897 16.134 112.932 40.334c41.034 24.2 60.887 43.828 71.898 65.587z" style="fill:#ccc"/><path style="fill:#c9cdd1;fill-opacity:1;fill-rule:nonzero;stroke:none" d="M57.14 114.191c-1.565 1.903-41.67 51.433-54.431 147.485 0-74.352 38.044-143.292 61.15-166.26-3.234 4.825-6.742 15.603-6.719 18.775"/><path style="fill:#121113;fill-opacity:1;fill-rule:nonzero;stroke:none" d="M119.393 138.079s-10.138-13.346-22.822-23.294c-12.684-9.949-22.35-14.006-22.35-14.006s7.023 8.627 21.312 19.896c14.289 11.27 23.86 17.404 23.86 17.404"/><path style="fill:#c9cdd1;fill-opacity:1;fill-rule:nonzero;stroke:none" d="M74.278 100.873s8.1 2.49 19.935 12.062c0 0 25.42-34.487 63.025-53.631 37.603-19.142 74.753-31.077 125.747-36.12 0 0-62.92 2.131-126.831 34.632-36.236 18.427-62.227 52.372-62.227 52.372-6.334-4.67-12.884-7.774-19.649-9.316"/><path d="M650.413 162.406s6.918 9.026 15.505 43.706c6.526 26.362 7.943 52.263 7.943 52.263s-5.54-53.903-23.935-94.207l.487-1.762z" style="fill:#e6e6e6"/><path d="M352.099 18.52c4.622-.114 61.58.805 88.309 4.74 13.92 2.05 28.453 4.022 45.143 8.215 16.725 4.201 35.612 10.626 58.199 21.586 22.674 11.002 41.955 26.364 55.549 38.945a269.288 269.288 0 0 1 16.38 16.556 216.13 216.13 0 0 1 5.096 5.84l-1.345 1.292s-31.615-39.145-76.507-60.926c-44.893-21.782-75.067-25.55-102.792-29.632-26.653-3.924-88.032-6.616-88.032-6.616z" style="fill:#f2f2f2"/><path clip-rule="evenodd" d="M186.235 493.029c88.655 42.116 266.651 39.615 342.879 0-80.144 48.317-255.203 50.819-342.879 0z" style="fill:#e6e6e6"/><path d="M615.924 398.606h30.735s-33.631 87.596-127.75 118.081c-39.386 12.76-98.381 13.455-98.381 13.455 107.636-6.31 162.983-40.725 195.396-131.536z" style="fill:#ccc"/><path style="fill:#fff;fill-opacity:1;fill-rule:nonzero;stroke:none" d="M373.592 332.911s28.135-59.106 94.805-92.522c17.557-8.8 46.944-15.854 46.944-15.854l-17.105 6.429c-19.144 6.885-34.327 12.022-53.697 26.036-33.265 24.066-53.224 45.488-70.488 75.41l-.459.501"/><path clip-rule="evenodd" d="M363.679 358.979s12.962-57.579 105.697-85.151c-59.114 22.35-85.436 41.875-105.697 85.15z" style="fill:#b3b3b3"/><path d="M354.072 401.496c-.695-1.119-1.623-2.907-2.685-5.647-2.126-5.494-4.79-14.084-10.15-24.893-5.418-10.926-13.55-24.049-26.55-38.475-10.8-11.984-22.053-22.57-33.585-31.592 35.8 22.032 53.376 40.193 63.346 59.896 6.8 13.44 9.845 25.159 9.845 36.86 0 1.631-.088 2.9-.22 3.851z" style="fill:#e6e6e6"/><path d="m589.625 137.923 2.151 6.4s10.703-5.905 29.958-20.745c19.255-14.842 25.212-19.257 25.212-19.257s5.52 4.25 24.994 36.029c0 0-6.07-18.705-28.139-46.4l-22.399 27.641-31.777 16.332z" style="fill:#ececec"/><path d="M286.756 256.529c-31.011-33.367-52.88-40.939-92.588-55.151-38.133-13.648-53.853-35.094-56.835-39.62 1.775 1.174 3.578 2.36 5.408 3.553 47.786 31.171 103.25 38.37 144.015 91.218z" style="fill:#666"/><path style="fill:#0080c5;fill-opacity:1;fill-rule:nonzero;stroke:none" d="M467.342 720.994h35.97s15.718-.107 15.718-24.792c0-25.167-15.719-25.204-15.719-25.204h-35.969v49.996zm-224.374-16.827c-3.827 0-6.93 3.545-6.93 7.917 0 4.374 3.103 7.918 6.93 7.918l41.942-.008v-15.82l-41.943-.007zm341.348.001c-3.826 0-6.929 3.545-6.929 7.918 0 4.372 3.103 7.917 6.93 7.917l41.942-.008v-15.82l-41.943-.007zm-14.646-20.444h57.197c.01-5.573-.376-14.397-13.44-14.403-13.496-.007-58.668 0-58.668 0v-25.129s43.613.013 71.5.006c17.412-.004 31.173 7.096 31.176 27.9l-.014 75.304h-87.56l1 .066c-11.596 0-21.346-10.208-24.082-24.008-7.796 23.94-26.648 23.93-41.23 23.894l-70.488.001v-80.848L335.878 747.4H228.514l.997.066c-9.63 0-17.988-7.042-22.11-17.336l-.017 17.27h-30.636v-66.43s-.072-8.849-9.498-8.87h-22.647v75.3h-30.308v-75.3h-31.78v75.3H51.1l.05-103.21 127.881-.003c14.114 0 28.402 9.268 28.402 27.914l-.012 28.855c4.128-10.258 12.461-17.27 22.071-17.27l-1.17.036h57.198c.007-5.573-.378-14.396-13.443-14.403-13.495-.006-58.666 0-58.666 0V644.19s43.613.013 71.499.006c17.412-.004 31.175 7.096 31.176 27.9l-.009 51.792 100.154-79.698H505.792c18.611 0 44.605.001 44.605 51.453l-.011 1.852c4.479-8.341 11.969-13.809 20.455-13.809l-1.171.037zM327.063 644.19h71.488l-31.656 27.91h-39.852l.02-27.91zm98.713 103.13h-71.489l31.658-27.91h39.851l-.02 27.91"/><path clip-rule="evenodd" d="M188.941 260.349s6.408 1.4 8.456 1.88c23.46 5.35 42.754 11.765 56.6 17.055 11.838 5.365 25.113 12.392 39.525 21.597 59.125 37.765 59.45 69.27 59.45 69.27s-.842-21.687-36.922-51.834c-36.359-30.38-98.15-49.636-116.422-54.872-3.35-.96-10.687-3.096-10.687-3.096z" style="fill:gray"/></svg>