<svg xmlns="http://www.w3.org/2000/svg" width="285.8" height="285.7" viewBox="0 0 285.8 285.7"><path d="M283.2,91.9c-0.2-1.7-0.4-3.4-0.6-5.1c-0.2-1.1-0.6-2.1-1.2-3c-1-1.3-2.1-2.7-3.2-4c-1.5-1.8-2.9-3.6-4.4-5.3
		c-9.5-11.3-19.4-22.2-29.9-32.6c-10.4-10.4-21.3-20.4-32.6-29.9c-1.8-1.5-3.5-2.9-5.3-4.4c-1.3-1.1-2.6-2.1-4-3.2
		c-0.9-0.6-1.9-1-3-1.2c-1.7-0.2-3.4-0.4-5.1-0.6c-2.2-0.2-4.5-0.4-6.8-0.6c-14.7-1.3-29.4-1.9-44.2-2s-29.5,0.6-44.2,2
		c-2.3,0.2-4.6,0.4-6.8,0.7c-1.7,0.2-3.4,0.4-5.1,0.6c-1.1,0.2-2.1,0.6-3,1.2c-1.3,1-2.7,2.1-4,3.2c-1.8,1.4-3.5,2.9-5.3,4.3
		c-11.3,9.5-22.2,19.4-32.6,29.9S21.5,63.2,12,74.5c-1.5,1.8-2.9,3.5-4.4,5.3c-1.1,1.3-2.2,2.7-3.2,4c-0.6,0.9-1,1.9-1.2,3
		c-0.2,1.7-0.4,3.4-0.6,5.1c-0.2,2.3-0.5,4.6-0.7,6.8C0.6,113.4,0,128.1,0,142.9s0.6,29.5,1.9,44.2c0.2,2.3,0.4,4.6,0.7,6.8
		c0.2,1.7,0.4,3.4,0.6,5.1c0.2,1.1,0.6,2.1,1.2,3c1,1.4,2.1,2.7,3.2,4c1.4,1.8,2.9,3.6,4.4,5.3c9.5,11.3,19.4,22.2,29.9,32.6
		s21.3,20.4,32.6,29.9c1.8,1.5,3.5,2.9,5.3,4.4c1.3,1.1,2.7,2.1,4,3.1c0.9,0.6,1.9,1.1,3,1.3l5.1,0.6c2.3,0.2,4.6,0.5,6.8,0.6
		c14.7,1.3,29.4,1.9,44.2,2s29.5-0.6,44.2-2c2.3-0.2,4.6-0.4,6.8-0.6c1.7-0.2,3.4-0.4,5.1-0.6c1.1-0.2,2.1-0.6,3-1.3
		c1.4-1,2.7-2.1,4-3.1c1.8-1.5,3.6-2.9,5.3-4.4c11.3-9.5,22.2-19.4,32.6-29.9s20.4-21.3,29.9-32.6c1.5-1.8,2.9-3.5,4.4-5.3
		c1.1-1.3,2.1-2.7,3.2-4c0.6-0.9,1-1.9,1.2-3c0.2-1.7,0.4-3.4,0.6-5.1c0.2-2.3,0.4-4.6,0.6-6.8c1.3-14.7,2-29.4,2-44.2
		s-0.7-29.5-2-44.2C283.6,96.4,283.4,94.1,283.2,91.9z M262.3,180.3c-0.2,1.9-0.4,3.9-0.5,5.8c-0.2,1.4-0.4,2.9-0.5,4.3
		c-0.2,0.9-0.5,1.8-1.1,2.5c-0.9,1.1-1.8,2.3-2.7,3.4c-1.2,1.5-2.4,3-3.7,4.5c-8,9.6-16.5,18.8-25.3,27.6
		c-8.8,8.9-18.1,17.3-27.7,25.3c-1.5,1.2-3,2.5-4.5,3.7c-1.1,0.9-2.2,1.8-3.4,2.7c-0.8,0.5-1.6,0.9-2.5,1.1
		c-1.4,0.2-2.9,0.4-4.3,0.5c-1.9,0.2-3.8,0.4-5.8,0.5c-12.5,1.1-25,1.6-37.4,1.6c-12.5,0-25-0.5-37.4-1.6c-2-0.2-3.9-0.4-5.8-0.5
		c-1.4-0.2-2.9-0.3-4.3-0.5c-0.9-0.2-1.8-0.5-2.5-1.1c-1.2-0.9-2.3-1.8-3.4-2.7c-1.5-1.2-3-2.5-4.5-3.7c-9.6-8-18.8-16.5-27.7-25.3
		S40,210.5,32,200.9c-1.2-1.5-2.5-3-3.7-4.5c-0.9-1.1-1.8-2.3-2.7-3.4c-0.5-0.8-0.8-1.6-1-2.5c-0.2-1.4-0.4-2.9-0.5-4.3
		c-0.2-1.9-0.4-3.9-0.6-5.8c-1.1-12.5-1.6-24.9-1.6-37.4c0-12.5,0.5-25,1.6-37.4c0.2-1.9,0.4-3.9,0.6-5.8c0.1-1.4,0.3-2.9,0.5-4.3
		c0.1-0.9,0.5-1.8,1-2.5c0.9-1.2,1.8-2.3,2.7-3.4c1.2-1.5,2.5-3,3.7-4.5c8-9.6,16.4-18.8,25.2-27.7S75.3,40,84.9,32
		c1.5-1.2,3-2.5,4.5-3.7c1.1-0.9,2.3-1.8,3.4-2.7c0.8-0.5,1.6-0.9,2.5-1c1.4-0.2,2.9-0.4,4.3-0.5c1.9-0.2,3.8-0.4,5.8-0.6
		c12.4-1.1,24.9-1.6,37.4-1.7c12.5,0,25,0.5,37.4,1.7c1.9,0.2,3.9,0.4,5.8,0.6c1.4,0.2,2.9,0.3,4.3,0.5c0.9,0.1,1.8,0.5,2.5,1
		c1.1,0.9,2.3,1.8,3.4,2.7c1.5,1.2,3,2.5,4.5,3.7c9.6,8,18.8,16.4,27.7,25.3s17.3,18.1,25.3,27.6c1.2,1.5,2.5,3,3.7,4.5
		c0.9,1.1,1.8,2.2,2.7,3.4c0.5,0.8,0.9,1.6,1.1,2.5c0.2,1.4,0.3,2.9,0.5,4.3c0.2,1.9,0.4,3.8,0.5,5.8c1.1,12.5,1.7,25,1.7,37.4
		S263.4,167.9,262.3,180.3z" class="st0"></path><path d="M247.7,143.2c-1.2-0.1-11.7-0.1-17.3-0.2c-7.4-0.1-12.4,0-14.8,0c-0.7,0-0.8,0-1.6,0c0,0.6,0,0.9-0.1,1.6
		c0,0.5-0.1,2.4-0.2,4.8c-0.1,4-0.3,9.7-0.2,13.8c0,0.8,0,1,0,1.4c0.4,0,7.4,0,12,0.1h1.3c0,0.3,0,0.7,0,1.2s-0.7,9.1-1.1,11.6
		c-1.3,2-2.8,3.9-4.4,5.6c-2.6,3-3,3.7-11.1,12.2c-8.4,8.8-24.2,23.1-29.9,28c-1.2,1-3.6,3.2-3.6,3.2s0.1-3,0-4.5
		c0.2-56.4,0.1-96.5-0.1-158.8c0.1-1.4-0.1-2.6,0-4.3c1.8,1.5,1.9,1.5,3.1,2.6c8.3,7.3,17.1,14.9,24.1,22.1
		c9.6,10.1,13.8,14.5,20.7,23.1c0.5,0.6,0.9,1.2,1.3,1.8c0.1,0.8,0.1,0.9,0.3,1.9c0.3,2.4,0.7,7.3,0.8,8.6c0,0.8,0.1,1.1,0.1,1.9
		c0.7,0.1,1.2,0,1.9,0c4.2,0.1,9.2,0.1,13.9,0.1c1.6,0,3.2,0,4.7-0.1c0.8,0,0.8,0,1.5,0c0-0.7,0-1.4,0-2.1c-0.1-5.3-0.5-10.7-1.1-16
		c-0.1-1.1-0.2-2.2-0.4-3.3c-0.6-0.8-1-1.2-1.5-1.9c-8-10.1-16.5-19.7-25.6-28.8c-21.4-21.3-32.8-29.4-32.8-29.4s-0.9-0.7-1.6-1.2
		c-0.9-0.2-0.7-0.1-1.5-0.3c-9-1.1-20.1-1.8-31.1-2.1c-1.5,0-1.9-0.1-3.5,0c0.1,1.1,0.1,2.2,0,3.3c0.2,76.9-0.2,131.6-0.1,207.9v2.3
		c0.8,0.1,1.6,0.1,2.4,0c8.7,0,25.8-1,30.2-1.7c1.3-0.2,2.5-0.4,3.8-0.7c0.7-0.4,1.4-1,2.1-1.6c11.6-9.5,20.2-17.3,31.2-28
		c11.7-11.6,22.3-24.2,24.9-27.2c1.1-1.2,1.8-2.2,3-3.9c0.3-1.4,0.5-2.8,0.6-4.3c1.1-13.3,2-21.7,2-36.8c0-0.8,0-1.2-0.1-2.1
		C248.8,143.2,248.3,143.3,247.7,143.2z"></path><path d="M134.1,36c-1.8,0.1-5.1,0-11.2,0.3c-6.4,0.4-10.1,0.8-11.7,0.9c-0.9,0.1-1.4,0.1-2,0.2
		c-0.2,0.6-0.2,0.5-0.5,1.3c-9.3,24.1-21.3,57.6-31.3,82.4c-0.5,1-1.5,3.7-1.5,3.7s-0.5-0.8-1.7-3.3c-5.2-10.9-16.8-33.8-18.7-37
		c-0.6-1-1.5-3-1.5-3s-1.5,1.5-2.5,2.4c-2.1,1.9-9.6,10.8-11.1,12.9c-0.8,1-1,1.3-1.9,2.6c-0.3,1.4-0.4,2.3-0.7,3.9
		c-0.5,3.2-1.8,16.9-2.1,35.3c0,15,0.9,28.4,2.2,43.3c0.1,0.8,0.4,4,0.4,4s1.6,2.3,2,2.7c7.2,8.8,12.5,15,17.4,20.3l4.3,4.5
		c0,0-0.2-3.2-0.3-4.8s-0.2-3.2-0.3-5.1c-1-16-2.9-43.1-3.4-57.1c-0.1-1.8,0.2-10.2,0.2-10.2L79,179.5c0,0,1.6-3.9,2.2-5.5
		c8.3-21.7,16.3-41.1,24.4-62.8c0.6-1.4,3.5-9.5,3.5-9.5s0.1,8.8,0,10.7c-0.4,60.9-0.2,95.7-0.1,129.1c0,1,0,2,0,3.1
		c0,1.7,0,1.9,0,3c2.2,0.4,1.9,0.4,3.1,0.5c2.7,0.5,5.4,0.8,8.2,0.9c4.6,0.3,9.6,0.4,13.6,0.5c1,0,1.6,0,2.1-0.1c0-1,0-1.4,0-2.4
		c-0.3-77.9,0.5-209.2,0.5-209.2s0-0.7,0-2C135.8,35.9,135,36,134.1,36z"></path></svg>