<svg xmlns="http://www.w3.org/2000/svg" viewBox="0 0 285.8 285.7"><path d="m283.2 91.9-.6-5.1c-.2-1.1-.6-2.1-1.2-3-1-1.3-2.1-2.7-3.2-4-1.5-1.8-2.9-3.6-4.4-5.3-9.5-11.3-19.4-22.2-29.9-32.6-10.4-10.4-21.3-20.4-32.6-29.9-1.8-1.5-3.5-2.9-5.3-4.4-1.3-1.1-2.6-2.1-4-3.2-.9-.6-1.9-1-3-1.2l-5.1-.6c-2.2-.2-4.5-.4-6.8-.6C172.4.7 157.7.1 142.9 0s-29.5.6-44.2 2c-2.3.2-4.6.4-6.8.7l-5.1.6c-1.1.2-2.1.6-3 1.2-1.3 1-2.7 2.1-4 3.2-1.8 1.4-3.5 2.9-5.3 4.3-11.3 9.5-22.2 19.4-32.6 29.9S21.5 63.2 12 74.5c-1.5 1.8-2.9 3.5-4.4 5.3-1.1 1.3-2.2 2.7-3.2 4-.6.9-1 1.9-1.2 3l-.6 5.1c-.2 2.3-.5 4.6-.7 6.8C.6 113.4 0 128.1 0 142.9s.6 29.5 1.9 44.2c.2 2.3.4 4.6.7 6.8l.6 5.1c.2 1.1.6 2.1 1.2 3 1 1.4 2.1 2.7 3.2 4 1.4 1.8 2.9 3.6 4.4 5.3 9.5 11.3 19.4 22.2 29.9 32.6s21.3 20.4 32.6 29.9c1.8 1.5 3.5 2.9 5.3 4.4 1.3 1.1 2.7 2.1 4 3.1.9.6 1.9 1.1 3 1.3l5.1.6c2.3.2 4.6.5 6.8.6 14.7 1.3 29.4 1.9 44.2 2s29.5-.6 44.2-2c2.3-.2 4.6-.4 6.8-.6l5.1-.6c1.1-.2 2.1-.6 3-1.3 1.4-1 2.7-2.1 4-3.1 1.8-1.5 3.6-2.9 5.3-4.4 11.3-9.5 22.2-19.4 32.6-29.9s20.4-21.3 29.9-32.6c1.5-1.8 2.9-3.5 4.4-5.3 1.1-1.3 2.1-2.7 3.2-4 .6-.9 1-1.9 1.2-3l.6-5.1c.2-2.3.4-4.6.6-6.8 1.3-14.7 2-29.4 2-44.2s-.7-29.5-2-44.2c-.2-2.3-.4-4.6-.6-6.8zm-20.9 88.4c-.2 1.9-.4 3.9-.5 5.8-.2 1.4-.4 2.9-.5 4.3-.2.9-.5 1.8-1.1 2.5-.9 1.1-1.8 2.3-2.7 3.4-1.2 1.5-2.4 3-3.7 4.5-8 9.6-16.5 18.8-25.3 27.6-8.8 8.9-18.1 17.3-27.7 25.3-1.5 1.2-3 2.5-4.5 3.7-1.1.9-2.2 1.8-3.4 2.7-.8.5-1.6.9-2.5 1.1-1.4.2-2.9.4-4.3.5-1.9.2-3.8.4-5.8.5-12.5 1.1-25 1.6-37.4 1.6-12.5 0-25-.5-37.4-1.6-2-.2-3.9-.4-5.8-.5-1.4-.2-2.9-.3-4.3-.5-.9-.2-1.8-.5-2.5-1.1-1.2-.9-2.3-1.8-3.4-2.7-1.5-1.2-3-2.5-4.5-3.7-9.6-8-18.8-16.5-27.7-25.3S40 210.5 32 200.9c-1.2-1.5-2.5-3-3.7-4.5-.9-1.1-1.8-2.3-2.7-3.4-.5-.8-.8-1.6-1-2.5-.2-1.4-.4-2.9-.5-4.3-.2-1.9-.4-3.9-.6-5.8-1.1-12.5-1.6-24.9-1.6-37.4s.5-25 1.6-37.4c.2-1.9.4-3.9.6-5.8.1-1.4.3-2.9.5-4.3.1-.9.5-1.8 1-2.5.9-1.2 1.8-2.3 2.7-3.4 1.2-1.5 2.5-3 3.7-4.5 8-9.6 16.4-18.8 25.2-27.7S75.3 40 84.9 32c1.5-1.2 3-2.5 4.5-3.7 1.1-.9 2.3-1.8 3.4-2.7.8-.5 1.6-.9 2.5-1 1.4-.2 2.9-.4 4.3-.5 1.9-.2 3.8-.4 5.8-.6 12.4-1.1 24.9-1.6 37.4-1.7 12.5 0 25 .5 37.4 1.7 1.9.2 3.9.4 5.8.6 1.4.2 2.9.3 4.3.5.9.1 1.8.5 2.5 1 1.1.9 2.3 1.8 3.4 2.7 1.5 1.2 3 2.5 4.5 3.7 9.6 8 18.8 16.4 27.7 25.3s17.3 18.1 25.3 27.6c1.2 1.5 2.5 3 3.7 4.5.9 1.1 1.8 2.2 2.7 3.4.5.8.9 1.6 1.1 2.5.2 1.4.3 2.9.5 4.3.2 1.9.4 3.8.5 5.8 1.1 12.5 1.7 25 1.7 37.4s-.5 25.1-1.6 37.5z" class="st0"/><path d="M247.7 143.2c-1.2-.1-11.7-.1-17.3-.2-7.4-.1-12.4 0-14.8 0H214c0 .6 0 .9-.1 1.6 0 .5-.1 2.4-.2 4.8-.1 4-.3 9.7-.2 13.8v1.4c.4 0 7.4 0 12 .1h1.3v1.2c0 .5-.7 9.1-1.1 11.6-1.3 2-2.8 3.9-4.4 5.6-2.6 3-3 3.7-11.1 12.2-8.4 8.8-24.2 23.1-29.9 28-1.2 1-3.6 3.2-3.6 3.2s.1-3 0-4.5c.2-56.4.1-96.5-.1-158.8.1-1.4-.1-2.6 0-4.3 1.8 1.5 1.9 1.5 3.1 2.6 8.3 7.3 17.1 14.9 24.1 22.1 9.6 10.1 13.8 14.5 20.7 23.1.5.6.9 1.2 1.3 1.8.1.8.1.9.3 1.9.3 2.4.7 7.3.8 8.6 0 .8.1 1.1.1 1.9.7.1 1.2 0 1.9 0 4.2.1 9.2.1 13.9.1 1.6 0 3.2 0 4.7-.1h1.5v-2.1c-.1-5.3-.5-10.7-1.1-16-.1-1.1-.2-2.2-.4-3.3-.6-.8-1-1.2-1.5-1.9-8-10.1-16.5-19.7-25.6-28.8-21.4-21.3-32.8-29.4-32.8-29.4s-.9-.7-1.6-1.2c-.9-.2-.7-.1-1.5-.3-9-1.1-20.1-1.8-31.1-2.1-1.5 0-1.9-.1-3.5 0 .1 1.1.1 2.2 0 3.3.2 76.9-.2 131.6-.1 207.9v2.3c.8.1 1.6.1 2.4 0 8.7 0 25.8-1 30.2-1.7 1.3-.2 2.5-.4 3.8-.7.7-.4 1.4-1 2.1-1.6 11.6-9.5 20.2-17.3 31.2-28 11.7-11.6 22.3-24.2 24.9-27.2 1.1-1.2 1.8-2.2 3-3.9.3-1.4.5-2.8.6-4.3 1.1-13.3 2-21.7 2-36.8 0-.8 0-1.2-.1-2.1-1.1.2-1.6.3-2.2.2zM134.1 36c-1.8.1-5.1 0-11.2.3-6.4.4-10.1.8-11.7.9-.9.1-1.4.1-2 .2-.2.6-.2.5-.5 1.3-9.3 24.1-21.3 57.6-31.3 82.4-.5 1-1.5 3.7-1.5 3.7s-.5-.8-1.7-3.3c-5.2-10.9-16.8-33.8-18.7-37-.6-1-1.5-3-1.5-3s-1.5 1.5-2.5 2.4c-2.1 1.9-9.6 10.8-11.1 12.9-.8 1-1 1.3-1.9 2.6-.3 1.4-.4 2.3-.7 3.9-.5 3.2-1.8 16.9-2.1 35.3 0 15 .9 28.4 2.2 43.3.1.8.4 4 .4 4s1.6 2.3 2 2.7c7.2 8.8 12.5 15 17.4 20.3l4.3 4.5-.3-4.8c-.1-1.6-.2-3.2-.3-5.1-1-16-2.9-43.1-3.4-57.1-.1-1.8.2-10.2.2-10.2L79 179.5s1.6-3.9 2.2-5.5c8.3-21.7 16.3-41.1 24.4-62.8.6-1.4 3.5-9.5 3.5-9.5s.1 8.8 0 10.7c-.4 60.9-.2 95.7-.1 129.1v6.1c2.2.4 1.9.4 3.1.5 2.7.5 5.4.8 8.2.9 4.6.3 9.6.4 13.6.5 1 0 1.6 0 2.1-.1V247c-.3-77.9.5-209.2.5-209.2v-2c-.7.1-1.5.2-2.4.2z"/></svg>