<svg xmlns="http://www.w3.org/2000/svg" viewBox="0 0 158.6 170" xml:space="preserve"><path style="fill:#231916;fill-opacity:1" d="M25.4 142.6v-14.8l-6.3 10.6-6.4-10.6v14.8H8v-21h6.1l5 8.6 4.8-8.6h6.2v21zM34.1 121.6h4.7v21h-4.7zM40.9 121.6H57v4.4h-5.7v16.6h-4.8V126h-5.6zM58.7 142.4V138c1 .2 3.3.6 6.2.6 2.4 0 3.6-.3 3.6-1.7 0-1.5-1-1.7-4.4-3.3-3.3-1.5-5.8-2.8-5.8-6.4 0-4.4 2.7-5.9 7.9-5.9 2.7 0 4.6.2 5.9.4v4.4c-1.2-.1-3.3-.4-5.7-.4-2.8 0-3.4.3-3.4 1.5s1.5 1.8 3.8 2.8c3.5 1.6 6.3 2.9 6.3 6.9 0 4.2-2.6 6.1-8.2 6.1-2.2-.1-4.2-.3-6.2-.6M76 135.5v-13.9h4.7v13.7c0 2.4 1.4 3.2 3.7 3.2 2.2 0 3.7-.8 3.7-3.2v-13.7h4.7v13.9c0 5.1-3.3 7.4-8.4 7.4-5.1 0-8.4-2.3-8.4-7.4M96.8 121.6h9.2c4.3 0 6.7 1.6 6.7 5.4 0 3-1.7 4-3.3 4.6 1.9.6 3.9 1.6 3.9 5.1 0 3.7-2.2 5.9-6.9 5.9h-9.5v-21zm8.5 8.5c1.9 0 2.6-1 2.6-2.4 0-1.7-.8-2.1-2.6-2.1h-3.8v4.5zm.3 8.6c1.9 0 2.7-.7 2.7-2.5 0-1.6-.7-2.3-2.5-2.3h-4.3v4.8zM116 121.6h4.7v21H116zM124.1 142.4V138c1 .2 3.3.6 6.2.6 2.4 0 3.6-.3 3.6-1.7 0-1.5-1-1.7-4.4-3.3-3.3-1.5-5.8-2.8-5.8-6.4 0-4.4 2.7-5.9 7.9-5.9 2.7 0 4.6.2 5.9.4v4.4c-1.2-.1-3.3-.4-5.7-.4-2.8 0-3.4.3-3.4 1.5s1.5 1.8 3.8 2.8c3.5 1.6 6.3 2.9 6.3 6.9 0 4.2-2.6 6.1-8.2 6.1-2.1-.1-4.2-.3-6.2-.6M153.3 142.6v-8.3h-7.5v8.3h-4.7v-21h4.7v8.3h7.5v-8.3h4.7v21zM161.9 121.6h4.7v21h-4.7z" transform="translate(-8 -1.2)"/><g><path style="fill:#e60013;fill-opacity:1" d="M107.2 36 87 1.2 66.9 36 87 70.9zM107.2 105.7h40.2l-20.1-34.8H87zM66.9 105.7H26.7l20.1-34.8H87z" transform="translate(-8 -1.2)"/></g></svg>