<svg viewBox="0 0 171.303 150.504" xmlns="http://www.w3.org/2000/svg"><clipPath id="a"><path d="M0 0h171.303v150.504H0z"/></clipPath><g clip-path="url(#a)" fill="#1d1d1b"><path d="M171.303 150.086v-4.674h-13.832V127.21h-5.206v22.876zm-69.73 0h19.684v-4.522h-14.478v-4.94h13.034v-4.218h-13.034v-4.674h14.402v-4.522h-19.608zm-42.901-11.438v-7.106h7.524a6.524 6.524 0 0 1 2.546.399 2.402 2.402 0 0 1 1.273 1.159 4.536 4.536 0 0 1 .361 1.938 3.455 3.455 0 0 1-.988 2.774 4.913 4.913 0 0 1-3.192.836zm-5.206-11.438v22.876h5.206v-7.068H66.5q4.521 0 6.764-1.843 2.241-1.842 2.242-6.023a9.417 9.417 0 0 0-1.007-4.731 5.622 5.622 0 0 0-2.964-2.47 14.424 14.424 0 0 0-5.035-.741zM8.664 145.108a4.69 4.69 0 0 1-2.451-2.356 9.68 9.68 0 0 1-.741-4.066 9.869 9.869 0 0 1 .722-4.085 4.784 4.784 0 0 1 2.432-2.375 11.244 11.244 0 0 1 4.674-.798 11.855 11.855 0 0 1 4.731.76 4.623 4.623 0 0 1 2.413 2.356 10.02 10.02 0 0 1 .722 4.104 9.852 9.852 0 0 1-.722 4.104 4.712 4.712 0 0 1-2.451 2.337 11.618 11.618 0 0 1-4.693.779 11.618 11.618 0 0 1-4.636-.76m12.16 4.085a8.988 8.988 0 0 0 4.408-3.952 15.773 15.773 0 0 0 0-13.186 8.992 8.992 0 0 0-4.408-3.952 18.683 18.683 0 0 0-7.524-1.311 18.403 18.403 0 0 0-7.486 1.31 9.008 9.008 0 0 0-4.37 3.953 15.773 15.773 0 0 0 0 13.186 9.003 9.003 0 0 0 4.37 3.952 18.512 18.512 0 0 0 7.524 1.31 18.574 18.574 0 0 0 7.486-1.31M150.336 56.919l-12.531-.797-1.516-.096c.113-1.395.187-2.8.187-4.223a51.797 51.797 0 0 0-102.29-11.557H22.732a1.994 1.994 0 0 0-1.586.781l-2.928 4.044a1 1 0 0 0 .79 1.614l12.482.779 1.567.098a52.147 52.147 0 0 0-.188 4.241 51.797 51.797 0 0 0 102.29 11.556h11.451a1.995 1.995 0 0 0 1.586-.782l2.929-4.043a1 1 0 0 0-.79-1.615zM84.673 6a45.855 45.855 0 0 1 45.803 45.803c0 1.295-.068 2.574-.174 3.842l-.02-.001-38.287-2.434 16.614-11.384a.868.868 0 0 0-.493-1.58H40.349A45.883 45.883 0 0 1 84.673 6zm0 91.606A45.855 45.855 0 0 1 38.87 51.803c0-1.303.068-2.59.175-3.866l38.293 2.389-16.576 11.452a.868.868 0 0 0 .496 1.581h67.738a45.883 45.883 0 0 1-44.323 34.247z"/></g></svg>