<svg height="296.463531" viewBox="0 0 171.30299 150.50389" width="337.309617"
     xmlns="http://www.w3.org/2000/svg">
  <clipPath id="a" transform="translate(0 -.00011)">
    <path d="m0 0h171.30299v150.504h-171.30299z"/>
  </clipPath>
  <g clip-path="url(#a)" fill="#1d1d1b">
    <path
      d="m171.303 150.086v-4.674h-13.832v-18.202h-5.206v22.876zm-69.73 0h19.684v-4.522h-14.478v-4.94h13.034v-4.218h-13.034v-4.674h14.402v-4.522h-19.608zm-42.901-11.438v-7.106h7.524a6.52446 6.52446 0 0 1 2.546.399 2.40175 2.40175 0 0 1 1.273 1.159 4.53613 4.53613 0 0 1 .361 1.938 3.45469 3.45469 0 0 1 -.988 2.774 4.91315 4.91315 0 0 1 -3.192.836zm-5.206-11.438v22.876h5.206v-7.068h7.828q4.521 0 6.764-1.843 2.241-1.842 2.242-6.023a9.4166 9.4166 0 0 0 -1.007-4.731 5.62208 5.62208 0 0 0 -2.964-2.47 14.42387 14.42387 0 0 0 -5.035-.741zm-44.802 17.898a4.69089 4.69089 0 0 1 -2.451-2.356 9.67976 9.67976 0 0 1 -.741-4.066 9.86855 9.86855 0 0 1 .722-4.085 4.78441 4.78441 0 0 1 2.432-2.375 11.24387 11.24387 0 0 1 4.674-.798 11.85492 11.85492 0 0 1 4.731.76 4.62278 4.62278 0 0 1 2.413 2.356 10.0198 10.0198 0 0 1 .722 4.104 9.85243 9.85243 0 0 1 -.722 4.104 4.7122 4.7122 0 0 1 -2.451 2.337 11.6178 11.6178 0 0 1 -4.693.779 11.61752 11.61752 0 0 1 -4.636-.76m12.16 4.085a8.98755 8.98755 0 0 0 4.408-3.952 15.77312 15.77312 0 0 0 0-13.186 8.99225 8.99225 0 0 0 -4.408-3.952 18.68335 18.68335 0 0 0 -7.524-1.311 18.40264 18.40264 0 0 0 -7.486 1.311 9.00812 9.00812 0 0 0 -4.37 3.952 15.77313 15.77313 0 0 0 0 13.186 9.00337 9.00337 0 0 0 4.37 3.952 18.5118 18.5118 0 0 0 7.524 1.311 18.57416 18.57416 0 0 0 7.486-1.311"
      transform="translate(0 -.00011)"/>
    <path
      d="m150.336 56.91912-12.531-.797-1.51593-.09632c.11316-1.39434.18664-2.79974.18664-4.22271a51.79738 51.79738 0 0 0 -102.29028-11.557h-11.45243a1.99448 1.99448 0 0 0 -1.586.781l-2.928 4.044a.99972.99972 0 0 0 .79 1.614l12.482.779 1.56671.09808c-.11407 1.40027-.188 2.81177-.188 4.24091a51.79732 51.79732 0 0 0 102.2904 11.556h11.45089a1.99524 1.99524 0 0 0 1.586-.782l2.929-4.043a.99934.99934 0 0 0 -.78992-1.615zm-65.66333-50.91901a45.85469 45.85469 0 0 1 45.803 45.803c0 1.295-.06738 2.574-.17328 3.84222l-.01947-.00122-38.288-2.434 16.614-11.384a.8678.8678 0 0 0 -.493-1.58h-67.76655a45.883 45.883 0 0 1 44.3233-34.246zm0 91.606a45.85468 45.85468 0 0 1 -45.803-45.803c0-1.30316.06787-2.59015.17511-3.866l38.29322 2.38899-16.576 11.45196a.868.868 0 0 0 .496 1.58106h67.73828a45.883 45.883 0 0 1 -44.32361 34.24695z"
      transform="translate(0 -.00011)"/>
  </g>
</svg>