<svg id="Logo" xmlns="http://www.w3.org/2000/svg" viewBox="0 0 136.54 30.4"><defs><clipPath id="clip-path" transform="translate(.6 .7)"><path class="cls-1" d="M27 8.8a12.3 12.3 0 0 0-3-4.4 14.34 14.34 0 0 0-4.4-3A14.47 14.47 0 0 0 14.2.3a14.08 14.08 0 0 0-5.4 1.1 12.3 12.3 0 0 0-4.4 3 14.34 14.34 0 0 0-3 4.4 14.47 14.47 0 0 0-1.1 5.4 14.08 14.08 0 0 0 1.1 5.4 12.3 12.3 0 0 0 3 4.4 14.34 14.34 0 0 0 4.4 3 14.47 14.47 0 0 0 5.4 1.1 14.08 14.08 0 0 0 5.4-1.1 12.3 12.3 0 0 0 4.4-3 14.34 14.34 0 0 0 3-4.4 14.47 14.47 0 0 0 1.1-5.4A14.08 14.08 0 0 0 27 8.8Zm-3.9 14.4a12.8 12.8 0 0 1-18 0 12.8 12.8 0 0 1 0-18 12.8 12.8 0 0 1 18 0 12.8 12.8 0 0 1 0 18Z"/></clipPath><clipPath id="clip-path-2" transform="translate(.6 .7)"><path class="cls-1" d="M19.4 21.4c-.1 0-.2-.1-.2-.3v-.3c0-.1 0-.3-.2-.3h-9c-.1 0-.1 0-.2.1l-1.1.6a.37.37 0 0 1-.3.1H7.2c-.1 0-.2-.1-.3-.2l-.1-.2a7.17 7.17 0 0 0-.7-1.1l-.3-.4a1.38 1.38 0 0 0-.3-.4c-.2-.3-.4-.5-.4-.7a.43.43 0 0 1 .4-.4h2.8c.1 0 .1 0 .2.1l1.6.8a.6.6 0 0 0 .4.1.37.37 0 0 0 .3-.1c.1-.1.1-.2.1-.4-.5-2.9-2.3-4.6-6-5.2-.2 0-.3-.2-.3-.5a10.38 10.38 0 0 1 1.1-3.1c.1-.1.2-.2.3-.2h.2a17 17 0 0 1 3 1.2 2.3 2.3 0 0 0 .9.3.37.37 0 0 0 .3-.1 18.9 18.9 0 0 0-3.2-2.3c-.3-.1-.4-.2-.4-.4s0-.1.1-.2a10.13 10.13 0 0 1 2.4-2 .35.35 0 0 0 .2-.1c.1 0 .2 0 .2.1A28 28 0 0 1 13 8.3a1.61 1.61 0 0 0 1.1.5 11.73 11.73 0 0 0-2.8-3.3c-.1-.1-.2-.2-.1-.3l.2-.2a9 9 0 0 1 2.8-.4h.7a.76.76 0 0 1 .5.2c4.6 3.9 4.2 9.4 3.1 13.3l-.1.2c0 .1 0 .4.1.5s.1.1.2.1h.2c.1 0 .2-.1.2-.3v-.4a.32.32 0 0 1 .3-.3 5.37 5.37 0 0 1 3 1.5.37.37 0 0 1 .1.3c0 .1 0 .2-.1.2a5.37 5.37 0 0 1-3 1.5Z"/></clipPath><linearGradient id="Nepojmenovaný_přechod" x1="16.5" y1="50.08" x2="12.06" y2="16.34" gradientTransform="matrix(1 0 0 -1 .6 48.57)" gradientUnits="userSpaceOnUse"><stop offset=".04" stop-color="#f0f0f0"/><stop offset=".44" stop-color="#f0f0f0"/><stop offset=".46" stop-color="#dedfe1"/><stop offset=".5" stop-color="#c5c8cb"/><stop offset=".55" stop-color="#b3b8bc"/><stop offset=".6" stop-color="#a9aeb3"/><stop offset=".65" stop-color="#a5abb0"/><stop offset=".96" stop-color="#a5abb0"/></linearGradient><style>.cls-1{fill:none}.cls-2{fill:#fff}.cls-5{fill:#222221}.cls-7{fill:#4ba82e}</style></defs><path class="cls-2" d="M14.1 28.3a15 15 0 0 1-5.5-1.1 13.79 13.79 0 0 1-7.5-7.5A14.59 14.59 0 0 1 0 14.2a15 15 0 0 1 1.1-5.5 13.79 13.79 0 0 1 7.5-7.5A14.59 14.59 0 0 1 14.1.1a15 15 0 0 1 5.5 1.1 13.79 13.79 0 0 1 7.5 7.5 14.59 14.59 0 0 1 1.1 5.5 15 15 0 0 1-1.1 5.5 13.79 13.79 0 0 1-7.5 7.5 14.59 14.59 0 0 1-5.5 1.1Z" transform="translate(.6 .7)" id="White_Backing" data-name="White Backing"/><g id="Outline_Ring" data-name="Outline Ring"><path d="M14.1 0a14.2 14.2 0 1 0 14.2 14.2A14.25 14.25 0 0 0 14.1 0Zm0 28.2a14 14 0 1 1 14-14 14 14 0 0 1-14 14Z" transform="translate(.6 .7)"/><circle class="cls-2" cx="14.7" cy="14.9" r="14"/></g><g style="clip-path:url(#clip-path)" id="Fading_Ring" data-name="Fading Ring"><path style="fill:url(#Nepojmenovaný_přechod)" d="M0 0h29.8v30.4H0z"/></g><g id="Inner_Ring" data-name="Inner Ring"><path class="cls-2" d="M14.1 27A12.71 12.71 0 0 1 5 23.2a12.78 12.78 0 0 1-3.8-9.1A12.55 12.55 0 0 1 5 5a12.78 12.78 0 0 1 9.1-3.8A12.55 12.55 0 0 1 23.2 5a12.78 12.78 0 0 1 3.8 9.1 12.55 12.55 0 0 1-3.8 9.1 12.55 12.55 0 0 1-9.1 3.8Z" transform="translate(.6 .7)"/><path class="cls-5" d="M14.1 26.8a12.4 12.4 0 0 1-8.9-3.7 12.23 12.23 0 0 1-3.7-8.9A12.63 12.63 0 0 1 14.1 1.6a12.63 12.63 0 0 1 12.6 12.6 12.4 12.4 0 0 1-3.7 8.9 12.23 12.23 0 0 1-8.9 3.7Z" transform="translate(.6 .7)"/><path class="cls-2" d="M14.1 25.8A11.6 11.6 0 0 1 5.9 6a11.59 11.59 0 0 1 16.4 0 11.6 11.6 0 0 1-8.2 19.8Z" transform="translate(.6 .7)"/></g><g style="clip-path:url(#clip-path-2)" id="Relief_Black" data-name="Relief Black"><path class="cls-5" d="m8.4 18.8 1.8.6a.83.83 0 0 0 1.1-1c-.5-3-2.4-4.8-6.2-5.5-.1 0-.1 0-.1-.1a6.19 6.19 0 0 1 .8-2.4.1.1 0 0 1 .1-.1v-.8c-.1 0-.1.1-.2.2a10.38 10.38 0 0 0-1.1 3.1c0 .2.1.4.3.4 3.7.6 5.6 2.3 6 5.2 0 .2 0 .3-.1.4a.37.37 0 0 1-.3.1.6.6 0 0 1-.4-.1L8.5 18h-.2l.1.7c-.1.1-.1.1 0 .1Z" transform="translate(.6 .7)"/><path class="cls-5" d="m22.5 19.7-.8.1v.1a4.21 4.21 0 0 1-2 1c-.1 0-.1 0-.1-.1v-.1a.43.43 0 0 0-.4-.4H9.9a.37.37 0 0 0-.3.1c-.3.2-.7.4-1 .6a.37.37 0 0 1-.3.1h-.9c-.1 0-.2 0-.2-.1-.4-.7-.8-1.2-1.3-2-.1-.1-.1-.1 0-.2l-.6-.6a.35.35 0 0 0-.1.2 1.52 1.52 0 0 0 .4.6c.1.1.2.3.3.4l.3.4a10.54 10.54 0 0 1 .7 1.1l.1.2c.1.1.1.2.3.2h1.2a.37.37 0 0 0 .3-.1l1.1-.6a.31.31 0 0 1 .2-.1h9c.2 0 .2.2.2.3v.3a.22.22 0 0 0 .2.2 6.41 6.41 0 0 0 3-1.4Z" transform="translate(.6 .7)"/><path class="cls-5" d="M19.2 18.3v.4c0 .1-.1.3-.2.3h-.2a.37.37 0 0 1-.3-.1c-.1-.1-.1-.4-.1-.5l.1-.2a18.5 18.5 0 0 0 .7-6.3 7.42 7.42 0 0 1-.5 2.6 22.5 22.5 0 0 1-.7 4c-.2.6.2.9.7.9h.5a.43.43 0 0 0 .4-.4v-.2l-.2-.6c-.2-.1-.2 0-.2.1ZM15.6 14.8a1.79 1.79 0 0 0-1.8 1.8 1.5 1.5 0 0 0 .4 1.1l.8-.6a1.42 1.42 0 0 1-.2-.6 1.1 1.1 0 0 1 2.2 0 .91.91 0 0 1-.4.8l.4.4a2.1 2.1 0 0 0 .4-1.1 1.79 1.79 0 0 0-1.8-1.8ZM7.1 8.4a14.71 14.71 0 0 1 3.2 2.4.1.1 0 0 0-.1.1 3.93 3.93 0 0 1 .8.9c.4.5.6.8.8 1 .3 0 .5 0 .6-.1s.1-.1-.1-.3c0-.1-.1-.1-.1-.2s-.2-.3-.3-.4c-.1-.1-.2-.3-.3-.4a1.38 1.38 0 0 1-.3-.4l-.3-.3-.3-.3-.3-.3-.3-.3-.3-.3c-.1-.1-.2-.2-.3-.2-.1-.1-.2-.1-.3-.2-.1-.1-.2-.1-.3-.2-.1-.1-.2-.1-.3-.2-.1-.1-.2-.1-.3-.2-.1-.1-.2-.1-.3-.2a.31.31 0 0 0-.2-.1.35.35 0 0 1-.2-.1c-.1-.1-.2-.1 0-.3a9.14 9.14 0 0 1 1.6-1.3h.1l.4-.6c-.1 0-.2 0-.2.1a11.09 11.09 0 0 0-2.4 2c-.1.1-.1.1-.1.2-.2-.1-.1 0 .1.2ZM11.3 5.4a11.21 11.21 0 0 1 2.9 3.4H14a21.66 21.66 0 0 1 1.2 2.6v.1h.4c.1 0 .1 0 .1-.1v-.1a11.94 11.94 0 0 0-2.8-4.9l-.1-.1-.1-.1-.1-.1-.1-.1-.1-.1a.1.1 0 0 1-.1-.1l-.1-.1-.1-.1-.1-.1c-.1-.1-.1-.2.1-.2A14.81 14.81 0 0 1 14 5h.4l.7-.3h-.8a8.63 8.63 0 0 0-2.8.4c-.2 0-.2.1-.2.2-.1-.1-.1 0 0 .1Z" transform="translate(.6 .7)"/></g><g id="Figure_P362C" data-name="Figure P362C"><path class="cls-7" d="M21.6 19.7a5.38 5.38 0 0 0-2-1c-.1 0-.1 0-.1.1v.1a.43.43 0 0 1-.4.4h-.5a.75.75 0 0 1-.7-.9c1.8-6.6-.2-10.7-3.1-13.3-.3-.3-.5-.2-.9-.2a6.28 6.28 0 0 0-1.9.3c-.2 0-.2.1-.1.2a12.46 12.46 0 0 1 3.9 6c0 .1 0 .1-.1.1a1.51 1.51 0 0 1-1.3-.7 17.7 17.7 0 0 0-5.1-4.3.19.19 0 0 0-.3 0 5.09 5.09 0 0 0-1.6 1.3.19.19 0 0 0 0 .3 15.5 15.5 0 0 1 5.1 4.4.37.37 0 0 1 .1.3 1.9 1.9 0 0 1-1.7-.3A28.79 28.79 0 0 0 6 10.3c-.2-.1-.3 0-.3.1a8.47 8.47 0 0 0-.8 2.4c0 .1 0 .1.1.1 3.8.8 5.7 2.5 6.2 5.5a.83.83 0 0 1-1.1 1l-1.8-.6H5.7c-.1 0-.2.1-.1.2.5.8.9 1.3 1.3 2 0 .1.1.1.2.1H8a.37.37 0 0 0 .3-.1c.3-.2.7-.4 1-.6a.37.37 0 0 1 .3-.1h9.3a.43.43 0 0 1 .4.4v.1c0 .1 0 .1.1.1a4.72 4.72 0 0 0 2-1c.3-.1.3-.2.2-.2Zm-6-1.2a1.8 1.8 0 1 1 1.8-1.8 1.86 1.86 0 0 1-1.8 1.8Z" transform="translate(.6 .7)"/><path class="cls-7" d="M21.6 19.7a5.38 5.38 0 0 0-2-1c-.1 0-.1 0-.1.1v.1a.43.43 0 0 1-.4.4h-.5a.75.75 0 0 1-.7-.9c1.8-6.6-.2-10.7-3.1-13.3-.3-.3-.5-.2-.9-.2a6.28 6.28 0 0 0-1.9.3c-.2 0-.2.1-.1.2a12.46 12.46 0 0 1 3.9 6c0 .1 0 .1-.1.1a1.51 1.51 0 0 1-1.3-.7 17.7 17.7 0 0 0-5.1-4.3.19.19 0 0 0-.3 0 5.09 5.09 0 0 0-1.6 1.3.19.19 0 0 0 0 .3 15.5 15.5 0 0 1 5.1 4.4.37.37 0 0 1 .1.3 1.9 1.9 0 0 1-1.7-.3A28.79 28.79 0 0 0 6 10.3c-.2-.1-.3 0-.3.1a8.47 8.47 0 0 0-.8 2.4c0 .1 0 .1.1.1 3.8.8 5.7 2.5 6.2 5.5a.83.83 0 0 1-1.1 1l-1.8-.6H5.7c-.1 0-.2.1-.1.2.5.8.9 1.3 1.3 2 0 .1.1.1.2.1H8a.37.37 0 0 0 .3-.1c.3-.2.7-.4 1-.6a.37.37 0 0 1 .3-.1h9.3a.43.43 0 0 1 .4.4v.1c0 .1 0 .1.1.1a4.72 4.72 0 0 0 2-1c.3-.1.3-.2.2-.2Zm-6-1.2a1.8 1.8 0 1 1 1.8-1.8 1.86 1.86 0 0 1-1.8 1.8Z" transform="translate(.6 .7)"/><path class="cls-7" d="M21.6 19.7a5.38 5.38 0 0 0-2-1c-.1 0-.1 0-.1.1v.1a.43.43 0 0 1-.4.4h-.5a.75.75 0 0 1-.7-.9c1.8-6.6-.2-10.7-3.1-13.3-.3-.3-.5-.2-.9-.2a6.28 6.28 0 0 0-1.9.3c-.2 0-.2.1-.1.2a12.46 12.46 0 0 1 3.9 6c0 .1 0 .1-.1.1a1.51 1.51 0 0 1-1.3-.7 17.7 17.7 0 0 0-5.1-4.3.19.19 0 0 0-.3 0 5.09 5.09 0 0 0-1.6 1.3.19.19 0 0 0 0 .3 15.5 15.5 0 0 1 5.1 4.4.37.37 0 0 1 .1.3 1.9 1.9 0 0 1-1.7-.3A28.79 28.79 0 0 0 6 10.3c-.2-.1-.3 0-.3.1a8.47 8.47 0 0 0-.8 2.4c0 .1 0 .1.1.1 3.8.8 5.7 2.5 6.2 5.5a.83.83 0 0 1-1.1 1l-1.8-.6H5.7c-.1 0-.2.1-.1.2.5.8.9 1.3 1.3 2 0 .1.1.1.2.1H8a.37.37 0 0 0 .3-.1c.3-.2.7-.4 1-.6a.37.37 0 0 1 .3-.1h9.3a.43.43 0 0 1 .4.4v.1c0 .1 0 .1.1.1a4.72 4.72 0 0 0 2-1c.3-.1.3-.2.2-.2Zm-6-1.2a1.8 1.8 0 1 1 1.8-1.8 1.86 1.86 0 0 1-1.8 1.8Z" transform="translate(.6 .7)"/></g><g id="Outline_Black" data-name="Outline Black"><path class="cls-5" d="M22.5 19.4a5.67 5.67 0 0 0-3.1-1.5.43.43 0 0 0-.4.4v.4c0 .1 0 .1-.1.1h-.2c-.1 0-.1 0-.2-.1v-.3l.1-.2c1.2-4 1.6-9.5-3.1-13.5-.2-.2-.4-.2-.6-.3h-.7a8.63 8.63 0 0 0-2.8.4q-.3.15-.3.3a.4.4 0 0 0 .2.4A14.53 14.53 0 0 1 14 8.6c-.4 0-.6-.2-.9-.5a28 28 0 0 0-3.3-2.4c-.1 0-.2-.1-.3-.1a.37.37 0 0 0-.3.1 10 10 0 0 0-2.5 2.1.37.37 0 0 0-.1.3c0 .2.2.3.5.4a21.26 21.26 0 0 1 3.1 2.2H10a2.3 2.3 0 0 1-.9-.3 31.14 31.14 0 0 0-3-1.2h-.2c-.3 0-.4.2-.4.3a11.47 11.47 0 0 0-1.1 3.1c0 .3.1.6.4.6 3.6.6 5.5 2.2 5.9 5.1 0 .1 0 .3-.1.3a.31.31 0 0 1-.2.1.37.37 0 0 1-.3-.1l-1.6-.8a.35.35 0 0 1-.2-.1H5.5c-.4 0-.5.2-.5.5s.2.4.4.7c.1.1.2.3.3.4l.3.4a10.54 10.54 0 0 1 .7 1.1l.1.2c.1.2.2.2.4.2h1.2a.37.37 0 0 0 .3-.1l1.1-.6H19a.1.1 0 0 1 .1.1v.3c0 .2.1.4.3.4h.1a5.67 5.67 0 0 0 3.1-1.5.37.37 0 0 0 .1-.3c0 .1-.1 0-.2-.1Zm-.1.5a4.94 4.94 0 0 1-3 1.4c-.1 0-.1-.1-.1-.2v-.3a.27.27 0 0 0-.3-.3H9.9a.37.37 0 0 0-.3.1c-.4.2-.7.4-1.1.6a.35.35 0 0 0-.2.1H7.1c-.1 0-.2 0-.2-.1l-.1-.2c-.5-.8-.5-.9-1-1.6-.3-.5-.7-.8-.7-1a.27.27 0 0 1 .3-.3h3s1.1.5 1.6.8 1 0 .9-.5c-.5-3.4-2.9-4.7-6.1-5.3-.2 0-.2-.2-.2-.4a11.24 11.24 0 0 1 1-3.1.52.52 0 0 1 .4-.2 23.42 23.42 0 0 1 3 1.2c.8.4 1.1.3 1.4.1v-.2a27.57 27.57 0 0 0-3.3-2.4c-.3-.1-.4-.2-.2-.4a11.09 11.09 0 0 1 2.4-2 .3.3 0 0 1 .4 0A28 28 0 0 1 13 8.1a1.85 1.85 0 0 0 1.2.5c.1 0 .2 0 .2-.1a14.21 14.21 0 0 0-2.9-3.4c-.1-.1-.1-.1-.1-.2s.1-.1.2-.1a8.63 8.63 0 0 1 2.8-.4h.6c.2 0 .3.1.5.2 4.9 4.1 4 10 3 13.3 0 .1 0 .1-.1.2a1.27 1.27 0 0 0 .1.6c.1.1.2.2.3.2h.2a.32.32 0 0 0 .3-.3v-.4a.22.22 0 0 1 .2-.2 6.06 6.06 0 0 1 2.9 1.4.35.35 0 0 1 .1.2c0 .2-.1.2-.1.3Z" transform="translate(.6 .7)"/><path class="cls-5" d="M15.9 15.3a1.3 1.3 0 1 0 1.3 1.3 1.4 1.4 0 0 0-1.3-1.3Zm0 2.3a1.1 1.1 0 1 1 1.1-1.1 1 1 0 0 1-1.1 1.1Z" transform="translate(.6 .7)"/><path class="cls-2" d="M15.9 17.6a1.1 1.1 0 1 1 1.1-1.1 1 1 0 0 1-1.1 1.1Z" transform="translate(.6 .7)"/></g><path class="cls-5" d="M38 21.3c2.1.1 5.5.2 7.5.2 8.6 0 9.6 0 9.6-4.7 0-3.7-1.1-4-5.6-4.1l-5.3-.1c-2.4-.1-2.5-.3-2.5-1.4s.3-1.1 6.1-1.1c1.1 0 4.6.1 6.5.1a.27.27 0 0 0 .3-.3V7.5a.27.27 0 0 0-.3-.3c-1.8-.1-4.8-.2-7-.2-8.4 0-9.8.2-9.8 4.5 0 3.7.8 4.2 6.2 4.4l4.8.2c2.3.1 2.3.4 2.3 1.2 0 1.2-.1 1.2-5.5 1.2-2.5 0-5.1-.1-7.4-.2a.27.27 0 0 0-.3.3v2.5c.2.1.3.2.4.2m90.9-5.2h-6.3l2.9-5.7h.5Zm-18.4-2v.2c0 3.6-.3 3.8-5 3.8h-3.9v-7.7h3.9c4.7 0 5 .1 5 3.7m-20.4 0v.2c0 4-.2 4-4.8 4s-4.8-.1-4.8-4v-.2c0-4 .2-4 4.8-4s4.8 0 4.8 4m45.8 6.9-6.8-13.6c-.1-.2-.2-.2-.3-.2h-6c-.2 0-.3.1-.3.2L115.7 21c-.1.2 0 .4.2.4h3.9c.2 0 .3-.1.3-.2l1-2h9.3l1 2c.1.2.2.2.3.2h3.9c.3-.1.4-.2.3-.4M105.5 7.1h-7.9a.27.27 0 0 0-.3.3V21a.27.27 0 0 0 .3.3h7.9c8.4 0 9.5-.4 9.5-7v-.1c0-6.7-1.1-7.1-9.5-7.1M75 21l-7.8-7.7 7.4-5.8c.2-.2.1-.4-.1-.4h-4.8a.76.76 0 0 0-.4.1l-7.5 6V7.4a.27.27 0 0 0-.3-.3h-3.7a.27.27 0 0 0-.3.3V21a.27.27 0 0 0 .3.3h3.7a.27.27 0 0 0 .3-.3v-3.4l2.2-1.8 5.4 5.3a.52.52 0 0 0 .4.2H75c.2 0 .2-.2 0-.3m.9-6.9v.2c0 6.9 1.1 7.3 9.4 7.3s9.4-.4 9.4-7.3v-.2c0-6.9-1.1-7.3-9.4-7.3s-9.4.5-9.4 7.3M42.7 3.8l1.8 2a.52.52 0 0 0 .4.2h3.8c.2 0 .3 0 .4-.2l1.8-2c.2-.2.1-.4-.2-.4h-2.5a.52.52 0 0 0-.4.2L47 4.7h-.5l-.8-1.1a.52.52 0 0 0-.4-.2h-2.5c-.2.1-.3.3-.1.4" transform="translate(.6 .7)" id="Lettering"/></svg>