<?xml version="1.0" encoding="UTF-8" standalone="no"?>
<svg
   xmlns:dc="http://purl.org/dc/elements/1.1/"
   xmlns:cc="http://creativecommons.org/ns#"
   xmlns:rdf="http://www.w3.org/1999/02/22-rdf-syntax-ns#"
   xmlns:svg="http://www.w3.org/2000/svg"
   xmlns="http://www.w3.org/2000/svg"
   xmlns:sodipodi="http://sodipodi.sourceforge.net/DTD/sodipodi-0.dtd"
   xmlns:inkscape="http://www.inkscape.org/namespaces/inkscape"
   inkscape:version="1.0beta2 (2b71d25, 2019-12-03)"
   height="143.64"
   width="214.67"
   sodipodi:docname="suzuki.svg"
   version="1.1"
   viewBox="0 0 214.67 143.64"
   data-name="Ebene 1"
   id="Ebene_1">
  <metadata
     id="metadata878">
    <rdf:RDF>
      <cc:Work
         rdf:about="">
        <dc:format>image/svg+xml</dc:format>
        <dc:type
           rdf:resource="http://purl.org/dc/dcmitype/StillImage" />
      </cc:Work>
    </rdf:RDF>
  </metadata>
  <sodipodi:namedview
     inkscape:current-layer="Ebene_1"
     inkscape:window-maximized="0"
     inkscape:window-y="25"
     inkscape:window-x="0"
     inkscape:cy="9.2829744"
     inkscape:cx="278.84744"
     inkscape:zoom="0.3601268"
     showgrid="false"
     id="namedview876"
     inkscape:window-height="480"
     inkscape:window-width="758"
     inkscape:pageshadow="2"
     inkscape:pageopacity="0"
     guidetolerance="10"
     gridtolerance="10"
     objecttolerance="10"
     borderopacity="1"
     inkscape:document-rotation="0"
     bordercolor="#666666"
     pagecolor="#ffffff" />
  <defs
     id="defs835">
    <style
       id="style833">.cls-1{fill:#fff;}.cls-2{fill:#d52b1e;}.cls-3{fill:#0050a0;}.cls-4{fill:#003145;}</style>
  </defs>
  <path
     inkscape:connector-curvature="0"
     id="path839"
     d="m 154.9,66.18 c 0,0 -8.92,2.58 -26.16,13.15 -15.47,9.51 -21.53,15.9 -21.53,15.9 L 59.46,62.31 c 0,0 20.08,-14.74 36.85,-3.45 l 22.5,15.41 2.74,-1.8 -62.08,-43.42 c 0,0 8.93,-2.58 26.17,-13.16 C 101.11,6.39 107.18,0 107.18,0 l 47.72,32.92 c 0,0 -20.07,14.73 -36.84,3.45 l -22.5,-15.41 -2.74,1.8 z"
     class="cls-2" />
  <rect
     id="rect841"
     height="31.74"
     width="11.99"
     y="111.09"
     x="202.67999"
     class="cls-3" />
  <polygon
     transform="translate(-34.1,-69.43)"
     id="polygon843"
     points="206.4,191.47 206.4,180.52 194.4,180.52 194.4,212.26 206.4,212.26 206.4,201 218.26,212.26 234.38,212.26 216.84,195.97 234.96,180.52 219.17,180.52 "
     class="cls-3" />
  <path
     inkscape:connector-curvature="0"
     id="path845"
     d="m 139.01,143.64 c 14.51,0 18.23,-3.7 18.23,-11.87 v -20.68 h -11.5 v 19.48 c 0,3.26 -2.8,5.21 -6.73,5.21 -4.1,0 -6.74,-2 -6.74,-5.26 v -19.4 h -11.51 v 20.65 c 0,8.17 3.73,11.87 18.25,11.87 z"
     class="cls-3" />
  <polygon
     transform="translate(-34.1,-69.43)"
     id="polygon847"
     points="115.71,188.58 133.25,188.58 115.1,205.51 115.1,212.26 151.96,212.26 151.96,204.17 133.61,204.17 152.02,187.28 152.02,180.52 115.71,180.52 "
     class="cls-3" />
  <path
     inkscape:connector-curvature="0"
     id="path849"
     d="m 60.23,143.64 c 14.53,0 18.24,-3.7 18.24,-11.87 v -20.68 h -11.5 v 19.48 c 0,3.26 -2.8,5.21 -6.74,5.21 -4.1,0 -6.73,-2 -6.73,-5.26 v -19.4 H 41.99 v 20.65 c 0,8.17 3.73,11.87 18.24,11.87 z"
     class="cls-3" />
  <path
     inkscape:connector-curvature="0"
     id="path851"
     d="m 13.64,119.86 c 0,-2.45 3.64,-2.54 4.87,-2.54 a 7,7 0 0 1 5.89,3.59 h 13.57 c 0,-6 -5.68,-10.74 -19.42,-10.74 -15.26,0 -17.86,6.69 -17.86,10.53 0,7.08 5.49,9.16 17.44,10.43 1,0.11 7.24,-0.19 7.24,2.8 0,2.21 -3.5,2.36 -4.78,2.36 -1.28,0 -3.69,-0.21 -5.64,-3.72 H 0 c 0,7 4.71,11 20.57,11 14.6,0 18.48,-6 18.48,-10.47 0,-4.47 -3,-8.87 -15.48,-10.46 -5.19,-0.68 -9.93,-0.96 -9.93,-2.78 z"
     class="cls-3" />
</svg>
