<svg xmlns="http://www.w3.org/2000/svg" version="1.1" data-name="Ebene 1" id="Ebene_1" viewBox="0 0 214.67 143.64"><defs id="defs835"><style id="style833">.cls-3{fill:#0050a0}</style></defs><path id="path839" d="M154.9 66.18s-8.92 2.58-26.16 13.15c-15.47 9.51-21.53 15.9-21.53 15.9L59.46 62.31s20.08-14.74 36.85-3.45l22.5 15.41 2.74-1.8-62.08-43.42s8.93-2.58 26.17-13.16C101.11 6.39 107.18 0 107.18 0l47.72 32.92s-20.07 14.73-36.84 3.45l-22.5-15.41-2.74 1.8z" style="fill:#d52b1e"/><path id="rect841" class="cls-3" d="M202.68 111.09h11.99v31.74h-11.99z"/><path transform="translate(-34.1 -69.43)" id="polygon843" class="cls-3" d="M206.4 191.47v-10.95h-12v31.74h12V201l11.86 11.26h16.12l-17.54-16.29 18.12-15.45h-15.79z"/><path id="path845" d="M139.01 143.64c14.51 0 18.23-3.7 18.23-11.87v-20.68h-11.5v19.48c0 3.26-2.8 5.21-6.73 5.21-4.1 0-6.74-2-6.74-5.26v-19.4h-11.51v20.65c0 8.17 3.73 11.87 18.25 11.87z" class="cls-3"/><path transform="translate(-34.1 -69.43)" id="polygon847" class="cls-3" d="M115.71 188.58h17.54l-18.15 16.93v6.75h36.86v-8.09h-18.35l18.41-16.89v-6.76h-36.31z"/><path id="path849" d="M60.23 143.64c14.53 0 18.24-3.7 18.24-11.87v-20.68h-11.5v19.48c0 3.26-2.8 5.21-6.74 5.21-4.1 0-6.73-2-6.73-5.26v-19.4H41.99v20.65c0 8.17 3.73 11.87 18.24 11.87z" class="cls-3"/><path id="path851" d="M13.64 119.86c0-2.45 3.64-2.54 4.87-2.54a7 7 0 0 1 5.89 3.59h13.57c0-6-5.68-10.74-19.42-10.74-15.26 0-17.86 6.69-17.86 10.53 0 7.08 5.49 9.16 17.44 10.43 1 .11 7.24-.19 7.24 2.8 0 2.21-3.5 2.36-4.78 2.36-1.28 0-3.69-.21-5.64-3.72H0c0 7 4.71 11 20.57 11 14.6 0 18.48-6 18.48-10.47 0-4.47-3-8.87-15.48-10.46-5.19-.68-9.93-.96-9.93-2.78z" class="cls-3"/></svg>