<svg xmlns="http://www.w3.org/2000/svg" viewBox="0 0 25.85 25.201"><path style="color:#000;font-style:normal;font-variant:normal;font-weight:400;font-stretch:normal;font-size:medium;line-height:normal;font-family:sans-serif;font-variant-ligatures:normal;font-variant-position:normal;font-variant-caps:normal;font-variant-numeric:normal;font-variant-alternates:normal;font-variant-east-asian:normal;font-feature-settings:normal;font-variation-settings:normal;text-indent:0;text-align:start;text-decoration:none;text-decoration-line:none;text-decoration-style:solid;text-decoration-color:#000;letter-spacing:normal;word-spacing:normal;text-transform:none;writing-mode:lr-tb;direction:ltr;text-orientation:mixed;dominant-baseline:auto;baseline-shift:baseline;text-anchor:start;white-space:normal;shape-padding:0;shape-margin:0;inline-size:0;clip-rule:nonzero;display:inline;overflow:visible;visibility:visible;opacity:1;isolation:auto;mix-blend-mode:normal;color-interpolation:sRGB;color-interpolation-filters:linearRGB;solid-color:#000;solid-opacity:1;vector-effect:none;fill:#000;fill-opacity:1;fill-rule:nonzero;stroke:none;stroke-width:2;stroke-linecap:butt;stroke-linejoin:miter;stroke-miterlimit:4;stroke-dasharray:none;stroke-dashoffset:0;stroke-opacity:1;color-rendering:auto;image-rendering:auto;shape-rendering:auto;text-rendering:auto;enable-background:accumulate;stop-color:#000;stop-opacity:1" d="m7.174 0-.28 1.223-1.142 5.002L0 8.995l3.98 4.991-1.42 6.223h6.383l3.983 4.992 3.98-4.992h6.385l-1.42-6.225 3.979-4.99-5.75-2.77L18.678 0l-5.752 2.77Zm1.39 2.889 2.057.99-2.564 1.236Zm8.721.002.508 2.222-2.563-1.232zm-4.36 2.1 5.436 2.616 1.344 5.883-3.764 4.719H9.908L6.145 13.49l1.343-5.88ZM5.185 8.718l-.633 2.773-1.422-1.785Zm15.484 0 2.053.988-1.42 1.783zM5.576 15.984 7.35 18.21H5.068Zm14.697.002.508 2.223h-2.279zm-8.77 4.223h2.843l-1.42 1.783z"/><g style="font-weight:900;font-size:11.3941px;line-height:1.25;font-family:Montserrat;-inkscape-font-specification:'Montserrat Heavy';word-spacing:0;fill:#000;stroke-width:.118688"><g style="opacity:1" aria-label="⁂"><path style="color:#000;font-style:normal;font-variant:normal;font-weight:400;font-stretch:normal;font-size:medium;line-height:1.25;font-family:Montserrat;-inkscape-font-specification:'Montserrat Heavy';font-variant-ligatures:normal;font-variant-position:normal;font-variant-caps:normal;font-variant-numeric:normal;font-variant-alternates:normal;font-variant-east-asian:normal;font-feature-settings:normal;font-variation-settings:normal;text-indent:0;text-align:start;text-decoration:none;text-decoration-line:none;text-decoration-style:solid;text-decoration-color:#000;letter-spacing:normal;word-spacing:0;text-transform:none;writing-mode:lr-tb;direction:ltr;text-orientation:mixed;dominant-baseline:auto;baseline-shift:baseline;text-anchor:start;white-space:normal;shape-padding:0;shape-margin:0;inline-size:0;clip-rule:nonzero;display:inline;overflow:visible;visibility:visible;isolation:auto;mix-blend-mode:normal;color-interpolation:sRGB;color-interpolation-filters:linearRGB;solid-color:#000;solid-opacity:1;vector-effect:none;fill:#000;fill-opacity:1;fill-rule:nonzero;stroke:none;stroke-width:.118688;stroke-linecap:butt;stroke-linejoin:miter;stroke-miterlimit:4;stroke-dasharray:none;stroke-dashoffset:0;stroke-opacity:1;color-rendering:auto;image-rendering:auto;shape-rendering:auto;text-rendering:auto;enable-background:accumulate;stop-color:#000;stop-opacity:1" d="m350.214 125.178.261-.828 1.163.378v-1.341h.962v1.34l1.163-.377.262.828-1.185.368.773 1.107-.712.506-.773-1.046-.796 1.046-.712-.506.779-1.107zm-1.358-4.957v-1.34h.963v1.34l1.162-.378.262.829-1.185.367.773 1.107-.712.507-.773-1.046-.796 1.046-.712-.507.779-1.107-1.185-.367.261-.829zm-.64 6.432-.712.506-.773-1.046-.796 1.046-.712-.506.78-1.107-1.186-.368.262-.828 1.162.378v-1.341h.963v1.34l1.163-.377.261.828-1.185.368z" transform="translate(-336.496 -111.746)"/><path style="color:#000;font-style:normal;font-variant:normal;font-weight:400;font-stretch:normal;font-size:medium;line-height:1.25;font-family:Montserrat;-inkscape-font-specification:'Montserrat Heavy';font-variant-ligatures:normal;font-variant-position:normal;font-variant-caps:normal;font-variant-numeric:normal;font-variant-alternates:normal;font-variant-east-asian:normal;font-feature-settings:normal;font-variation-settings:normal;text-indent:0;text-align:start;text-decoration:none;text-decoration-line:none;text-decoration-style:solid;text-decoration-color:#000;letter-spacing:normal;word-spacing:0;text-transform:none;writing-mode:lr-tb;direction:ltr;text-orientation:mixed;dominant-baseline:auto;baseline-shift:baseline;text-anchor:start;white-space:normal;shape-padding:0;shape-margin:0;inline-size:0;clip-rule:nonzero;display:inline;overflow:visible;visibility:visible;isolation:auto;mix-blend-mode:normal;color-interpolation:sRGB;color-interpolation-filters:linearRGB;solid-color:#000;solid-opacity:1;vector-effect:none;fill-opacity:1;fill-rule:nonzero;stroke:none;stroke-width:.118688;stroke-linecap:butt;stroke-linejoin:miter;stroke-miterlimit:4;stroke-dasharray:none;stroke-dashoffset:0;stroke-opacity:1;color-rendering:auto;image-rendering:auto;shape-rendering:auto;text-rendering:auto;enable-background:accumulate;stop-color:#000;stop-opacity:1" d="M348.797 118.82v1.319l-1.143-.371-.297.943 1.164.361-.765 1.088.807.574.783-1.029.76 1.03.808-.575-.76-1.088 1.164-.361-.298-.943-1.141.37v-1.318zm.119.12h.844v1.363l1.183-.385.225.715-1.205.373.785 1.127-.615.437-.787-1.062-.809 1.062-.617-.437.793-1.127-1.207-.373.226-.715 1.184.385v-.082zm-2.734 4.388v1.318l-1.143-.37-.297.94 1.164.362-.765 1.088.806.574.783-1.03.76 1.03.809-.572-.033-.049-.727-1.04 1.164-.362-.299-.942-1.14.372v-1.319zm5.396 0v1.318l-1.14-.37-.3.94.057.018 1.108.344-.766 1.088.807.574.783-1.029.762 1.03.806-.573-.76-1.09 1.165-.361-.297-.942-1.143.372v-1.319zm-5.277.12h.844v1.36l1.183-.384.227.715-1.207.375.785 1.125-.615.437-.786-1.062-.808 1.064-.617-.44.79-1.124-1.206-.375.226-.715 1.184.385zm5.396 0h.844v1.36l1.184-.384.226.715-1.207.375.787 1.125-.617.437-.785-1.062-.809 1.064-.617-.44.791-1.124-1.207-.375.227-.715 1.183.385z" transform="translate(-336.496 -111.746)"/></g></g></svg>